<?xml version="1.0" encoding="UTF-8"?>
<svg xmlns="http://www.w3.org/2000/svg" xmlns:xlink="http://www.w3.org/1999/xlink" width="600pt" height="311pt" viewBox="0 0 600 311" version="1.1">
<defs>
<filter id="alpha" filterUnits="objectBoundingBox" x="0%" y="0%" width="100%" height="100%">
  <feColorMatrix type="matrix" in="SourceGraphic" values="0 0 0 0 1 0 0 0 0 1 0 0 0 0 1 0 0 0 1 0"/>
</filter>
<mask id="mask0">
  <g filter="url(#alpha)">
<rect x="0" y="0" width="600" height="311" style="fill:rgb(0%,0%,0%);fill-opacity:0.2;stroke:none;"/>
  </g>
</mask>
<clipPath id="clip1">
  <rect x="0" y="0" width="600" height="311"/>
</clipPath>
<g id="surface5" clip-path="url(#clip1)">
<path style=" stroke:none;fill-rule:nonzero;fill:rgb(0%,0%,0%);fill-opacity:1;" d="M 69.550781 79.238281 L 74.230469 117.957031 L 71.25 117.957031 Z M 69.550781 79.238281 "/>
</g>
<mask id="mask1">
  <g filter="url(#alpha)">
<rect x="0" y="0" width="600" height="311" style="fill:rgb(0%,0%,0%);fill-opacity:0.2;stroke:none;"/>
  </g>
</mask>
<clipPath id="clip2">
  <rect x="0" y="0" width="600" height="311"/>
</clipPath>
<g id="surface8" clip-path="url(#clip2)">
<path style=" stroke:none;fill-rule:nonzero;fill:rgb(0%,0%,0%);fill-opacity:1;" d="M 20.207031 64.347656 L 17.839844 79.238281 L 22.332031 64.347656 Z M 20.207031 64.347656 "/>
</g>
</defs>
<g id="surface1">
<path style=" stroke:none;fill-rule:nonzero;fill:rgb(24.705882%,23.921569%,33.72549%);fill-opacity:1;" d="M 213.605469 174.511719 L 261.917969 3.628906 L 564.78125 89.292969 L 516.46875 260.171875 Z M 213.605469 174.511719 "/>
<path style=" stroke:none;fill-rule:nonzero;fill:rgb(42.352941%,38.823529%,100%);fill-opacity:1;" d="M 269.660156 10.777344 C 269.660156 12.164062 268.535156 13.285156 267.148438 13.285156 C 265.765625 13.285156 264.640625 12.164062 264.640625 10.777344 C 264.640625 9.390625 265.765625 8.269531 267.148438 8.269531 C 268.535156 8.269531 269.660156 9.390625 269.660156 10.777344 Z M 269.660156 10.777344 "/>
<path style=" stroke:none;fill-rule:nonzero;fill:rgb(42.352941%,38.823529%,100%);fill-opacity:1;" d="M 277.382812 12.960938 C 277.382812 14.347656 276.257812 15.472656 274.875 15.472656 C 273.488281 15.472656 272.367188 14.347656 272.367188 12.960938 C 272.367188 11.578125 273.488281 10.453125 274.875 10.453125 C 276.257812 10.453125 277.382812 11.578125 277.382812 12.960938 Z M 277.382812 12.960938 "/>
<path style=" stroke:none;fill-rule:nonzero;fill:rgb(42.352941%,38.823529%,100%);fill-opacity:1;" d="M 285.105469 15.148438 C 285.105469 16.53125 283.984375 17.65625 282.597656 17.65625 C 281.210938 17.65625 280.089844 16.53125 280.089844 15.148438 C 280.089844 13.761719 281.210938 12.636719 282.597656 12.636719 C 283.984375 12.636719 285.105469 13.761719 285.105469 15.148438 Z M 285.105469 15.148438 "/>
<path style=" stroke:none;fill-rule:nonzero;fill:rgb(42.352941%,38.823529%,100%);fill-opacity:1;" d="M 422.648438 112.058594 C 418.597656 111.292969 414.425781 111.390625 410.410156 112.347656 C 411.582031 108.335938 411.875 104.117188 411.277344 99.980469 C 407.144531 101.476562 403.402344 103.890625 400.335938 107.042969 C 399.375 102.75 397.453125 98.734375 394.714844 95.296875 C 392.039062 98.507812 390.082031 102.253906 388.976562 106.285156 C 386.058594 103.367188 382.554688 101.101562 378.699219 99.628906 C 378.699219 99.628906 376.875 108.921875 381.273438 116.546875 C 385.1875 123.332031 392.707031 126.507812 394.3125 127.125 L 394.351562 127.171875 L 394.371094 127.148438 C 394.535156 127.210938 394.625 127.242188 394.625 127.242188 C 394.625 127.242188 394.660156 127.0625 394.707031 126.742188 C 394.738281 126.707031 394.765625 126.671875 394.796875 126.632812 C 394.804688 126.683594 394.808594 126.730469 394.816406 126.773438 C 394.691406 127.070312 394.625 127.242188 394.625 127.242188 C 394.625 127.242188 394.71875 127.261719 394.890625 127.292969 L 394.898438 127.324219 L 394.953125 127.304688 C 396.644531 127.621094 404.714844 128.855469 411.601562 125.125 C 419.339844 120.933594 422.648438 112.058594 422.648438 112.058594 Z M 422.648438 112.058594 "/>
<path style=" stroke:none;fill-rule:nonzero;fill:rgb(42.352941%,38.823529%,100%);fill-opacity:1;" d="M 414.164062 81.800781 C 414.164062 85.402344 411.242188 88.324219 407.640625 88.324219 C 404.039062 88.324219 401.117188 85.402344 401.117188 81.800781 C 401.117188 78.199219 404.039062 75.277344 407.640625 75.277344 C 411.242188 75.277344 414.164062 78.199219 414.164062 81.800781 Z M 414.164062 81.800781 "/>
<path style=" stroke:none;fill-rule:nonzero;fill:rgb(42.352941%,38.823529%,100%);fill-opacity:1;" d="M 293.539062 111.058594 L 489.527344 166.492188 L 488.320312 170.757812 L 292.332031 115.324219 Z M 293.539062 111.058594 "/>
<path style=" stroke:none;fill-rule:nonzero;fill:rgb(42.352941%,38.823529%,100%);fill-opacity:1;" d="M 305.875 137.492188 L 339.667969 147.046875 L 330.109375 180.847656 L 296.320312 171.289062 Z M 305.875 137.492188 "/>
<path style=" stroke:none;fill-rule:nonzero;fill:rgb(42.352941%,38.823529%,100%);fill-opacity:1;" d="M 368.628906 155.242188 L 402.421875 164.796875 L 392.867188 198.597656 L 359.074219 189.039062 Z M 368.628906 155.242188 "/>
<path style=" stroke:none;fill-rule:nonzero;fill:rgb(42.352941%,38.823529%,100%);fill-opacity:1;" d="M 431.386719 172.992188 L 465.175781 182.546875 L 455.621094 216.347656 L 421.832031 206.789062 Z M 431.386719 172.992188 "/>
<path style=" stroke:none;fill-rule:nonzero;fill:rgb(42.352941%,38.823529%,100%);fill-opacity:1;" d="M 298.753906 179.277344 L 323.855469 186.378906 L 323.035156 189.273438 L 297.933594 182.175781 Z M 298.753906 179.277344 "/>
<path style=" stroke:none;fill-rule:nonzero;fill:rgb(42.352941%,38.823529%,100%);fill-opacity:1;" d="M 361.507812 197.027344 L 386.609375 204.128906 L 385.792969 207.023438 L 360.6875 199.925781 Z M 361.507812 197.027344 "/>
<path style=" stroke:none;fill-rule:nonzero;fill:rgb(42.352941%,38.823529%,100%);fill-opacity:1;" d="M 424.261719 214.777344 L 449.367188 221.878906 L 448.546875 224.773438 L 423.445312 217.675781 Z M 424.261719 214.777344 "/>
<path style=" stroke:none;fill-rule:nonzero;fill:rgb(81.568627%,80.392157%,88.235294%);fill-opacity:1;" d="M 339.074219 234.433594 C 339.074219 231.003906 263.910156 228.222656 171.191406 228.222656 C 78.472656 228.222656 3.308594 231.003906 3.308594 234.433594 C 3.308594 237.859375 78.472656 240.640625 171.191406 240.640625 C 263.910156 240.640625 339.074219 237.859375 339.074219 234.433594 Z M 339.074219 234.433594 "/>
<path style=" stroke:none;fill-rule:nonzero;fill:rgb(81.568627%,80.392157%,88.235294%);fill-opacity:1;" d="M 600.074219 304.792969 C 600.074219 301.363281 541.585938 298.582031 469.433594 298.582031 C 397.285156 298.582031 338.792969 301.363281 338.792969 304.792969 C 338.792969 308.21875 397.285156 311 469.433594 311 C 541.585938 311 600.074219 308.21875 600.074219 304.792969 Z M 600.074219 304.792969 "/>
<path style=" stroke:none;fill-rule:nonzero;fill:rgb(24.705882%,23.921569%,33.72549%);fill-opacity:1;" d="M 405.359375 256.605469 L 443.050781 256.605469 L 443.050781 272.371094 L 421.121094 272.371094 L 421.121094 288.132812 L 443.050781 288.132812 L 443.050781 303.898438 L 405.359375 303.898438 Z M 450.589844 256.605469 L 488.28125 256.605469 L 488.28125 270.3125 L 466.351562 270.3125 L 466.351562 273.054688 L 488.28125 273.054688 L 488.28125 304.585938 L 450.589844 304.585938 L 450.589844 290.1875 L 472.519531 290.1875 L 472.519531 287.449219 L 450.589844 287.449219 Z M 495.820312 256.605469 L 533.507812 256.605469 L 533.507812 270.3125 L 511.582031 270.3125 L 511.582031 273.054688 L 533.507812 273.054688 L 533.507812 304.585938 L 495.820312 304.585938 L 495.820312 290.1875 L 517.746094 290.1875 L 517.746094 287.449219 L 495.820312 287.449219 Z M 495.820312 256.605469 "/>
<path style=" stroke:none;fill-rule:nonzero;fill:rgb(24.705882%,23.921569%,33.72549%);fill-opacity:1;" d="M 75.953125 184.472656 L 91.503906 184.472656 L 91.503906 199.835938 L 105.726562 199.835938 L 105.726562 184.472656 L 121.273438 184.472656 L 121.273438 231 L 105.726562 231 L 105.726562 215.417969 L 91.503906 215.417969 L 91.503906 231 L 75.957031 231 L 75.957031 184.472656 Z M 141.71875 199.902344 L 128.035156 199.902344 L 128.035156 184.472656 L 170.964844 184.472656 L 170.964844 199.902344 L 157.273438 199.902344 L 157.273438 231 L 141.722656 231 L 141.722656 199.902344 Z M 177.777344 184.472656 L 193.992188 184.472656 L 203.964844 200.820312 L 213.925781 184.472656 L 230.144531 184.472656 L 230.144531 231 L 214.660156 231 L 214.660156 207.9375 L 203.964844 224.480469 L 203.695312 224.480469 L 192.992188 207.9375 L 192.992188 231 L 177.777344 231 Z M 237.882812 184.472656 L 253.4375 184.472656 L 253.4375 215.621094 L 275.300781 215.621094 L 275.300781 231 L 237.882812 231 Z M 237.882812 184.472656 "/>
<path style=" stroke:none;fill-rule:nonzero;fill:rgb(100%,72.156863%,72.156863%);fill-opacity:1;" d="M 48.492188 216.453125 L 47.21875 230.917969 L 57.425781 230.066406 L 57.425781 217.730469 Z M 48.492188 216.453125 "/>
<path style=" stroke:none;fill-rule:nonzero;fill:rgb(100%,72.156863%,72.156863%);fill-opacity:1;" d="M 39.136719 216.453125 L 40.410156 230.917969 L 30.203125 230.066406 L 30.203125 217.730469 Z M 39.136719 216.453125 "/>
<path style=" stroke:none;fill-rule:nonzero;fill:rgb(18.431373%,18.039216%,25.490196%);fill-opacity:1;" d="M 65.933594 105.40625 C 65.933594 105.40625 69.335938 125.828125 69.335938 128.808594 C 69.335938 131.785156 68.0625 150.929688 65.933594 154.761719 C 63.808594 158.589844 63.382812 160.292969 64.230469 161.992188 C 65.082031 163.695312 64.65625 163.269531 64.230469 164.546875 C 63.808594 165.824219 62.957031 165.398438 64.230469 167.097656 C 65.300781 168.632812 65.300781 170.671875 64.230469 172.203125 C 63.382812 173.480469 65.933594 207.945312 62.53125 210.496094 C 59.128906 213.050781 58.277344 221.558594 58.277344 221.558594 L 47.21875 220.28125 L 47.21875 210.921875 C 47.21875 210.921875 44.664062 204.113281 46.367188 199.859375 C 48.066406 195.605469 48.917969 173.054688 48.917969 173.054688 C 48.917969 173.054688 48.492188 170.929688 48.917969 169.652344 C 49.34375 168.375 48.917969 167.523438 48.066406 167.097656 C 47.21875 166.671875 46.792969 164.972656 46.792969 164.972656 L 45.515625 133.914062 L 40.410156 164.546875 C 40.410156 164.546875 45.515625 206.242188 40.410156 211.773438 L 40.410156 221.558594 L 29.351562 221.558594 L 31.050781 210.921875 C 31.050781 210.921875 27.648438 201.136719 29.351562 199.007812 C 31.050781 196.882812 24.246094 162.84375 25.097656 161.566406 C 25.949219 160.292969 25.523438 159.867188 25.097656 159.015625 C 24.671875 158.164062 23.394531 157.3125 23.820312 156.460938 C 24.246094 155.613281 23.820312 153.910156 23.820312 153.910156 C 23.820312 153.910156 15.738281 113.914062 19.566406 110.085938 C 23.394531 106.257812 65.933594 105.40625 65.933594 105.40625 Z M 65.933594 105.40625 "/>
<path style=" stroke:none;fill-rule:nonzero;fill:rgb(18.431373%,18.039216%,25.490196%);fill-opacity:1;" d="M 49.769531 225.386719 C 49.769531 225.386719 50.621094 221.308594 57.425781 222.710938 C 57.425781 222.710938 59.128906 226.238281 59.128906 227.941406 C 59.128906 229.644531 60.828125 241.128906 60.828125 241.128906 C 60.828125 241.128906 67.636719 252.617188 59.128906 252.617188 C 50.621094 252.617188 47.640625 249.640625 47.21875 246.660156 C 46.792969 243.683594 47.640625 242.832031 45.941406 241.554688 C 44.238281 240.28125 43.390625 240.28125 43.8125 238.578125 C 44.238281 236.875 45.089844 228.367188 45.089844 228.367188 C 45.089844 228.367188 45.515625 221.984375 47.855469 223.6875 L 50.195312 225.386719 "/>
<path style=" stroke:none;fill-rule:nonzero;fill:rgb(18.431373%,18.039216%,25.490196%);fill-opacity:1;" d="M 37.859375 225.386719 C 37.859375 225.386719 37.007812 221.308594 30.203125 222.710938 C 30.203125 222.710938 28.5 226.238281 28.5 227.941406 C 28.5 229.644531 26.800781 241.128906 26.800781 241.128906 C 26.800781 241.128906 19.992188 252.617188 28.5 252.617188 C 37.007812 252.617188 39.984375 249.640625 40.410156 246.660156 C 40.835938 243.683594 39.984375 242.832031 41.6875 241.554688 C 43.390625 240.28125 44.238281 240.28125 43.8125 238.578125 C 43.390625 236.875 42.539062 228.367188 42.539062 228.367188 C 42.539062 228.367188 42.113281 221.984375 39.773438 223.6875 L 37.433594 225.386719 "/>
<path style=" stroke:none;fill-rule:nonzero;fill:rgb(100%,72.156863%,72.156863%);fill-opacity:1;" d="M 61.679688 15.632812 C 61.679688 21.976562 56.539062 27.121094 50.195312 27.121094 C 43.851562 27.121094 38.710938 21.976562 38.710938 15.632812 C 38.710938 9.289062 43.851562 4.144531 50.195312 4.144531 C 56.539062 4.144531 61.679688 9.289062 61.679688 15.632812 Z M 61.679688 15.632812 "/>
<path style=" stroke:none;fill-rule:nonzero;fill:rgb(100%,72.156863%,72.156863%);fill-opacity:1;" d="M 40.835938 17.335938 C 40.835938 17.335938 36.15625 35.628906 35.304688 36.054688 C 34.457031 36.480469 54.875 38.183594 54.875 38.183594 C 54.875 38.183594 49.769531 22.441406 54.875 19.886719 Z M 40.835938 17.335938 "/>
<path style=" stroke:none;fill-rule:nonzero;fill:rgb(81.568627%,80.392157%,88.235294%);fill-opacity:1;" d="M 37.847656 28.484375 L 37.847656 28.480469 L 23.820312 38.183594 L 26.375 114.339844 C 26.375 114.339844 45.089844 112.214844 49.34375 112.640625 C 53.597656 113.066406 67.210938 108.808594 67.210938 108.808594 L 61.246094 37.246094 C 61.007812 34.359375 58.695312 32.074219 55.804688 31.871094 L 53.25 31.691406 C 53.25 31.691406 50.699219 38.011719 43.019531 34.75 C 40.394531 33.609375 38.472656 31.277344 37.847656 28.484375 Z M 37.847656 28.484375 "/>
<path style=" stroke:none;fill-rule:nonzero;fill:rgb(34.117647%,35.294118%,53.72549%);fill-opacity:1;" d="M 38.1875 27.789062 L 20.84375 36.054688 L 17.441406 84.984375 C 17.441406 84.984375 10.632812 114.339844 16.164062 122.851562 C 21.695312 131.359375 31.050781 132.210938 31.050781 132.210938 C 31.050781 132.210938 43.390625 83.28125 39.984375 66.6875 C 36.582031 50.09375 38.1875 27.789062 38.1875 27.789062 Z M 38.1875 27.789062 "/>
<path style=" stroke:none;fill-rule:nonzero;fill:rgb(100%,72.156863%,72.156863%);fill-opacity:1;" d="M 5.53125 101.578125 L 5.53125 107.960938 C 5.53125 107.960938 2.976562 122 11.058594 121.574219 C 19.140625 121.148438 15.3125 106.257812 15.3125 106.257812 L 12.761719 101.578125 Z M 5.53125 101.578125 "/>
<path style=" stroke:none;fill-rule:nonzero;fill:rgb(100%,72.156863%,72.156863%);fill-opacity:1;" d="M 80.398438 114.339844 L 79.546875 121.574219 C 79.546875 121.574219 83.800781 136.039062 75.71875 136.464844 C 67.636719 136.890625 73.5 121.664062 73.5 121.664062 L 76.144531 113.488281 Z M 80.398438 114.339844 "/>
<path style=" stroke:none;fill-rule:nonzero;fill:rgb(34.117647%,35.294118%,53.72549%);fill-opacity:1;" d="M 52.992188 30.203125 C 60.746094 32.113281 67.925781 35.847656 73.941406 41.097656 L 74.015625 41.160156 L 68.0625 72.644531 L 67.210938 84.132812 C 67.210938 84.132812 82.949219 140.292969 64.65625 132.210938 C 64.65625 132.210938 48.917969 83.28125 51.046875 60.730469 C 53.171875 38.183594 52.992188 30.203125 52.992188 30.203125 Z M 52.992188 30.203125 "/>
<path style=" stroke:none;fill-rule:nonzero;fill:rgb(34.117647%,35.294118%,53.72549%);fill-opacity:1;" d="M 68.484375 40.734375 C 68.910156 40.308594 74.015625 41.328125 74.015625 41.328125 C 74.015625 41.328125 83.375 74.347656 83.375 79.878906 C 83.375 85.410156 84.652344 116.894531 84.652344 116.894531 L 73.421875 118.027344 L 64.332031 74.28125 Z M 68.484375 40.734375 "/>
<path style=" stroke:none;fill-rule:nonzero;fill:rgb(34.117647%,35.294118%,53.72549%);fill-opacity:1;" d="M 23.820312 36.054688 L 20.84375 36.054688 C 20.84375 36.054688 12.335938 39.457031 11.910156 43.289062 C 11.484375 47.117188 0 85.835938 0 85.835938 L 2.976562 105.40625 L 14.039062 103.703125 L 16.164062 82.003906 L 27.222656 58.179688 Z M 23.820312 36.054688 "/>
<path style=" stroke:none;fill-rule:nonzero;fill:rgb(18.431373%,18.039216%,25.490196%);fill-opacity:1;" d="M 47.964844 18.839844 L 48.402344 15.769531 C 48.507812 15.054688 48.925781 14.113281 49.621094 14.304688 C 50.214844 14.472656 51.503906 14.980469 51.71875 14.824219 C 52.527344 14.253906 53.753906 15.253906 54.601562 14.746094 C 54.957031 14.53125 55.191406 14.074219 55.605469 14.046875 C 55.882812 14.0625 56.144531 14.183594 56.339844 14.378906 C 56.894531 14.859375 57.542969 15.210938 58.246094 15.414062 C 58.964844 15.609375 59.734375 15.402344 60.253906 14.867188 C 60.34375 14.726562 60.464844 14.613281 60.609375 14.527344 C 60.777344 14.480469 60.957031 14.488281 61.117188 14.550781 L 63.292969 15.140625 C 63.9375 12.796875 63.53125 10.285156 62.175781 8.265625 C 61.292969 7.070312 60.226562 6.023438 59.011719 5.164062 C 57.664062 4.140625 56.273438 3.179688 54.84375 2.277344 C 53.324219 1.203125 51.601562 0.453125 49.78125 0.0742188 C 47.949219 -0.203125 45.898438 0.292969 44.746094 1.746094 C 44.203125 1.351562 43.792969 0.800781 43.578125 0.167969 C 43.316406 0.40625 43.171875 0.75 43.1875 1.101562 C 43.203125 1.457031 43.375 1.785156 43.65625 2 L 41.816406 0.824219 C 41.300781 1.367188 42.308594 2.351562 41.871094 2.957031 C 41.738281 3.109375 41.566406 3.21875 41.375 3.28125 C 40.375 3.671875 39.460938 4.246094 38.679688 4.976562 C 37.691406 6.105469 36.964844 7.441406 36.558594 8.886719 C 35.460938 12.03125 34.667969 15.636719 36.222656 18.578125 C 36.398438 18.910156 38.726562 24.414062 39.039062 24.628906 C 40.085938 25.355469 39.402344 23.597656 40.15625 24.628906 C 40.746094 25.4375 40.632812 22.34375 41.511719 23.023438 C 42.210938 23.523438 43.140625 23.566406 43.886719 23.128906 C 44.25 22.878906 44.132812 21.480469 43.9375 20.195312 C 43.859375 19.699219 44.035156 19.195312 44.40625 18.855469 C 44.773438 18.515625 45.289062 18.378906 45.777344 18.492188 C 46.867188 18.75 47.945312 18.96875 47.964844 18.839844 Z M 47.964844 18.839844 "/>
<use xlink:href="#surface5" mask="url(#mask0)"/>
<use xlink:href="#surface8" mask="url(#mask1)"/>
</g>
</svg>
