<?xml version="1.0" encoding="UTF-8"?>
<svg xmlns="http://www.w3.org/2000/svg" xmlns:xlink="http://www.w3.org/1999/xlink" width="599pt" height="319pt" viewBox="0 0 599 319" version="1.1">
<defs>
<filter id="alpha" filterUnits="objectBoundingBox" x="0%" y="0%" width="100%" height="100%">
  <feColorMatrix type="matrix" in="SourceGraphic" values="0 0 0 0 1 0 0 0 0 1 0 0 0 0 1 0 0 0 1 0"/>
</filter>
<mask id="mask0">
  <g filter="url(#alpha)">
<rect x="0" y="0" width="599" height="319" style="fill:rgb(0%,0%,0%);fill-opacity:0.101961;stroke:none;"/>
  </g>
</mask>
<clipPath id="clip1">
  <rect x="0" y="0" width="599" height="319"/>
</clipPath>
<g id="surface5" clip-path="url(#clip1)">
<path style=" stroke:none;fill-rule:nonzero;fill:rgb(100%,100%,100%);fill-opacity:1;" d="M 553.242188 252.328125 C 552.574219 253.765625 551.910156 255.1875 551.246094 256.585938 C 550.210938 258.765625 549.1875 260.898438 548.179688 262.992188 C 547.730469 263.917969 547.28125 264.828125 546.84375 265.738281 C 541.894531 275.855469 537.277344 284.800781 533.351562 292.160156 C 526.097656 305.742188 512.023438 314.285156 496.636719 314.445312 L 409.375 315.394531 L 408.453125 315.394531 L 400.972656 315.476562 L 394.574219 315.546875 L 374.953125 315.757812 L 374.160156 315.757812 L 364.171875 315.867188 L 363.863281 315.867188 L 302.296875 316.535156 L 247.339844 317.113281 L 240.945312 317.179688 L 201.242188 317.613281 L 201.195312 317.613281 L 175.449219 317.890625 L 175.171875 317.890625 L 93.75 318.769531 L 69.394531 319.035156 C 64.195312 319.09375 59.019531 318.351562 54.046875 316.835938 C 45.394531 314.21875 37.617188 309.292969 31.554688 302.582031 C 21.09375 291.050781 13.46875 277.59375 8.347656 262.992188 C 7.609375 260.882812 6.917969 258.75 6.277344 256.585938 C -11.449219 196.617188 10.160156 119.246094 49.058594 67.46875 C 50.691406 65.304688 52.347656 63.191406 54.03125 61.132812 L 54.070312 61.089844 C 66.035156 46.394531 79.445312 34.117188 93.734375 25.386719 C 119.050781 9.890625 147.101562 5.527344 174.695312 18.535156 C 198.039062 29.546875 219.835938 34.722656 240.964844 36.125 C 243.097656 36.265625 245.234375 36.367188 247.355469 36.433594 C 295.824219 37.957031 341.246094 20.480469 394.585938 9.203125 C 396.710938 8.753906 398.839844 8.308594 400.984375 7.886719 C 439.035156 0.3125 481.25 -3.683594 531.445312 4.714844 C 536.664062 5.570312 541.808594 6.800781 546.84375 8.402344 C 549.058594 9.113281 551.191406 9.882812 553.242188 10.703125 C 577.203125 20.457031 590.269531 38.480469 595.824219 61.066406 C 596.347656 63.160156 596.804688 65.292969 597.1875 67.460938 C 607.03125 121.785156 578.199219 198.839844 553.242188 252.328125 Z M 553.242188 252.328125 "/>
</g>
<mask id="mask1">
  <g filter="url(#alpha)">
<rect x="0" y="0" width="599" height="319" style="fill:rgb(0%,0%,0%);fill-opacity:0.101961;stroke:none;"/>
  </g>
</mask>
<clipPath id="clip2">
  <rect x="0" y="0" width="599" height="319"/>
</clipPath>
<g id="surface8" clip-path="url(#clip2)">
<path style=" stroke:none;fill-rule:nonzero;fill:rgb(100%,100%,100%);fill-opacity:1;" d="M 93.734375 25.386719 L 93.734375 318.832031 L 69.378906 319.097656 C 64.179688 319.15625 59.003906 318.414062 54.03125 316.898438 L 54.03125 61.089844 L 54.070312 61.089844 C 66.035156 46.375 79.445312 34.097656 93.734375 25.386719 Z M 93.734375 25.386719 "/>
<path style=" stroke:none;fill-rule:nonzero;fill:rgb(100%,100%,100%);fill-opacity:1;" d="M 597.214844 67.46875 L 49.058594 67.46875 C 50.691406 65.304688 52.347656 63.191406 54.03125 61.132812 L 54.03125 61.089844 L 595.851562 61.089844 C 596.378906 63.171875 596.832031 65.300781 597.214844 67.46875 Z M 597.214844 67.46875 "/>
<path style=" stroke:none;fill-rule:nonzero;fill:rgb(100%,100%,100%);fill-opacity:1;" d="M 553.242188 10.710938 L 553.242188 256.582031 L 551.246094 256.582031 C 550.210938 258.757812 549.1875 260.894531 548.179688 262.984375 C 547.730469 263.910156 547.28125 264.820312 546.84375 265.730469 L 546.84375 8.382812 C 549.058594 9.097656 551.191406 9.875 553.242188 10.710938 Z M 553.242188 10.710938 "/>
<path style=" stroke:none;fill-rule:nonzero;fill:rgb(100%,100%,100%);fill-opacity:1;" d="M 400.984375 7.871094 L 400.984375 315.5 L 394.585938 315.566406 L 394.585938 9.183594 C 396.710938 8.734375 398.839844 8.292969 400.984375 7.871094 Z M 400.984375 7.871094 "/>
<path style=" stroke:none;fill-rule:nonzero;fill:rgb(100%,100%,100%);fill-opacity:1;" d="M 247.355469 36.414062 L 247.355469 317.167969 L 240.964844 317.238281 L 240.964844 36.109375 C 243.097656 36.246094 245.234375 36.328125 247.355469 36.414062 Z M 247.355469 36.414062 "/>
<path style=" stroke:none;fill-rule:nonzero;fill:rgb(100%,100%,100%);fill-opacity:1;" d="M 551.246094 256.585938 C 550.210938 258.765625 549.1875 260.898438 548.179688 262.992188 L 8.347656 262.992188 C 7.609375 260.882812 6.917969 258.75 6.277344 256.585938 Z M 551.246094 256.585938 "/>
</g>
<mask id="mask2">
  <g filter="url(#alpha)">
<rect x="0" y="0" width="599" height="319" style="fill:rgb(0%,0%,0%);fill-opacity:0.2;stroke:none;"/>
  </g>
</mask>
<clipPath id="clip3">
  <rect x="0" y="0" width="599" height="319"/>
</clipPath>
<g id="surface11" clip-path="url(#clip3)">
<path style=" stroke:none;fill-rule:nonzero;fill:rgb(0%,0%,0%);fill-opacity:1;" d="M 496.636719 307.28125 L 496.636719 314.769531 L 409.21875 315.574219 L 408.285156 315.589844 L 375.0625 315.894531 L 374.269531 315.90625 L 364.171875 315.996094 L 363.871094 315.996094 L 302.3125 316.5625 L 201.265625 317.503906 L 201.179688 317.503906 L 175.488281 317.746094 L 175.210938 317.75 L 61.050781 318.796875 L 61.050781 310.160156 L 87.894531 294.039062 L 141.75 293.589844 L 142.902344 293.582031 L 143.28125 293.578125 L 144.433594 293.5625 L 170.292969 293.347656 L 171.449219 293.34375 L 171.816406 293.335938 L 172.96875 293.332031 L 181.257812 293.261719 L 181.476562 293.253906 L 201.933594 293.082031 L 202.101562 293.082031 L 361.71875 291.734375 L 365.625 291.707031 L 366.015625 291.707031 L 368.996094 291.675781 L 390.660156 291.5 L 391.8125 291.480469 L 392.878906 291.46875 L 393.429688 291.46875 L 400.167969 291.417969 L 401.503906 291.402344 L 403.292969 291.390625 L 408.902344 291.339844 L 417.804688 291.261719 L 418.953125 291.25 L 420.957031 291.238281 L 421.332031 291.238281 L 464.320312 290.871094 Z M 496.636719 307.28125 "/>
</g>
<mask id="mask3">
  <g filter="url(#alpha)">
<rect x="0" y="0" width="599" height="319" style="fill:rgb(0%,0%,0%);fill-opacity:0.101961;stroke:none;"/>
  </g>
</mask>
<clipPath id="clip4">
  <rect x="0" y="0" width="599" height="319"/>
</clipPath>
<g id="surface14" clip-path="url(#clip4)">
<path style=" stroke:none;fill-rule:nonzero;fill:rgb(0%,0%,0%);fill-opacity:1;" d="M 170.378906 278.496094 L 170.378906 292.597656 C 170.378906 293.960938 169.59375 295.203125 168.363281 295.789062 C 167.914062 296.007812 167.425781 296.125 166.925781 296.132812 L 146.84375 296.5625 C 146.308594 296.574219 145.777344 296.460938 145.289062 296.230469 C 144.039062 295.65625 143.234375 294.40625 143.238281 293.023438 L 143.238281 278.496094 Z M 170.378906 278.496094 "/>
</g>
<mask id="mask4">
  <g filter="url(#alpha)">
<rect x="0" y="0" width="599" height="319" style="fill:rgb(0%,0%,0%);fill-opacity:0.101961;stroke:none;"/>
  </g>
</mask>
<clipPath id="clip5">
  <rect x="0" y="0" width="599" height="319"/>
</clipPath>
<g id="surface17" clip-path="url(#clip5)">
<path style=" stroke:none;fill-rule:nonzero;fill:rgb(0%,0%,0%);fill-opacity:1;" d="M 391.8125 278.496094 L 418.953125 278.496094 L 418.953125 296.636719 L 391.8125 296.636719 Z M 391.8125 278.496094 "/>
</g>
<mask id="mask5">
  <g filter="url(#alpha)">
<rect x="0" y="0" width="599" height="319" style="fill:rgb(0%,0%,0%);fill-opacity:0.101961;stroke:none;"/>
  </g>
</mask>
<clipPath id="clip6">
  <rect x="0" y="0" width="599" height="319"/>
</clipPath>
<g id="surface20" clip-path="url(#clip6)">
<path style=" stroke:none;fill-rule:nonzero;fill:rgb(0%,0%,0%);fill-opacity:1;" d="M 132.6875 153.0625 L 132.6875 156.363281 L 121.757812 156.078125 L 121.757812 153.0625 Z M 132.6875 153.0625 "/>
</g>
<mask id="mask6">
  <g filter="url(#alpha)">
<rect x="0" y="0" width="599" height="319" style="fill:rgb(0%,0%,0%);fill-opacity:0.101961;stroke:none;"/>
  </g>
</mask>
<clipPath id="clip7">
  <rect x="0" y="0" width="599" height="319"/>
</clipPath>
<g id="surface23" clip-path="url(#clip7)">
<path style=" stroke:none;fill-rule:nonzero;fill:rgb(0%,0%,0%);fill-opacity:1;" d="M 426.914062 151.335938 L 426.914062 153.515625 L 415.980469 153.742188 L 415.980469 151.335938 Z M 426.914062 151.335938 "/>
</g>
<mask id="mask7">
  <g filter="url(#alpha)">
<rect x="0" y="0" width="599" height="319" style="fill:rgb(0%,0%,0%);fill-opacity:0.101961;stroke:none;"/>
  </g>
</mask>
<clipPath id="clip8">
  <rect x="0" y="0" width="599" height="319"/>
</clipPath>
<g id="surface26" clip-path="url(#clip8)">
<path style=" stroke:none;fill-rule:nonzero;fill:rgb(0%,0%,0%);fill-opacity:1;" d="M 476.242188 149.492188 C 476.273438 149.972656 476.109375 150.449219 475.78125 150.804688 C 475.457031 151.160156 475 151.371094 474.515625 151.382812 L 464.320312 48.421875 L 465.472656 48.363281 C 466.421875 48.3125 467.242188 49.027344 467.324219 49.976562 Z M 476.242188 149.492188 "/>
</g>
<mask id="mask8">
  <g filter="url(#alpha)">
<rect x="0" y="0" width="599" height="319" style="fill:rgb(0%,0%,0%);fill-opacity:0.101961;stroke:none;"/>
  </g>
</mask>
<clipPath id="clip9">
  <rect x="0" y="0" width="599" height="319"/>
</clipPath>
<g id="surface29" clip-path="url(#clip9)">
<path style=" stroke:none;fill-rule:nonzero;fill:rgb(0%,0%,0%);fill-opacity:1;" d="M 96.800781 50.148438 L 83.8125 153.953125 L 81.816406 153.902344 C 81.113281 153.886719 80.453125 153.570312 79.996094 153.035156 C 79.539062 152.5 79.332031 151.796875 79.421875 151.097656 L 94.171875 52.242188 C 94.367188 50.964844 95.511719 50.050781 96.800781 50.148438 Z M 96.800781 50.148438 "/>
</g>
<mask id="mask9">
  <g filter="url(#alpha)">
<rect x="0" y="0" width="599" height="319" style="fill:rgb(0%,0%,0%);fill-opacity:0.101961;stroke:none;"/>
  </g>
</mask>
<clipPath id="clip10">
  <rect x="0" y="0" width="599" height="319"/>
</clipPath>
<g id="surface32" clip-path="url(#clip10)">
<path style=" stroke:none;fill-rule:nonzero;fill:rgb(0%,0%,0%);fill-opacity:1;" d="M 121.757812 176.433594 L 132.6875 176.433594 L 132.6875 186.269531 L 121.757812 186.269531 Z M 121.757812 176.433594 "/>
</g>
<mask id="mask10">
  <g filter="url(#alpha)">
<rect x="0" y="0" width="599" height="319" style="fill:rgb(0%,0%,0%);fill-opacity:0.101961;stroke:none;"/>
  </g>
</mask>
<clipPath id="clip11">
  <rect x="0" y="0" width="599" height="319"/>
</clipPath>
<g id="surface35" clip-path="url(#clip11)">
<path style=" stroke:none;fill-rule:nonzero;fill:rgb(0%,0%,0%);fill-opacity:1;" d="M 171.527344 278.492188 L 171.527344 281.351562 L 144.386719 282.078125 L 144.386719 278.492188 Z M 171.527344 278.492188 "/>
</g>
<mask id="mask11">
  <g filter="url(#alpha)">
<rect x="0" y="0" width="599" height="319" style="fill:rgb(0%,0%,0%);fill-opacity:0.101961;stroke:none;"/>
  </g>
</mask>
<clipPath id="clip12">
  <rect x="0" y="0" width="599" height="319"/>
</clipPath>
<g id="surface38" clip-path="url(#clip12)">
<path style=" stroke:none;fill-rule:nonzero;fill:rgb(0%,0%,0%);fill-opacity:1;" d="M 106.941406 177.585938 L 106.941406 281.921875 L 106.910156 281.921875 C 105.660156 281.90625 104.652344 280.898438 104.636719 279.648438 L 104.636719 179.859375 C 104.652344 178.609375 105.660156 177.601562 106.910156 177.585938 Z M 106.941406 177.585938 "/>
</g>
<mask id="mask12">
  <g filter="url(#alpha)">
<rect x="0" y="0" width="599" height="319" style="fill:rgb(0%,0%,0%);fill-opacity:0.101961;stroke:none;"/>
  </g>
</mask>
<clipPath id="clip13">
  <rect x="0" y="0" width="599" height="319"/>
</clipPath>
<g id="surface41" clip-path="url(#clip13)">
<path style=" stroke:none;fill-rule:nonzero;fill:rgb(0%,0%,0%);fill-opacity:1;" d="M 415.980469 176.433594 L 426.914062 176.433594 L 426.914062 186.464844 L 415.980469 186.464844 Z M 415.980469 176.433594 "/>
</g>
<mask id="mask13">
  <g filter="url(#alpha)">
<rect x="0" y="0" width="599" height="319" style="fill:rgb(0%,0%,0%);fill-opacity:0.101961;stroke:none;"/>
  </g>
</mask>
<clipPath id="clip14">
  <rect x="0" y="0" width="599" height="319"/>
</clipPath>
<g id="surface44" clip-path="url(#clip14)">
<path style=" stroke:none;fill-rule:nonzero;fill:rgb(0%,0%,0%);fill-opacity:1;" d="M 417.804688 278.492188 L 417.804688 282.183594 L 390.660156 281.457031 L 390.660156 278.492188 Z M 417.804688 278.492188 "/>
</g>
<mask id="mask14">
  <g filter="url(#alpha)">
<rect x="0" y="0" width="599" height="319" style="fill:rgb(0%,0%,0%);fill-opacity:0.101961;stroke:none;"/>
  </g>
</mask>
<clipPath id="clip15">
  <rect x="0" y="0" width="599" height="319"/>
</clipPath>
<g id="surface47" clip-path="url(#clip15)">
<path style=" stroke:none;fill-rule:nonzero;fill:rgb(0%,0%,0%);fill-opacity:1;" d="M 453.625 179.859375 L 453.625 279.648438 C 453.605469 280.910156 452.582031 281.921875 451.320312 281.921875 L 451.320312 177.585938 C 452.582031 177.585938 453.605469 178.601562 453.625 179.859375 Z M 453.625 179.859375 "/>
</g>
<mask id="mask15">
  <g filter="url(#alpha)">
<rect x="0" y="0" width="599" height="319" style="fill:rgb(0%,0%,0%);fill-opacity:0.101961;stroke:none;"/>
  </g>
</mask>
<clipPath id="clip16">
  <rect x="0" y="0" width="599" height="319"/>
</clipPath>
<g id="surface50" clip-path="url(#clip16)">
<path style=" stroke:none;fill-rule:nonzero;fill:rgb(0%,0%,0%);fill-opacity:1;" d="M 496.636719 307.28125 L 496.636719 314.769531 L 409.21875 315.574219 L 408.285156 315.589844 L 375.0625 315.894531 L 374.269531 315.90625 L 364.171875 315.996094 L 363.871094 315.996094 L 302.3125 316.5625 L 201.265625 317.503906 L 201.179688 317.503906 L 175.488281 317.746094 L 175.210938 317.75 L 61.050781 318.796875 L 61.050781 310.160156 L 177.578125 309.394531 L 177.851562 309.394531 L 201.4375 309.234375 L 201.546875 309.234375 L 364.433594 308.15625 L 364.601562 308.15625 L 364.699219 308.152344 L 364.96875 308.152344 L 367.726562 308.132812 L 368.566406 308.132812 L 411.429688 307.847656 L 413.960938 307.835938 L 414.523438 307.828125 Z M 496.636719 307.28125 "/>
</g>
<linearGradient id="linear0" gradientUnits="userSpaceOnUse" x1="597.75" y1="725.44" x2="597.75" y2="347.69" gradientTransform="matrix(0.575408,0,0,0.575812,-45.652891,-99.5637)">
<stop offset="0" style="stop-color:rgb(50.196078%,50.196078%,50.196078%);stop-opacity:0.25098;"/>
<stop offset="0.54" style="stop-color:rgb(50.196078%,50.196078%,50.196078%);stop-opacity:0.121569;"/>
<stop offset="1" style="stop-color:rgb(50.196078%,50.196078%,50.196078%);stop-opacity:0.101961;"/>
</linearGradient>
<mask id="mask16">
  <g filter="url(#alpha)">
<rect x="0" y="0" width="599" height="319" style="fill:rgb(0%,0%,0%);fill-opacity:0.101961;stroke:none;"/>
  </g>
</mask>
<clipPath id="clip17">
  <rect x="0" y="0" width="599" height="319"/>
</clipPath>
<g id="surface53" clip-path="url(#clip17)">
<path style=" stroke:none;fill-rule:nonzero;fill:rgb(0%,0%,0%);fill-opacity:1;" d="M 309.914062 217.171875 C 309.914062 217.171875 252.660156 224.082031 258.128906 217.171875 C 260.109375 214.675781 260.652344 207.269531 260.542969 198.832031 C 269.273438 195.101562 280.378906 197.882812 280.378906 197.882812 C 292.070312 195.550781 299.570312 196.007812 304.363281 197.640625 C 305.878906 204.242188 307.730469 210.761719 309.914062 217.171875 Z M 309.914062 217.171875 "/>
</g>
<mask id="mask17">
  <g filter="url(#alpha)">
<rect x="0" y="0" width="599" height="319" style="fill:rgb(0%,0%,0%);fill-opacity:0.101961;stroke:none;"/>
  </g>
</mask>
<clipPath id="clip18">
  <rect x="0" y="0" width="599" height="319"/>
</clipPath>
<g id="surface56" clip-path="url(#clip18)">
<path style=" stroke:none;fill-rule:nonzero;fill:rgb(0%,0%,0%);fill-opacity:1;" d="M 210.65625 250.28125 C 210.65625 250.28125 243.457031 267.269531 255.25 265.253906 Z M 210.65625 250.28125 "/>
</g>
<mask id="mask18">
  <g filter="url(#alpha)">
<rect x="0" y="0" width="599" height="319" style="fill:rgb(0%,0%,0%);fill-opacity:0.101961;stroke:none;"/>
  </g>
</mask>
<clipPath id="clip19">
  <rect x="0" y="0" width="599" height="319"/>
</clipPath>
<g id="surface59" clip-path="url(#clip19)">
<path style=" stroke:none;fill-rule:nonzero;fill:rgb(0%,0%,0%);fill-opacity:1;" d="M 277.40625 243.371094 C 277.40625 243.371094 309.339844 253.738281 319.984375 255.175781 C 330.628906 256.617188 277.40625 243.371094 277.40625 243.371094 Z M 277.40625 243.371094 "/>
</g>
<mask id="mask19">
  <g filter="url(#alpha)">
<rect x="0" y="0" width="599" height="319" style="fill:rgb(0%,0%,0%);fill-opacity:0.101961;stroke:none;"/>
  </g>
</mask>
<clipPath id="clip20">
  <rect x="0" y="0" width="599" height="319"/>
</clipPath>
<g id="surface62" clip-path="url(#clip20)">
<path style=" stroke:none;fill-rule:nonzero;fill:rgb(0%,0%,0%);fill-opacity:1;" d="M 312.828125 210.023438 C 296.140625 213.097656 264.722656 212.433594 251.144531 211.96875 C 256.121094 194.117188 280.390625 200.1875 280.390625 200.1875 C 310.433594 194.1875 312.734375 206.636719 312.828125 210.023438 Z M 312.828125 210.023438 "/>
</g>
<mask id="mask20">
  <g filter="url(#alpha)">
<rect x="0" y="0" width="599" height="319" style="fill:rgb(0%,0%,0%);fill-opacity:0.101961;stroke:none;"/>
  </g>
</mask>
<clipPath id="clip21">
  <rect x="0" y="0" width="599" height="319"/>
</clipPath>
<g id="surface65" clip-path="url(#clip21)">
<path style=" stroke:none;fill-rule:nonzero;fill:rgb(0%,0%,0%);fill-opacity:1;" d="M 302.636719 189.175781 C 301.789062 189.554688 300.925781 189.890625 300.046875 190.179688 C 293.84375 192.320312 287.589844 194.480469 281.058594 195.265625 C 274.527344 196.046875 267.675781 195.355469 261.976562 192.097656 C 261.378906 191.757812 260.804688 191.382812 260.25 190.972656 C 259.617188 178.304688 258.09375 165.925781 258.09375 165.925781 C 258.09375 165.925781 308.152344 142.316406 302.398438 161.03125 C 300.109375 168.59375 300.886719 179.210938 302.636719 189.175781 Z M 302.636719 189.175781 "/>
</g>
<mask id="mask21">
  <g filter="url(#alpha)">
<rect x="0" y="0" width="599" height="319" style="fill:rgb(0%,0%,0%);fill-opacity:0.101961;stroke:none;"/>
  </g>
</mask>
<clipPath id="clip22">
  <rect x="0" y="0" width="599" height="319"/>
</clipPath>
<g id="surface68" clip-path="url(#clip22)">
<path style=" stroke:none;fill-rule:nonzero;fill:rgb(0%,0%,0%);fill-opacity:1;" d="M 366.550781 278.84375 L 366.496094 279.667969 L 366.496094 279.722656 L 366.398438 281.046875 L 365.632812 291.707031 L 364.707031 304.546875 L 364.441406 308.164062 L 363.863281 315.902344 L 363.863281 316 L 302.296875 316.574219 L 201.261719 317.667969 L 201.261719 318.152344 L 201.179688 318.152344 L 201.179688 317.507812 L 201.4375 309.238281 L 201.933594 293.082031 L 202.359375 279.382812 L 202.398438 278.019531 C 202.449219 276.355469 203.183594 274.785156 204.425781 273.675781 C 205.667969 272.570312 207.3125 272.023438 208.972656 272.164062 C 211.6875 272.394531 215.214844 272.675781 219.433594 272.976562 L 221.15625 273.101562 C 245.515625 274.792969 290.53125 276.984375 335.953125 274.253906 C 336.90625 274.203125 337.867188 274.144531 338.828125 274.074219 C 345.871094 273.632812 352.910156 273.0625 359.878906 272.347656 C 361.660156 272.160156 363.433594 272.773438 364.722656 274.023438 C 366.011719 275.269531 366.679688 277.023438 366.550781 278.8125 Z M 366.550781 278.84375 "/>
</g>
<mask id="mask22">
  <g filter="url(#alpha)">
<rect x="0" y="0" width="599" height="319" style="fill:rgb(0%,0%,0%);fill-opacity:0.101961;stroke:none;"/>
  </g>
</mask>
<clipPath id="clip23">
  <rect x="0" y="0" width="599" height="319"/>
</clipPath>
<g id="surface71" clip-path="url(#clip23)">
<path style=" stroke:none;fill-rule:nonzero;fill:rgb(0%,0%,0%);fill-opacity:1;" d="M 366.726562 282.878906 L 366.015625 291.707031 L 364.964844 304.863281 L 364.699219 308.15625 L 364.125 315.535156 L 364.089844 315.902344 L 364.089844 316 L 364.003906 316.851562 L 364.066406 316 L 363.898438 316 L 302.332031 316.574219 L 201.261719 317.667969 L 201.261719 317.507812 L 201.542969 309.238281 L 202.117188 293.082031 L 202.484375 282.34375 C 202.523438 281.101562 203.1875 279.964844 204.246094 279.320312 C 204.898438 278.921875 205.660156 278.738281 206.421875 278.800781 C 207.628906 278.902344 209.113281 279.015625 210.847656 279.140625 C 213.660156 279.347656 217.128906 279.589844 221.167969 279.84375 C 228.648438 280.316406 238.035156 280.824219 248.789062 281.238281 C 278.710938 282.390625 319.105469 282.777344 357.472656 279.414062 C 359.199219 279.261719 360.980469 279.097656 362.726562 278.929688 C 363.414062 278.859375 364.109375 278.992188 364.726562 279.308594 C 364.902344 279.394531 365.070312 279.5 365.222656 279.621094 C 365.722656 279.984375 366.121094 280.472656 366.375 281.035156 C 366.433594 281.148438 366.480469 281.265625 366.519531 281.386719 C 366.691406 281.863281 366.761719 282.375 366.726562 282.878906 Z M 366.726562 282.878906 "/>
</g>
<mask id="mask23">
  <g filter="url(#alpha)">
<rect x="0" y="0" width="599" height="319" style="fill:rgb(0%,0%,0%);fill-opacity:0.101961;stroke:none;"/>
  </g>
</mask>
<clipPath id="clip24">
  <rect x="0" y="0" width="599" height="319"/>
</clipPath>
<g id="surface74" clip-path="url(#clip24)">
<path style=" stroke:none;fill-rule:nonzero;fill:rgb(0%,0%,0%);fill-opacity:1;" d="M 171.527344 290.761719 L 171.527344 292.597656 C 171.53125 293.960938 170.746094 295.203125 169.515625 295.789062 L 146.441406 296.230469 C 145.1875 295.65625 144.386719 294.40625 144.386719 293.023438 L 144.386719 291.296875 Z M 171.527344 290.761719 "/>
</g>
<mask id="mask24">
  <g filter="url(#alpha)">
<rect x="0" y="0" width="599" height="319" style="fill:rgb(0%,0%,0%);fill-opacity:0.101961;stroke:none;"/>
  </g>
</mask>
<clipPath id="clip25">
  <rect x="0" y="0" width="599" height="319"/>
</clipPath>
<g id="surface77" clip-path="url(#clip25)">
<path style=" stroke:none;fill-rule:nonzero;fill:rgb(0%,0%,0%);fill-opacity:1;" d="M 171.816406 296.871094 L 141.75 297.449219 L 141.75 292.453125 L 171.816406 291.878906 Z M 171.816406 296.871094 "/>
</g>
<mask id="mask25">
  <g filter="url(#alpha)">
<rect x="0" y="0" width="599" height="319" style="fill:rgb(0%,0%,0%);fill-opacity:0.101961;stroke:none;"/>
  </g>
</mask>
<clipPath id="clip26">
  <rect x="0" y="0" width="599" height="319"/>
</clipPath>
<g id="surface80" clip-path="url(#clip26)">
<path style=" stroke:none;fill-rule:nonzero;fill:rgb(0%,0%,0%);fill-opacity:1;" d="M 272.507812 108.628906 C 271.945312 107.894531 271.570312 107.039062 271.421875 106.128906 C 271.28125 107.015625 271.363281 107.925781 271.660156 108.777344 C 271.949219 108.75 272.230469 108.699219 272.507812 108.628906 Z M 272.507812 108.628906 "/>
<path style=" stroke:none;fill-rule:nonzero;fill:rgb(0%,0%,0%);fill-opacity:1;" d="M 265.199219 112.449219 C 265.089844 111.746094 265.019531 111.035156 264.988281 110.320312 C 264.988281 111.027344 264.988281 111.742188 264.988281 112.457031 Z M 265.199219 112.449219 "/>
<path style=" stroke:none;fill-rule:nonzero;fill:rgb(0%,0%,0%);fill-opacity:1;" d="M 312.09375 131.664062 C 312.128906 131.152344 312.195312 130.640625 312.304688 130.140625 C 312.574219 129.261719 312.730469 128.355469 312.761719 127.4375 C 312.75 127.234375 312.71875 127.027344 312.671875 126.828125 C 312.574219 127.359375 312.417969 127.886719 312.304688 128.410156 C 312.074219 129.480469 312.003906 130.578125 312.09375 131.664062 Z M 312.09375 131.664062 "/>
<path style=" stroke:none;fill-rule:nonzero;fill:rgb(0%,0%,0%);fill-opacity:1;" d="M 300.128906 113.871094 L 300.753906 114.328125 C 301.28125 113.945312 301.777344 113.515625 302.234375 113.050781 C 302.671875 112.4375 302.757812 111.640625 302.453125 110.953125 C 302.394531 111.085938 302.320312 111.207031 302.234375 111.320312 C 301.527344 112.230469 299.960938 112.734375 300.128906 113.871094 Z M 300.128906 113.871094 "/>
<path style=" stroke:none;fill-rule:nonzero;fill:rgb(0%,0%,0%);fill-opacity:1;" d="M 252.847656 119.410156 C 252.636719 119.832031 252.46875 120.273438 252.34375 120.726562 C 253.246094 120.222656 254.214844 119.855469 255.222656 119.636719 Z M 252.847656 119.410156 "/>
<path style=" stroke:none;fill-rule:nonzero;fill:rgb(0%,0%,0%);fill-opacity:1;" d="M 260.78125 113.148438 C 260.402344 112.9375 260.042969 112.703125 259.699219 112.4375 C 259.683594 112.667969 259.703125 112.894531 259.75 113.117188 C 260.09375 113.101562 260.4375 113.113281 260.78125 113.148438 Z M 260.78125 113.148438 "/>
<path style=" stroke:none;fill-rule:nonzero;fill:rgb(0%,0%,0%);fill-opacity:1;" d="M 317.039062 147.074219 C 316.800781 149.867188 315.503906 152.554688 314.449219 155.203125 C 312.335938 160.511719 311.144531 166.144531 310.253906 171.792969 C 309.453125 176.855469 308.527344 182.601562 304.210938 185.40625 C 302.980469 186.144531 301.660156 186.722656 300.28125 187.132812 C 294.078125 189.28125 287.824219 191.433594 281.292969 192.21875 C 274.761719 193 267.910156 192.316406 262.214844 189.054688 C 260.5625 188.195312 259.144531 186.941406 258.082031 185.410156 C 256.546875 182.976562 256.515625 179.925781 255.78125 177.136719 C 255.152344 175.066406 254.382812 173.042969 253.480469 171.078125 C 252.207031 167.980469 251.230469 164.746094 250.257812 161.5625 C 249.355469 158.601562 248.457031 155.640625 247.558594 152.675781 C 247.261719 151.785156 247.042969 150.871094 246.902344 149.941406 C 246.675781 151.414062 247.113281 152.957031 247.558594 154.402344 C 248.457031 157.371094 249.355469 160.332031 250.257812 163.289062 C 251.230469 166.496094 252.207031 169.710938 253.480469 172.808594 C 254.382812 174.769531 255.152344 176.796875 255.78125 178.863281 C 256.503906 181.652344 256.535156 184.703125 258.082031 187.140625 C 259.144531 188.671875 260.5625 189.921875 262.214844 190.785156 C 267.910156 194.042969 274.78125 194.726562 281.292969 193.945312 C 287.808594 193.160156 294.054688 191.007812 300.28125 188.859375 C 301.660156 188.449219 302.980469 187.871094 304.210938 187.132812 C 308.5 184.328125 309.453125 178.582031 310.253906 173.519531 C 311.144531 167.871094 312.335938 162.242188 314.449219 156.933594 C 315.703125 153.777344 317.324219 150.570312 317.050781 147.175781 C 317.050781 147.144531 317.039062 147.109375 317.039062 147.074219 Z M 317.039062 147.074219 "/>
<path style=" stroke:none;fill-rule:nonzero;fill:rgb(0%,0%,0%);fill-opacity:1;" d="M 248.167969 144.84375 C 248.167969 144.84375 248.167969 144.804688 248.167969 144.78125 C 248.273438 143.765625 248.183594 142.742188 247.902344 141.757812 C 247.789062 141.128906 247.714844 140.488281 247.679688 139.847656 C 247.613281 141.066406 247.6875 142.285156 247.902344 143.488281 C 247.996094 143.9375 248.097656 144.390625 248.167969 144.84375 Z M 248.167969 144.84375 "/>
<path style=" stroke:none;fill-rule:nonzero;fill:rgb(0%,0%,0%);fill-opacity:1;" d="M 249.921875 130.761719 C 250.367188 130.015625 250.867188 129.308594 251.425781 128.648438 C 250.371094 129.65625 248.425781 128.757812 248.019531 127.359375 C 247.867188 127.925781 247.867188 128.519531 248.019531 129.085938 C 248.304688 129.945312 249.035156 130.585938 249.921875 130.761719 Z M 249.921875 130.761719 "/>
</g>
<mask id="mask26">
  <g filter="url(#alpha)">
<rect x="0" y="0" width="599" height="319" style="fill:rgb(0%,0%,0%);fill-opacity:0.101961;stroke:none;"/>
  </g>
</mask>
<clipPath id="clip27">
  <rect x="0" y="0" width="599" height="319"/>
</clipPath>
<g id="surface83" clip-path="url(#clip27)">
<path style=" stroke:none;fill-rule:nonzero;fill:rgb(0%,0%,0%);fill-opacity:1;" d="M 393.636719 278.496094 C 393.636719 278.496094 395.460938 285.121094 393.636719 290.878906 C 391.8125 296.636719 393.636719 278.496094 393.636719 278.496094 Z M 393.636719 278.496094 "/>
</g>
<mask id="mask27">
  <g filter="url(#alpha)">
<rect x="0" y="0" width="599" height="319" style="fill:rgb(0%,0%,0%);fill-opacity:0.101961;stroke:none;"/>
  </g>
</mask>
<clipPath id="clip28">
  <rect x="0" y="0" width="599" height="319"/>
</clipPath>
<g id="surface86" clip-path="url(#clip28)">
<path style=" stroke:none;fill-rule:nonzero;fill:rgb(0%,0%,0%);fill-opacity:1;" d="M 401.40625 285.25 C 401.40625 285.25 402.171875 293.660156 400.445312 295.148438 C 398.71875 296.640625 401.40625 285.25 401.40625 285.25 Z M 401.40625 285.25 "/>
</g>
</defs>
<g id="surface1">
<use xlink:href="#surface5" mask="url(#mask0)"/>
<use xlink:href="#surface8" mask="url(#mask1)"/>
<path style=" stroke:none;fill-rule:nonzero;fill:rgb(24.705882%,23.921569%,33.72549%);fill-opacity:1;" d="M 121.757812 153.066406 L 132.6875 153.066406 L 132.6875 186.269531 L 121.757812 186.269531 Z M 121.757812 153.066406 "/>
<path style=" stroke:none;fill-rule:nonzero;fill:rgb(24.705882%,23.921569%,33.72549%);fill-opacity:1;" d="M 415.980469 151.339844 L 426.914062 151.339844 L 426.914062 186.464844 L 415.980469 186.464844 Z M 415.980469 151.339844 "/>
<path style=" stroke:none;fill-rule:nonzero;fill:rgb(39.607843%,38.039216%,49.019608%);fill-opacity:1;" d="M 496.636719 307.28125 L 496.636719 314.769531 L 409.21875 315.574219 L 408.285156 315.589844 L 375.0625 315.894531 L 374.269531 315.90625 L 364.171875 315.996094 L 363.871094 315.996094 L 302.3125 316.5625 L 201.265625 317.503906 L 201.179688 317.503906 L 175.488281 317.746094 L 175.210938 317.75 L 61.050781 318.796875 L 61.050781 310.160156 L 87.894531 294.039062 L 141.75 293.589844 L 142.902344 293.582031 L 143.28125 293.578125 L 144.433594 293.5625 L 170.292969 293.347656 L 171.449219 293.34375 L 171.816406 293.335938 L 172.96875 293.332031 L 181.257812 293.261719 L 181.476562 293.253906 L 201.933594 293.082031 L 202.101562 293.082031 L 361.71875 291.734375 L 365.625 291.707031 L 366.015625 291.707031 L 368.996094 291.675781 L 390.660156 291.5 L 391.8125 291.480469 L 392.878906 291.46875 L 393.429688 291.46875 L 400.167969 291.417969 L 401.503906 291.402344 L 403.292969 291.390625 L 408.902344 291.339844 L 417.804688 291.261719 L 418.953125 291.25 L 420.957031 291.238281 L 421.332031 291.238281 L 464.320312 290.871094 Z M 496.636719 307.28125 "/>
<use xlink:href="#surface11" mask="url(#mask2)"/>
<path style=" stroke:none;fill-rule:nonzero;fill:rgb(24.705882%,23.921569%,33.72549%);fill-opacity:1;" d="M 170.378906 278.496094 L 170.378906 292.597656 C 170.378906 293.960938 169.59375 295.203125 168.363281 295.789062 C 167.914062 296.007812 167.425781 296.125 166.925781 296.132812 L 146.84375 296.5625 C 146.308594 296.574219 145.777344 296.460938 145.289062 296.230469 C 144.039062 295.65625 143.234375 294.40625 143.238281 293.023438 L 143.238281 278.496094 Z M 170.378906 278.496094 "/>
<use xlink:href="#surface14" mask="url(#mask3)"/>
<path style=" stroke:none;fill-rule:nonzero;fill:rgb(24.705882%,23.921569%,33.72549%);fill-opacity:1;" d="M 171.527344 278.496094 L 171.527344 292.597656 C 171.53125 293.960938 170.746094 295.203125 169.515625 295.789062 C 169.066406 296.007812 168.574219 296.125 168.078125 296.132812 L 147.996094 296.5625 C 147.457031 296.574219 146.925781 296.460938 146.441406 296.230469 C 145.1875 295.65625 144.386719 294.40625 144.386719 293.023438 L 144.386719 278.496094 Z M 171.527344 278.496094 "/>
<path style=" stroke:none;fill-rule:nonzero;fill:rgb(24.705882%,23.921569%,33.72549%);fill-opacity:1;" d="M 391.8125 278.496094 L 418.953125 278.496094 L 418.953125 296.636719 L 391.8125 296.636719 Z M 391.8125 278.496094 "/>
<use xlink:href="#surface17" mask="url(#mask4)"/>
<path style=" stroke:none;fill-rule:nonzero;fill:rgb(24.705882%,23.921569%,33.72549%);fill-opacity:1;" d="M 390.660156 278.496094 L 417.804688 278.496094 L 417.804688 296.636719 L 390.660156 296.636719 Z M 390.660156 278.496094 "/>
<use xlink:href="#surface20" mask="url(#mask5)"/>
<path style=" stroke:none;fill-rule:nonzero;fill:rgb(39.607843%,38.039216%,49.019608%);fill-opacity:1;" d="M 204.648438 60.113281 L 191.511719 154.546875 C 191.339844 155.796875 190.257812 156.714844 189 156.683594 L 83.8125 153.953125 L 81.816406 153.902344 C 81.113281 153.886719 80.453125 153.570312 79.996094 153.035156 C 79.539062 152.5 79.332031 151.796875 79.421875 151.097656 L 94.171875 52.242188 C 94.367188 50.972656 95.503906 50.066406 96.785156 50.152344 L 202.347656 57.304688 C 203.035156 57.34375 203.675781 57.671875 204.113281 58.203125 C 204.550781 58.738281 204.746094 59.429688 204.648438 60.113281 Z M 204.648438 60.113281 "/>
<path style=" stroke:none;fill-rule:nonzero;fill:rgb(100%,100%,100%);fill-opacity:1;" d="M 101.230469 57.097656 L 90.109375 144.234375 L 186.777344 147.304688 L 198.664062 63.234375 Z M 101.230469 57.097656 "/>
<path style=" stroke:none;fill-rule:nonzero;fill:rgb(39.607843%,38.039216%,49.019608%);fill-opacity:1;" d="M 224.367188 55.75 L 336.003906 55.75 C 337.699219 55.75 339.070312 57.125 339.070312 58.820312 L 339.070312 152.488281 C 339.070312 154.179688 337.699219 155.554688 336.003906 155.554688 L 224.367188 155.554688 C 222.675781 155.554688 221.300781 154.179688 221.300781 152.488281 L 221.300781 58.820312 C 221.300781 57.125 222.675781 55.75 224.367188 55.75 Z M 224.367188 55.75 "/>
<path style=" stroke:none;fill-rule:nonzero;fill:rgb(100%,100%,100%);fill-opacity:1;" d="M 226.859375 62.46875 L 333.886719 62.46875 L 333.886719 145.578125 L 226.859375 145.578125 Z M 226.859375 62.46875 "/>
<use xlink:href="#surface23" mask="url(#mask6)"/>
<path style=" stroke:none;fill-rule:nonzero;fill:rgb(39.607843%,38.039216%,49.019608%);fill-opacity:1;" d="M 476.242188 149.492188 C 476.273438 149.972656 476.109375 150.449219 475.78125 150.804688 C 475.457031 151.160156 475 151.371094 474.515625 151.382812 L 366.800781 153.609375 C 365.871094 153.628906 365.085938 152.929688 365 152.003906 L 355.742188 55.679688 C 355.695312 55.199219 355.847656 54.71875 356.164062 54.351562 C 356.484375 53.984375 356.9375 53.761719 357.421875 53.742188 L 464.320312 48.421875 L 465.472656 48.363281 C 466.421875 48.3125 467.242188 49.027344 467.324219 49.976562 Z M 476.242188 149.492188 "/>
<path style=" stroke:none;fill-rule:nonzero;fill:rgb(100%,100%,100%);fill-opacity:1;" d="M 361.890625 59.402344 L 459.519531 54.597656 L 467.765625 142.121094 L 370.90625 144.425781 Z M 361.890625 59.402344 "/>
<use xlink:href="#surface26" mask="url(#mask7)"/>
<use xlink:href="#surface29" mask="url(#mask8)"/>
<use xlink:href="#surface32" mask="url(#mask9)"/>
<use xlink:href="#surface35" mask="url(#mask10)"/>
<path style=" stroke:none;fill-rule:nonzero;fill:rgb(39.607843%,38.039216%,49.019608%);fill-opacity:1;" d="M 219.433594 179.859375 L 219.433594 276.710938 C 219.417969 277.941406 218.441406 278.941406 217.214844 278.988281 L 106.941406 281.921875 L 106.910156 281.921875 C 105.660156 281.90625 104.652344 280.898438 104.636719 279.648438 L 104.636719 179.859375 C 104.652344 178.609375 105.660156 177.601562 106.910156 177.585938 L 217.160156 177.585938 C 218.40625 177.601562 219.417969 178.609375 219.433594 179.859375 Z M 219.433594 179.859375 "/>
<use xlink:href="#surface38" mask="url(#mask11)"/>
<path style=" stroke:none;fill-rule:nonzero;fill:rgb(83.137255%,87.45098%,92.54902%);fill-opacity:1;" d="M 111.972656 183.769531 L 214.109375 183.769531 L 214.109375 269.132812 L 111.972656 271.4375 Z M 111.972656 183.769531 "/>
<use xlink:href="#surface41" mask="url(#mask12)"/>
<use xlink:href="#surface44" mask="url(#mask13)"/>
<path style=" stroke:none;fill-rule:nonzero;fill:rgb(39.607843%,38.039216%,49.019608%);fill-opacity:1;" d="M 453.625 179.859375 L 453.625 279.648438 C 453.605469 280.910156 452.582031 281.921875 451.320312 281.921875 L 341.019531 278.988281 C 339.796875 278.941406 338.820312 277.941406 338.804688 276.710938 L 338.804688 179.859375 C 338.820312 178.609375 339.832031 177.601562 341.078125 177.585938 L 451.328125 177.585938 C 452.585938 177.589844 453.605469 178.601562 453.625 179.859375 Z M 453.625 179.859375 "/>
<use xlink:href="#surface47" mask="url(#mask14)"/>
<path style=" stroke:none;fill-rule:nonzero;fill:rgb(83.137255%,87.45098%,92.54902%);fill-opacity:1;" d="M 446.285156 183.769531 L 344.152344 183.769531 L 344.152344 269.132812 L 446.285156 271.4375 Z M 446.285156 183.769531 "/>
<path style=" stroke:none;fill-rule:nonzero;fill:rgb(39.607843%,38.039216%,49.019608%);fill-opacity:1;" d="M 335.953125 179.859375 L 335.953125 276.710938 C 335.9375 277.941406 334.964844 278.941406 333.738281 278.988281 L 223.460938 281.921875 C 222.199219 281.921875 221.175781 280.910156 221.15625 279.648438 L 221.15625 179.859375 C 221.171875 178.609375 222.183594 177.601562 223.429688 177.585938 L 333.679688 177.585938 C 334.929688 177.601562 335.9375 178.609375 335.953125 179.859375 Z M 335.953125 179.859375 "/>
<path style=" stroke:none;fill-rule:nonzero;fill:rgb(83.137255%,87.45098%,92.54902%);fill-opacity:1;" d="M 228.496094 183.769531 L 330.628906 183.769531 L 330.628906 269.132812 L 228.496094 271.4375 Z M 228.496094 183.769531 "/>
<use xlink:href="#surface50" mask="url(#mask15)"/>
<path style=" stroke:none;fill-rule:nonzero;fill:rgb(98.431373%,74.509804%,74.509804%);fill-opacity:1;" d="M 309.910156 156.714844 C 309.910156 173.035156 296.6875 186.269531 280.375 186.269531 C 264.0625 186.269531 250.835938 173.035156 250.835938 156.714844 C 250.835938 140.390625 264.0625 127.15625 280.375 127.15625 C 296.6875 127.15625 309.910156 140.390625 309.910156 156.714844 Z M 309.910156 156.714844 "/>
<path style=" stroke:none;fill-rule:nonzero;fill:url(#linear0);" d="M 175.152344 317.953125 C 175.152344 317.890625 175.1875 317.820312 175.210938 317.75 C 175.789062 315.683594 176.8125 312.1875 177.578125 309.394531 C 177.675781 309.050781 177.765625 308.710938 177.851562 308.386719 C 178.699219 305.238281 180.34375 297.863281 181.257812 293.261719 C 181.582031 291.644531 181.835938 290.382812 181.886719 289.75 C 182 288.777344 183.734375 284.613281 185.695312 279.828125 C 187.070312 276.464844 188.574219 272.792969 189.671875 269.691406 C 190.390625 267.851562 190.957031 265.957031 191.359375 264.019531 C 191.445312 263.617188 191.445312 263.199219 191.359375 262.796875 C 191.183594 262.136719 191.09375 261.460938 191.082031 260.78125 C 190.949219 257.210938 192.015625 251.566406 193.660156 249.199219 C 195.671875 246.320312 197.113281 235.578125 197.113281 235.578125 C 197.113281 235.578125 200.09375 236.007812 200.5625 233.542969 C 200.613281 233.277344 200.632812 233.007812 200.621094 232.738281 C 200.621094 232.523438 200.601562 232.308594 200.570312 232.097656 C 200.058594 228.503906 209.039062 224.683594 214.09375 223.859375 C 214.664062 223.761719 215.238281 223.707031 215.820312 223.699219 C 217.046875 223.5625 218.253906 223.285156 219.414062 222.867188 C 219.953125 222.703125 220.527344 222.511719 221.140625 222.292969 C 223.257812 221.578125 225.789062 220.632812 228.476562 219.597656 C 238.582031 215.675781 250.816406 210.382812 250.816406 210.382812 C 250.902344 209.976562 251 209.585938 251.109375 209.199219 C 252.332031 204.273438 255.828125 200.226562 260.515625 198.296875 C 260.515625 197.917969 260.515625 197.53125 260.515625 197.148438 C 260.515625 195.160156 260.429688 193.117188 260.34375 191.078125 C 260.34375 190.679688 260.308594 190.28125 260.285156 189.886719 C 260.285156 189.769531 260.285156 189.648438 260.285156 189.535156 C 260.285156 189.417969 260.285156 189.332031 260.285156 189.234375 C 260.285156 188.832031 260.246094 188.429688 260.222656 188.03125 L 260.117188 187.949219 C 259.234375 187.28125 258.476562 186.464844 257.875 185.53125 C 257.539062 184.988281 257.265625 184.410156 257.058594 183.804688 C 256.339844 181.851562 256.171875 179.675781 255.6875 177.613281 L 255.585938 177.1875 C 254.957031 175.109375 254.1875 173.074219 253.285156 171.097656 C 252.011719 167.976562 251.035156 164.761719 250.0625 161.507812 C 249.46875 159.539062 248.875 157.566406 248.269531 155.589844 L 247.363281 152.574219 C 247.191406 151.996094 247.015625 151.421875 246.882812 150.84375 C 246.820312 150.578125 246.769531 150.3125 246.734375 150.039062 C 246.574219 149.15625 246.621094 148.246094 246.875 147.386719 C 247.097656 146.796875 247.351562 146.21875 247.632812 145.65625 C 247.753906 145.402344 247.847656 145.136719 247.921875 144.863281 C 247.9375 144.800781 247.953125 144.742188 247.964844 144.679688 C 248.007812 144.472656 248.027344 144.265625 248.03125 144.058594 C 248.011719 143.300781 247.910156 142.550781 247.730469 141.816406 C 247.726562 141.808594 247.726562 141.796875 247.730469 141.789062 C 247.722656 141.734375 247.714844 141.683594 247.703125 141.632812 C 247.597656 141.0625 247.53125 140.484375 247.496094 139.90625 C 247.292969 136.789062 247.984375 133.675781 249.492188 130.941406 L 249.601562 130.730469 C 249.917969 130.175781 250.273438 129.640625 250.660156 129.132812 C 250.835938 128.890625 251.023438 128.660156 251.234375 128.429688 C 250.429688 129.199219 249.105469 128.859375 248.359375 128.03125 C 248.234375 127.902344 248.128906 127.757812 248.042969 127.601562 C 247.992188 127.515625 247.945312 127.429688 247.910156 127.339844 C 247.878906 127.273438 247.855469 127.195312 247.835938 127.121094 C 247.429688 125.710938 248.132812 124.207031 249.054688 123.0625 C 249.960938 121.945312 251.085938 121.027344 252.355469 120.355469 C 252.429688 120.3125 252.507812 120.269531 252.585938 120.234375 C 253.074219 119.988281 253.582031 119.785156 254.105469 119.625 C 254.414062 119.523438 254.726562 119.4375 255.042969 119.371094 L 252.910156 119.175781 L 252.046875 119.09375 C 252.925781 115.605469 255.941406 113.074219 259.527344 112.8125 L 260.148438 112.8125 C 260.449219 112.816406 260.753906 112.84375 261.050781 112.886719 C 260.070312 112.457031 259.464844 111.464844 259.527344 110.394531 C 261.03125 111.574219 262.902344 112.199219 264.8125 112.15625 L 265.03125 112.15625 C 264.933594 111.53125 264.867188 110.90625 264.835938 110.273438 C 264.78125 109.417969 264.78125 108.5625 264.835938 107.707031 C 265.882812 108.695312 267.308594 109.171875 268.738281 109.007812 L 267.542969 107.335938 C 268.609375 108.1875 269.957031 108.609375 271.316406 108.519531 L 271.59375 108.488281 C 271.824219 108.464844 272.054688 108.421875 272.277344 108.355469 L 272.328125 108.355469 C 272.21875 108.21875 272.121094 108.074219 272.023438 107.925781 L 271.988281 107.855469 C 271.75 107.480469 271.558594 107.074219 271.414062 106.652344 C 271.355469 106.488281 271.3125 106.320312 271.277344 106.152344 C 271.023438 105.105469 271.117188 104.003906 271.535156 103.011719 C 273.394531 104.566406 275.429688 106.691406 277.863281 105.085938 C 280.296875 103.480469 280.378906 100.53125 284.195312 100.832031 C 286.328125 101.03125 288.183594 102.382812 289.035156 104.355469 C 290.136719 103.105469 291.910156 102.703125 293.445312 103.347656 C 294.957031 104.0625 295.851562 105.652344 295.679688 107.3125 C 297.261719 106.917969 298.964844 106.523438 300.484375 107.125 C 302.003906 107.722656 302.980469 109.664062 302.117188 110.960938 C 302.09375 111 302.066406 111.039062 302.039062 111.074219 C 301.328125 111.988281 299.765625 112.492188 299.929688 113.640625 L 300.171875 113.816406 L 300.921875 114.355469 C 303.855469 116.476562 306.714844 118.703125 309.496094 121.035156 C 310.921875 122.234375 312.441406 123.671875 312.539062 125.542969 C 312.554688 126.003906 312.507812 126.460938 312.402344 126.910156 C 312.308594 127.359375 312.183594 127.808594 312.085938 128.257812 C 311.839844 129.398438 311.773438 130.574219 311.886719 131.738281 C 311.929688 132.078125 311.980469 132.414062 312.042969 132.753906 C 312.925781 137.203125 316.480469 140.878906 316.832031 145.421875 L 316.832031 145.742188 C 316.851562 146.230469 316.839844 146.714844 316.792969 147.199219 C 316.527344 149.964844 315.25 152.617188 314.214844 155.261719 C 314.148438 155.421875 314.085938 155.585938 314.027344 155.746094 C 312.03125 160.929688 310.882812 166.449219 310 171.960938 C 309.71875 173.914062 309.332031 175.855469 308.851562 177.769531 C 308.324219 179.964844 307.324219 182.011719 305.921875 183.777344 C 305.359375 184.4375 304.710938 185.019531 303.988281 185.503906 C 303.503906 185.816406 302.992188 186.085938 302.464844 186.316406 C 302.464844 186.316406 302.464844 186.316406 302.464844 186.351562 C 302.527344 186.703125 302.578125 187.050781 302.640625 187.402344 C 302.675781 187.589844 302.703125 187.773438 302.738281 187.980469 C 302.738281 187.992188 302.738281 188.003906 302.738281 188.015625 C 303.222656 190.738281 303.773438 193.402344 304.355469 195.9375 L 304.648438 197.199219 C 311.898438 199.820312 312.757812 205.183594 312.808594 207.242188 C 312.828125 207.515625 312.828125 207.789062 312.808594 208.0625 C 312.808594 208.0625 323.742188 208.351562 328.058594 211.519531 C 328.863281 212.066406 329.734375 212.511719 330.652344 212.84375 C 332.394531 213.5 334.171875 214.058594 335.976562 214.507812 C 336.902344 214.75 337.867188 214.984375 338.851562 215.214844 C 340.578125 215.613281 342.40625 216 344.175781 216.367188 C 348.886719 217.316406 353.324219 218.09375 355.574219 218.671875 C 360.941406 220.03125 373.222656 231.808594 373.222656 231.808594 C 373.222656 231.808594 374.660156 243.695312 376.097656 245.429688 C 377.535156 247.160156 380.125 253.253906 380.125 253.253906 L 389.644531 270.1875 L 393.671875 277.3125 L 396.261719 277.3125 C 396.617188 277.3125 397.320312 277.816406 398.109375 278.519531 C 398.792969 279.128906 399.550781 279.890625 400.21875 280.582031 L 401.324219 281.761719 L 402.015625 282.527344 C 402.015625 282.527344 406.199219 282.632812 407.332031 285.941406 C 410.738281 285.84375 414.921875 286.070312 417.851562 287.382812 C 418.25 287.558594 418.632812 287.765625 419 288.003906 C 420.214844 288.707031 421.078125 289.890625 421.378906 291.261719 C 421.4375 291.535156 421.46875 291.8125 421.480469 292.09375 C 421.480469 292.421875 421.480469 292.75 421.480469 293.070312 C 421.273438 297.429688 418.4375 301.058594 415.832031 303.5 L 416.015625 303.828125 C 416.015625 303.828125 415.929688 304.035156 415.761719 304.402344 C 415.714844 304.511719 415.65625 304.632812 415.59375 304.773438 C 415.253906 305.496094 414.714844 306.585938 414.007812 307.859375 C 412.503906 310.613281 410.652344 313.160156 408.5 315.441406 L 408.332031 315.613281 L 375.109375 315.917969 L 375.011719 315.804688 L 368.566406 308.113281 L 365.359375 304.289062 L 365.261719 304.167969 L 365.171875 305.082031 L 364.859375 308.132812 L 364.113281 315.511719 L 364.074219 315.878906 L 364.074219 315.976562 L 363.984375 316.828125 L 364.050781 315.976562 L 363.882812 315.976562 L 302.3125 316.554688 L 201.261719 317.667969 L 201.261719 318.152344 L 201.179688 318.152344 L 201.179688 317.667969 L 175.429688 317.945312 Z M 175.152344 317.953125 "/>
<path style=" stroke:none;fill-rule:nonzero;fill:rgb(98.431373%,74.509804%,74.509804%);fill-opacity:1;" d="M 309.914062 217.171875 C 309.914062 217.171875 252.660156 224.082031 258.128906 217.171875 C 260.109375 214.675781 260.652344 207.269531 260.542969 198.832031 C 260.511719 196.269531 260.417969 193.617188 260.285156 190.972656 C 259.652344 178.304688 258.128906 165.925781 258.128906 165.925781 C 258.128906 165.925781 308.1875 142.316406 302.433594 161.03125 C 300.132812 168.59375 300.886719 179.210938 302.636719 189.175781 C 303.148438 192.085938 303.742188 194.933594 304.363281 197.640625 C 305.878906 204.242188 307.730469 210.761719 309.914062 217.171875 Z M 309.914062 217.171875 "/>
<use xlink:href="#surface53" mask="url(#mask16)"/>
<path style=" stroke:none;fill-rule:nonzero;fill:rgb(100%,100%,100%);fill-opacity:1;" d="M 201.242188 318.152344 L 201.242188 317.667969 L 302.296875 316.570312 L 363.863281 315.996094 L 364.039062 315.996094 L 363.972656 316.847656 L 364.0625 315.996094 L 364.171875 315.996094 L 364.171875 315.894531 L 364.957031 308.152344 L 365.257812 305.222656 L 365.351562 304.304688 L 365.429688 303.539062 L 368.984375 291.671875 L 372.542969 279.820312 L 375.535156 269.84375 L 380.101562 254.59375 C 380.101562 254.59375 377.515625 248.550781 376.074219 246.820312 C 374.636719 245.09375 373.199219 233.289062 373.199219 233.289062 C 373.199219 233.289062 360.917969 221.585938 355.550781 220.238281 C 353.300781 219.660156 348.859375 218.894531 344.140625 217.933594 C 342.375 217.578125 340.5625 217.195312 338.816406 216.78125 C 337.832031 216.558594 336.867188 216.320312 335.941406 216.085938 C 334.136719 215.632812 332.359375 215.085938 330.617188 214.4375 C 329.703125 214.105469 328.835938 213.664062 328.027344 213.121094 C 323.800781 210.015625 313.199219 209.664062 312.792969 209.664062 C 312.789062 209.652344 312.789062 209.636719 312.792969 209.625 L 312.792969 209.574219 C 312.808594 209.332031 312.808594 209.089844 312.792969 208.847656 C 312.792969 208.617188 312.792969 208.347656 312.738281 208.039062 C 312.738281 207.949219 312.738281 207.851562 312.699219 207.753906 C 312.671875 207.546875 312.636719 207.328125 312.585938 207.097656 C 312.566406 206.992188 312.542969 206.890625 312.515625 206.792969 C 312.347656 206.097656 312.109375 205.425781 311.796875 204.78125 C 311.757812 204.691406 311.703125 204.59375 311.660156 204.5 C 311.375 203.96875 311.050781 203.460938 310.679688 202.984375 C 310.605469 202.886719 310.523438 202.785156 310.4375 202.6875 C 309.96875 202.128906 309.441406 201.621094 308.875 201.164062 C 308.71875 201.042969 308.558594 200.917969 308.390625 200.804688 C 308.296875 200.726562 308.199219 200.65625 308.097656 200.597656 L 307.585938 200.261719 L 307.105469 199.984375 C 306.6875 199.753906 306.242188 199.53125 305.761719 199.316406 C 305.609375 199.25 305.449219 199.183594 305.289062 199.121094 C 305.128906 199.058594 304.875 198.960938 304.660156 198.878906 L 304.625 198.878906 L 304.195312 198.707031 C 303.867188 198.597656 303.535156 198.5 303.183594 198.402344 L 302.648438 198.265625 L 302.070312 198.132812 L 301.496094 198.011719 C 300.921875 197.894531 300.304688 197.792969 299.660156 197.710938 L 299.003906 197.628906 L 298.332031 197.5625 L 297.636719 197.503906 L 296.644531 197.445312 L 295.496094 197.40625 C 290.417969 197.40625 285.359375 197.945312 280.394531 199.011719 C 276.949219 198.246094 273.417969 197.917969 269.890625 198.042969 L 269.390625 198.042969 L 268.8125 198.078125 L 268.445312 198.078125 L 267.703125 198.148438 C 267.457031 198.148438 267.203125 198.199219 266.953125 198.234375 C 266.707031 198.269531 266.449219 198.296875 266.199219 198.339844 L 265.820312 198.402344 C 265.449219 198.464844 265.066406 198.535156 264.671875 198.613281 C 264.542969 198.636719 264.417969 198.667969 264.289062 198.703125 C 263.789062 198.8125 263.289062 198.941406 262.792969 199.09375 C 262.546875 199.160156 262.300781 199.242188 262.050781 199.328125 C 261.925781 199.363281 261.804688 199.410156 261.683594 199.457031 L 261.316406 199.589844 L 260.953125 199.730469 L 260.523438 199.90625 C 260.304688 199.996094 260.089844 200.09375 259.878906 200.199219 C 259.757812 200.25 259.636719 200.308594 259.519531 200.371094 C 259.40625 200.433594 259.285156 200.484375 259.175781 200.550781 C 257.875 201.222656 256.671875 202.070312 255.601562 203.070312 L 255.308594 203.355469 L 255.019531 203.648438 C 254.921875 203.746094 254.832031 203.847656 254.738281 203.953125 C 254.363281 204.363281 254.015625 204.796875 253.691406 205.25 C 253.601562 205.371094 253.511719 205.488281 253.425781 205.617188 C 253.0625 206.15625 252.730469 206.71875 252.4375 207.296875 C 252.363281 207.4375 252.292969 207.582031 252.222656 207.71875 C 251.753906 208.691406 251.371094 209.703125 251.074219 210.742188 C 250.964844 211.125 250.867188 211.507812 250.78125 211.894531 C 250.648438 212.46875 238.597656 217.269531 228.496094 221.164062 C 225.808594 222.199219 223.277344 223.140625 221.15625 223.847656 C 220.542969 224.054688 219.96875 224.246094 219.433594 224.421875 C 218.269531 224.84375 217.0625 225.121094 215.835938 225.253906 C 215.257812 225.261719 214.679688 225.316406 214.109375 225.414062 C 209.464844 226.167969 201.507812 229.445312 200.640625 232.730469 C 200.570312 232.996094 200.550781 233.269531 200.582031 233.539062 C 200.582031 233.539062 200.582031 233.578125 200.582031 233.601562 C 201.15625 237.632812 197.128906 237.054688 197.128906 237.054688 C 197.128906 237.054688 195.691406 247.707031 193.675781 250.585938 C 192.222656 252.660156 191.226562 257.285156 191.097656 260.773438 C 191.027344 261.859375 191.113281 262.953125 191.351562 264.015625 C 191.351562 264.042969 191.351562 264.074219 191.351562 264.097656 C 191.582031 264.867188 191.03125 266.976562 190.09375 269.675781 C 189.074219 272.640625 187.589844 276.328125 186.160156 279.804688 C 184.011719 285.054688 181.984375 289.824219 181.859375 290.871094 C 181.804688 291.339844 181.65625 292.171875 181.449219 293.25 C 180.609375 297.636719 178.746094 305.992188 177.824219 309.371094 C 177.140625 311.894531 176.144531 315.347656 175.460938 317.722656 C 175.460938 317.789062 175.417969 317.859375 175.402344 317.921875 L 201.195312 317.667969 L 201.195312 318.152344 L 201.277344 318.152344 Z M 201.242188 318.152344 "/>
<use xlink:href="#surface56" mask="url(#mask17)"/>
<use xlink:href="#surface59" mask="url(#mask18)"/>
<use xlink:href="#surface62" mask="url(#mask19)"/>
<path style=" stroke:none;fill-rule:nonzero;fill:rgb(100%,100%,100%);fill-opacity:1;" d="M 312.828125 208.871094 C 296.140625 211.945312 264.722656 211.28125 251.144531 210.816406 C 256.121094 192.964844 280.390625 199.035156 280.390625 199.035156 C 310.433594 193.035156 312.734375 205.484375 312.828125 208.871094 Z M 312.828125 208.871094 "/>
<path style=" stroke:none;fill-rule:nonzero;fill:rgb(98.431373%,74.509804%,74.509804%);fill-opacity:1;" d="M 401.40625 287.566406 C 401.40625 287.566406 421.0625 284.542969 421.445312 293.179688 C 421.832031 301.816406 411.421875 307.851562 411.421875 307.851562 Z M 401.40625 287.566406 "/>
<use xlink:href="#surface65" mask="url(#mask20)"/>
<path style=" stroke:none;fill-rule:nonzero;fill:rgb(24.705882%,23.921569%,33.72549%);fill-opacity:1;" d="M 272.273438 110.515625 C 270.605469 110.957031 268.832031 110.582031 267.484375 109.507812 L 268.679688 111.171875 C 267.253906 111.335938 265.824219 110.863281 264.78125 109.875 C 264.671875 111.367188 264.734375 112.863281 264.964844 114.339844 C 262.984375 114.433594 261.035156 113.824219 259.464844 112.613281 C 259.398438 113.675781 260.007812 114.664062 260.980469 115.09375 C 256.867188 114.601562 253.027344 117.242188 252.003906 121.261719 L 255.007812 121.535156 C 252.648438 122.042969 250.53125 123.335938 249.003906 125.203125 C 248.082031 126.355469 247.378906 127.832031 247.78125 129.234375 C 248.183594 130.640625 250.128906 131.539062 251.1875 130.535156 C 248.140625 134.179688 246.855469 138.980469 247.679688 143.660156 C 247.953125 144.644531 248.042969 145.671875 247.945312 146.6875 C 247.753906 147.636719 247.15625 148.460938 246.855469 149.390625 C 246.28125 151.070312 246.828125 152.894531 247.339844 154.570312 L 250.039062 163.449219 C 251.015625 166.65625 251.988281 169.871094 253.265625 172.972656 C 254.171875 174.9375 254.941406 176.957031 255.566406 179.027344 C 256.292969 181.8125 256.320312 184.863281 257.871094 187.300781 C 258.929688 188.832031 260.347656 190.085938 262 190.945312 C 267.691406 194.203125 274.566406 194.894531 281.082031 194.113281 C 287.59375 193.328125 293.84375 191.167969 300.039062 189.027344 C 301.417969 188.613281 302.738281 188.03125 303.976562 187.300781 C 308.261719 184.492188 309.21875 178.742188 310.019531 173.683594 C 310.910156 168.039062 312.101562 162.40625 314.214844 157.097656 C 315.46875 153.9375 317.089844 150.730469 316.8125 147.34375 C 316.464844 142.847656 312.90625 139.203125 312.027344 134.78125 C 311.730469 133.300781 311.746094 131.777344 312.066406 130.304688 C 312.339844 129.429688 312.492188 128.519531 312.523438 127.601562 C 312.421875 125.746094 310.90625 124.316406 309.476562 123.125 C 306.382812 120.539062 303.1875 118.09375 299.890625 115.789062 C 299.722656 114.636719 301.289062 114.144531 301.996094 113.234375 C 303 111.949219 301.960938 109.910156 300.445312 109.3125 C 298.925781 108.714844 297.222656 109.105469 295.640625 109.503906 C 295.851562 107.835938 294.945312 106.230469 293.410156 105.554688 C 291.878906 104.875 290.082031 105.285156 288.992188 106.558594 C 288.136719 104.597656 286.28125 103.253906 284.148438 103.058594 C 280.332031 102.757812 280.257812 105.679688 277.820312 107.285156 C 275.378906 108.890625 273.363281 106.773438 271.488281 105.230469 C 270.789062 107.003906 271.085938 109.019531 272.273438 110.515625 Z M 272.273438 110.515625 "/>
<path style=" stroke:none;fill-rule:nonzero;fill:rgb(100%,100%,100%);fill-opacity:1;" d="M 415.980469 304.839844 C 415.980469 304.839844 415.46875 306.0625 414.523438 307.828125 C 413.097656 310.550781 411.359375 313.09375 409.34375 315.414062 L 409.191406 315.578125 L 408.257812 315.578125 L 375.035156 315.886719 L 374.238281 315.886719 L 374.140625 315.769531 L 367.699219 308.117188 L 365.269531 305.230469 L 365.171875 305.113281 L 364.964844 304.871094 L 364.847656 304.730469 L 364.699219 304.554688 L 359.976562 298.945312 L 361.703125 291.746094 L 364.640625 279.621094 L 364.714844 279.328125 L 365.292969 277.023438 L 365.699219 275.296875 L 367.070312 269.664062 L 371.765625 250.289062 L 380.109375 254.605469 L 388.90625 270.152344 L 393.632812 278.503906 L 396.21875 278.503906 C 396.710938 278.503906 397.832031 279.449219 398.960938 280.535156 C 399.363281 280.921875 399.765625 281.332031 400.109375 281.6875 C 401.132812 282.746094 401.945312 283.65625 401.945312 283.65625 C 401.945312 283.65625 406.140625 283.75 407.269531 287.054688 C 407.328125 287.214844 407.375 287.378906 407.410156 287.542969 C 407.785156 288.84375 408.273438 290.105469 408.867188 291.320312 C 409.609375 292.9375 410.542969 294.777344 411.484375 296.613281 C 413.242188 299.980469 415.023438 303.1875 415.679688 304.351562 L 415.761719 304.496094 Z M 415.980469 304.839844 "/>
<use xlink:href="#surface68" mask="url(#mask21)"/>
<path style=" stroke:none;fill-rule:nonzero;fill:rgb(24.705882%,23.921569%,33.72549%);fill-opacity:1;" d="M 201.242188 318.152344 L 201.242188 317.667969 L 302.296875 316.570312 L 363.863281 315.996094 L 364.039062 315.996094 L 364.039062 315.894531 L 364.613281 308.15625 L 364.859375 304.703125 L 365.804688 291.683594 L 366.546875 281.375 L 366.546875 281.125 C 366.582031 280.648438 366.558594 280.171875 366.484375 279.699219 C 366.488281 279.683594 366.488281 279.664062 366.484375 279.644531 C 366.324219 278.671875 365.929688 277.753906 365.332031 276.972656 C 364.042969 275.320312 361.996094 274.449219 359.914062 274.667969 C 352.945312 275.382812 345.90625 275.953125 338.863281 276.394531 C 337.902344 276.464844 336.941406 276.523438 335.988281 276.574219 C 290.5625 279.273438 245.550781 277.085938 221.191406 275.421875 L 219.464844 275.296875 C 215.25 274.996094 211.722656 274.71875 209.003906 274.484375 C 205.910156 274.222656 203.121094 276.34375 202.539062 279.394531 C 202.480469 279.707031 202.445312 280.023438 202.433594 280.339844 L 202.042969 293.101562 L 201.507812 309.261719 L 201.253906 317.53125 L 201.253906 318.175781 Z M 201.242188 318.152344 "/>
<use xlink:href="#surface71" mask="url(#mask22)"/>
<use xlink:href="#surface74" mask="url(#mask23)"/>
<path style=" stroke:none;fill-rule:nonzero;fill:rgb(24.705882%,23.921569%,33.72549%);fill-opacity:1;" d="M 171.816406 296.871094 L 141.75 297.449219 L 141.75 292.453125 L 171.816406 291.878906 Z M 171.816406 296.871094 "/>
<use xlink:href="#surface77" mask="url(#mask24)"/>
<path style=" stroke:none;fill-rule:nonzero;fill:rgb(24.705882%,23.921569%,33.72549%);fill-opacity:1;" d="M 172.96875 296.871094 L 142.902344 297.449219 L 142.902344 292.453125 L 172.96875 291.878906 Z M 172.96875 296.871094 "/>
<use xlink:href="#surface80" mask="url(#mask25)"/>
<use xlink:href="#surface83" mask="url(#mask26)"/>
<use xlink:href="#surface86" mask="url(#mask27)"/>
<path style="fill:none;stroke-width:2;stroke-linecap:butt;stroke-linejoin:miter;stroke:rgb(100%,100%,100%);stroke-opacity:1;stroke-miterlimit:10;" d="M 198.989149 342.858053 L 300.601784 341.86082 " transform="matrix(0.575408,0,0,0.575812,0,0)"/>
<path style="fill:none;stroke-width:2;stroke-linecap:butt;stroke-linejoin:miter;stroke:rgb(100%,100%,100%);stroke-opacity:1;stroke-miterlimit:10;" d="M 198.989149 355.326851 L 300.601784 354.343187 " transform="matrix(0.575408,0,0,0.575812,0,0)"/>
<path style="fill:none;stroke-width:2;stroke-linecap:butt;stroke-linejoin:miter;stroke:rgb(100%,100%,100%);stroke-opacity:1;stroke-miterlimit:10;" d="M 198.989149 367.809218 L 300.601784 366.811986 " transform="matrix(0.575408,0,0,0.575812,0,0)"/>
</g>
</svg>
