<?xml version="1.0" encoding="UTF-8"?>
<svg xmlns="http://www.w3.org/2000/svg" xmlns:xlink="http://www.w3.org/1999/xlink" width="599pt" height="408pt" viewBox="0 0 599 408" version="1.1">
<defs>
<filter id="alpha" filterUnits="objectBoundingBox" x="0%" y="0%" width="100%" height="100%">
  <feColorMatrix type="matrix" in="SourceGraphic" values="0 0 0 0 1 0 0 0 0 1 0 0 0 0 1 0 0 0 1 0"/>
</filter>
<mask id="mask0">
  <g filter="url(#alpha)">
<rect x="0" y="0" width="599" height="408" style="fill:rgb(0%,0%,0%);fill-opacity:0.101961;stroke:none;"/>
  </g>
</mask>
<clipPath id="clip1">
  <rect x="0" y="0" width="599" height="408"/>
</clipPath>
<g id="surface5" clip-path="url(#clip1)">
<path style=" stroke:none;fill-rule:nonzero;fill:rgb(0%,0%,0%);fill-opacity:1;" d="M 272.769531 252.820312 C 272.769531 252.820312 265.871094 233.832031 266.445312 230.378906 C 267.019531 226.925781 265.296875 220.019531 265.296875 220.019531 L 262.996094 173.410156 C 262.996094 173.410156 272.769531 131.976562 250.925781 125.070312 C 250.925781 125.070312 245.398438 127.484375 240.867188 135.253906 C 236.390625 137.25 230.957031 142.304688 229.65625 154.992188 C 227.355469 177.4375 237.703125 234.980469 242.875 244.765625 C 248.050781 254.546875 251.5 261.453125 251.5 261.453125 L 256.90625 259.046875 C 257.128906 259.492188 257.25 259.726562 257.25 259.726562 Z M 272.769531 252.820312 "/>
</g>
</defs>
<g id="surface1">
<path style=" stroke:none;fill-rule:nonzero;fill:rgb(24.705882%,23.921569%,33.72549%);fill-opacity:1;" d="M 0 0 L 503 0 L 503 270.855469 L 0 270.855469 Z M 0 0 "/>
<path style=" stroke:none;fill-rule:nonzero;fill:rgb(42.352941%,38.823529%,100%);fill-opacity:1;" d="M 90.929688 38.1875 L 95.367188 38.1875 L 95.367188 45.289062 L 90.929688 45.289062 Z M 90.929688 38.1875 "/>
<path style=" stroke:none;fill-rule:nonzero;fill:rgb(42.352941%,38.823529%,100%);fill-opacity:1;" d="M 106.011719 36.410156 L 110.445312 36.410156 L 110.445312 43.515625 L 106.011719 43.515625 Z M 106.011719 36.410156 "/>
<path style=" stroke:none;fill-rule:nonzero;fill:rgb(42.352941%,38.823529%,100%);fill-opacity:1;" d="M 113.996094 36.410156 L 118.429688 36.410156 L 118.429688 43.515625 L 113.996094 43.515625 Z M 113.996094 36.410156 "/>
<path style=" stroke:none;fill-rule:nonzero;fill:rgb(42.352941%,38.823529%,100%);fill-opacity:1;" d="M 113.996094 57.722656 L 118.429688 57.722656 L 118.429688 64.828125 L 113.996094 64.828125 Z M 113.996094 57.722656 "/>
<path style=" stroke:none;fill-rule:nonzero;fill:rgb(42.352941%,38.823529%,100%);fill-opacity:1;" d="M 122.867188 47.066406 L 127.300781 47.066406 L 127.300781 54.171875 L 122.867188 54.171875 Z M 122.867188 47.066406 "/>
<path style=" stroke:none;fill-rule:nonzero;fill:rgb(42.352941%,38.823529%,100%);fill-opacity:1;" d="M 122.867188 58.613281 L 127.300781 58.613281 L 127.300781 65.714844 L 122.867188 65.714844 Z M 122.867188 58.613281 "/>
<path style=" stroke:none;fill-rule:nonzero;fill:rgb(42.352941%,38.823529%,100%);fill-opacity:1;" d="M 113.996094 80.8125 L 118.429688 80.8125 L 118.429688 87.917969 L 113.996094 87.917969 Z M 113.996094 80.8125 "/>
<path style=" stroke:none;fill-rule:nonzero;fill:rgb(42.352941%,38.823529%,100%);fill-opacity:1;" d="M 122.867188 92.359375 L 127.300781 92.359375 L 127.300781 99.460938 L 122.867188 99.460938 Z M 122.867188 92.359375 "/>
<path style=" stroke:none;fill-rule:nonzero;fill:rgb(42.352941%,38.823529%,100%);fill-opacity:1;" d="M 113.996094 135.871094 L 118.429688 135.871094 L 118.429688 142.976562 L 113.996094 142.976562 Z M 113.996094 135.871094 "/>
<path style=" stroke:none;fill-rule:nonzero;fill:rgb(42.352941%,38.823529%,100%);fill-opacity:1;" d="M 106.011719 92.359375 L 110.445312 92.359375 L 110.445312 99.460938 L 106.011719 99.460938 Z M 106.011719 92.359375 "/>
<path style=" stroke:none;fill-rule:nonzero;fill:rgb(42.352941%,38.823529%,100%);fill-opacity:1;" d="M 90.929688 49.730469 L 95.367188 49.730469 L 95.367188 56.835938 L 90.929688 56.835938 Z M 90.929688 49.730469 "/>
<path style=" stroke:none;fill-rule:nonzero;fill:rgb(42.352941%,38.823529%,100%);fill-opacity:1;" d="M 90.929688 160.738281 L 95.367188 160.738281 L 95.367188 167.84375 L 90.929688 167.84375 Z M 90.929688 160.738281 "/>
<path style=" stroke:none;fill-rule:nonzero;fill:rgb(42.352941%,38.823529%,100%);fill-opacity:1;" d="M 90.929688 183.828125 L 95.367188 183.828125 L 95.367188 190.929688 L 90.929688 190.929688 Z M 90.929688 183.828125 "/>
<path style=" stroke:none;fill-rule:nonzero;fill:rgb(42.352941%,38.823529%,100%);fill-opacity:1;" d="M 90.929688 195.371094 L 95.367188 195.371094 L 95.367188 202.476562 L 90.929688 202.476562 Z M 90.929688 195.371094 "/>
<path style=" stroke:none;fill-rule:nonzero;fill:rgb(42.352941%,38.823529%,100%);fill-opacity:1;" d="M 89.15625 62.164062 L 95.367188 62.164062 L 95.367188 63.050781 L 89.15625 63.050781 Z M 89.15625 62.164062 "/>
<path style=" stroke:none;fill-rule:nonzero;fill:rgb(42.352941%,38.823529%,100%);fill-opacity:1;" d="M 113.109375 72.820312 L 119.316406 72.820312 L 119.316406 73.707031 L 113.109375 73.707031 Z M 113.109375 72.820312 "/>
<path style=" stroke:none;fill-rule:nonzero;fill:rgb(42.352941%,38.823529%,100%);fill-opacity:1;" d="M 89.15625 119 L 95.367188 119 L 95.367188 119.886719 L 89.15625 119.886719 Z M 89.15625 119 "/>
<path style=" stroke:none;fill-rule:nonzero;fill:rgb(42.352941%,38.823529%,100%);fill-opacity:1;" d="M 89.15625 128.769531 L 95.367188 128.769531 L 95.367188 129.65625 L 89.15625 129.65625 Z M 89.15625 128.769531 "/>
<path style=" stroke:none;fill-rule:nonzero;fill:rgb(42.352941%,38.823529%,100%);fill-opacity:1;" d="M 113.109375 185.601562 L 119.316406 185.601562 L 119.316406 186.492188 L 113.109375 186.492188 Z M 113.109375 185.601562 "/>
<path style=" stroke:none;fill-rule:nonzero;fill:rgb(42.352941%,38.823529%,100%);fill-opacity:1;" d="M 106.011719 206.917969 L 112.222656 206.917969 L 112.222656 207.804688 L 106.011719 207.804688 Z M 106.011719 206.917969 "/>
<path style=" stroke:none;fill-rule:nonzero;fill:rgb(42.352941%,38.823529%,100%);fill-opacity:1;" d="M 90.929688 70.15625 L 90.929688 71.933594 L 92.703125 71.933594 L 92.703125 75.484375 L 90.929688 75.484375 L 90.929688 77.261719 L 95.367188 77.261719 L 95.367188 70.15625 Z M 90.929688 70.15625 "/>
<path style=" stroke:none;fill-rule:nonzero;fill:rgb(42.352941%,38.823529%,100%);fill-opacity:1;" d="M 106.011719 57.722656 L 106.011719 59.5 L 107.785156 59.5 L 107.785156 63.050781 L 106.011719 63.050781 L 106.011719 64.828125 L 110.445312 64.828125 L 110.445312 57.722656 Z M 106.011719 57.722656 "/>
<path style=" stroke:none;fill-rule:nonzero;fill:rgb(42.352941%,38.823529%,100%);fill-opacity:1;" d="M 122.867188 69.269531 L 122.867188 71.042969 L 124.640625 71.042969 L 124.640625 74.597656 L 122.867188 74.597656 L 122.867188 76.371094 L 127.300781 76.371094 L 127.300781 69.269531 Z M 122.867188 69.269531 "/>
<path style=" stroke:none;fill-rule:nonzero;fill:rgb(42.352941%,38.823529%,100%);fill-opacity:1;" d="M 122.867188 103.902344 L 122.867188 105.679688 L 124.640625 105.679688 L 124.640625 109.230469 L 122.867188 109.230469 L 122.867188 111.007812 L 127.300781 111.007812 L 127.300781 103.902344 Z M 122.867188 103.902344 "/>
<path style=" stroke:none;fill-rule:nonzero;fill:rgb(42.352941%,38.823529%,100%);fill-opacity:1;" d="M 122.867188 115.445312 L 122.867188 117.222656 L 124.640625 117.222656 L 124.640625 120.777344 L 122.867188 120.777344 L 122.867188 122.550781 L 127.300781 122.550781 L 127.300781 115.445312 Z M 122.867188 115.445312 "/>
<path style=" stroke:none;fill-rule:nonzero;fill:rgb(42.352941%,38.823529%,100%);fill-opacity:1;" d="M 122.867188 79.925781 L 122.867188 81.699219 L 124.640625 81.699219 L 124.640625 85.253906 L 122.867188 85.253906 L 122.867188 87.03125 L 127.300781 87.03125 L 127.300781 79.925781 Z M 122.867188 79.925781 "/>
<path style=" stroke:none;fill-rule:nonzero;fill:rgb(42.352941%,38.823529%,100%);fill-opacity:1;" d="M 113.996094 47.066406 L 113.996094 48.84375 L 115.769531 48.84375 L 115.769531 52.394531 L 113.996094 52.394531 L 113.996094 54.171875 L 118.429688 54.171875 L 118.429688 47.066406 Z M 113.996094 47.066406 "/>
<path style=" stroke:none;fill-rule:nonzero;fill:rgb(42.352941%,38.823529%,100%);fill-opacity:1;" d="M 113.996094 103.902344 L 118.429688 103.902344 L 118.429688 111.007812 L 113.996094 111.007812 Z M 113.996094 103.902344 "/>
<path style=" stroke:none;fill-rule:nonzero;fill:rgb(42.352941%,38.823529%,100%);fill-opacity:1;" d="M 113.996094 125.214844 L 118.429688 125.214844 L 118.429688 132.320312 L 113.996094 132.320312 Z M 113.996094 125.214844 "/>
<path style=" stroke:none;fill-rule:nonzero;fill:rgb(42.352941%,38.823529%,100%);fill-opacity:1;" d="M 113.996094 114.558594 L 113.996094 116.335938 L 115.769531 116.335938 L 115.769531 119.886719 L 113.996094 119.886719 L 113.996094 121.664062 L 118.429688 121.664062 L 118.429688 114.558594 Z M 113.996094 114.558594 "/>
<path style=" stroke:none;fill-rule:nonzero;fill:rgb(42.352941%,38.823529%,100%);fill-opacity:1;" d="M 106.011719 69.269531 L 106.011719 71.042969 L 107.785156 71.042969 L 107.785156 74.597656 L 106.011719 74.597656 L 106.011719 76.371094 L 110.445312 76.371094 L 110.445312 69.269531 Z M 106.011719 69.269531 "/>
<path style=" stroke:none;fill-rule:nonzero;fill:rgb(42.352941%,38.823529%,100%);fill-opacity:1;" d="M 106.011719 80.8125 L 106.011719 82.589844 L 107.785156 82.589844 L 107.785156 86.140625 L 106.011719 86.140625 L 106.011719 87.917969 L 110.445312 87.917969 L 110.445312 80.8125 Z M 106.011719 80.8125 "/>
<path style=" stroke:none;fill-rule:nonzero;fill:rgb(42.352941%,38.823529%,100%);fill-opacity:1;" d="M 106.011719 115.445312 L 110.445312 115.445312 L 110.445312 122.550781 L 106.011719 122.550781 Z M 106.011719 115.445312 "/>
<path style=" stroke:none;fill-rule:nonzero;fill:rgb(42.352941%,38.823529%,100%);fill-opacity:1;" d="M 106.011719 103.902344 L 106.011719 105.679688 L 107.785156 105.679688 L 107.785156 109.230469 L 106.011719 109.230469 L 106.011719 111.007812 L 110.445312 111.007812 L 110.445312 103.902344 Z M 106.011719 103.902344 "/>
<path style=" stroke:none;fill-rule:nonzero;fill:rgb(42.352941%,38.823529%,100%);fill-opacity:1;" d="M 106.011719 138.535156 L 110.445312 138.535156 L 110.445312 145.640625 L 106.011719 145.640625 Z M 106.011719 138.535156 "/>
<path style=" stroke:none;fill-rule:nonzero;fill:rgb(42.352941%,38.823529%,100%);fill-opacity:1;" d="M 106.011719 126.992188 L 106.011719 128.765625 L 107.785156 128.765625 L 107.785156 132.320312 L 106.011719 132.320312 L 106.011719 134.097656 L 110.445312 134.097656 L 110.445312 126.992188 Z M 106.011719 126.992188 "/>
<path style=" stroke:none;fill-rule:nonzero;fill:rgb(42.352941%,38.823529%,100%);fill-opacity:1;" d="M 106.011719 161.625 L 110.445312 161.625 L 110.445312 168.730469 L 106.011719 168.730469 Z M 106.011719 161.625 "/>
<path style=" stroke:none;fill-rule:nonzero;fill:rgb(42.352941%,38.823529%,100%);fill-opacity:1;" d="M 113.996094 159.847656 L 118.429688 159.847656 L 118.429688 166.953125 L 113.996094 166.953125 Z M 113.996094 159.847656 "/>
<path style=" stroke:none;fill-rule:nonzero;fill:rgb(42.352941%,38.823529%,100%);fill-opacity:1;" d="M 106.011719 150.082031 L 106.011719 151.855469 L 107.785156 151.855469 L 107.785156 155.410156 L 106.011719 155.410156 L 106.011719 157.183594 L 110.445312 157.183594 L 110.445312 150.082031 Z M 106.011719 150.082031 "/>
<path style=" stroke:none;fill-rule:nonzero;fill:rgb(42.352941%,38.823529%,100%);fill-opacity:1;" d="M 122.867188 150.082031 L 122.867188 151.855469 L 124.640625 151.855469 L 124.640625 155.410156 L 122.867188 155.410156 L 122.867188 157.183594 L 127.300781 157.183594 L 127.300781 150.082031 Z M 122.867188 150.082031 "/>
<path style=" stroke:none;fill-rule:nonzero;fill:rgb(42.352941%,38.823529%,100%);fill-opacity:1;" d="M 168.109375 47.066406 L 172.546875 47.066406 L 172.546875 54.171875 L 168.109375 54.171875 Z M 168.109375 47.066406 "/>
<path style=" stroke:none;fill-rule:nonzero;fill:rgb(42.352941%,38.823529%,100%);fill-opacity:1;" d="M 168.109375 58.613281 L 172.546875 58.613281 L 172.546875 65.714844 L 168.109375 65.714844 Z M 168.109375 58.613281 "/>
<path style=" stroke:none;fill-rule:nonzero;fill:rgb(42.352941%,38.823529%,100%);fill-opacity:1;" d="M 168.109375 92.359375 L 172.546875 92.359375 L 172.546875 99.460938 L 168.109375 99.460938 Z M 168.109375 92.359375 "/>
<path style=" stroke:none;fill-rule:nonzero;fill:rgb(42.352941%,38.823529%,100%);fill-opacity:1;" d="M 168.109375 69.269531 L 168.109375 71.042969 L 169.882812 71.042969 L 169.882812 74.597656 L 168.109375 74.597656 L 168.109375 76.371094 L 172.546875 76.371094 L 172.546875 69.269531 Z M 168.109375 69.269531 "/>
<path style=" stroke:none;fill-rule:nonzero;fill:rgb(42.352941%,38.823529%,100%);fill-opacity:1;" d="M 168.109375 103.902344 L 168.109375 105.679688 L 169.882812 105.679688 L 169.882812 109.230469 L 168.109375 109.230469 L 168.109375 111.007812 L 172.546875 111.007812 L 172.546875 103.902344 Z M 168.109375 103.902344 "/>
<path style=" stroke:none;fill-rule:nonzero;fill:rgb(42.352941%,38.823529%,100%);fill-opacity:1;" d="M 168.109375 115.445312 L 168.109375 117.222656 L 169.882812 117.222656 L 169.882812 120.777344 L 168.109375 120.777344 L 168.109375 122.550781 L 172.546875 122.550781 L 172.546875 115.445312 Z M 168.109375 115.445312 "/>
<path style=" stroke:none;fill-rule:nonzero;fill:rgb(42.352941%,38.823529%,100%);fill-opacity:1;" d="M 168.109375 79.925781 L 168.109375 81.699219 L 169.882812 81.699219 L 169.882812 85.253906 L 168.109375 85.253906 L 168.109375 87.03125 L 172.546875 87.03125 L 172.546875 79.925781 Z M 168.109375 79.925781 "/>
<path style=" stroke:none;fill-rule:nonzero;fill:rgb(42.352941%,38.823529%,100%);fill-opacity:1;" d="M 168.109375 150.082031 L 168.109375 151.855469 L 169.882812 151.855469 L 169.882812 155.410156 L 168.109375 155.410156 L 168.109375 157.183594 L 172.546875 157.183594 L 172.546875 150.082031 Z M 168.109375 150.082031 "/>
<path style=" stroke:none;fill-rule:nonzero;fill:rgb(42.352941%,38.823529%,100%);fill-opacity:1;" d="M 106.011719 184.714844 L 110.445312 184.714844 L 110.445312 191.820312 L 106.011719 191.820312 Z M 106.011719 184.714844 "/>
<path style=" stroke:none;fill-rule:nonzero;fill:rgb(42.352941%,38.823529%,100%);fill-opacity:1;" d="M 113.996094 171.394531 L 118.429688 171.394531 L 118.429688 178.5 L 113.996094 178.5 Z M 113.996094 171.394531 "/>
<path style=" stroke:none;fill-rule:nonzero;fill:rgb(42.352941%,38.823529%,100%);fill-opacity:1;" d="M 106.011719 214.910156 L 110.445312 214.910156 L 110.445312 222.011719 L 106.011719 222.011719 Z M 106.011719 214.910156 "/>
<path style=" stroke:none;fill-rule:nonzero;fill:rgb(42.352941%,38.823529%,100%);fill-opacity:1;" d="M 113.996094 193.59375 L 118.429688 193.59375 L 118.429688 200.699219 L 113.996094 200.699219 Z M 113.996094 193.59375 "/>
<path style=" stroke:none;fill-rule:nonzero;fill:rgb(42.352941%,38.823529%,100%);fill-opacity:1;" d="M 106.011719 173.171875 L 106.011719 174.945312 L 107.785156 174.945312 L 107.785156 178.5 L 106.011719 178.5 L 106.011719 180.273438 L 110.445312 180.273438 L 110.445312 173.171875 Z M 106.011719 173.171875 "/>
<path style=" stroke:none;fill-rule:nonzero;fill:rgb(42.352941%,38.823529%,100%);fill-opacity:1;" d="M 106.011719 227.339844 L 106.011719 229.117188 L 107.785156 229.117188 L 107.785156 232.667969 L 106.011719 232.667969 L 106.011719 234.445312 L 110.445312 234.445312 L 110.445312 227.339844 Z M 106.011719 227.339844 "/>
<path style=" stroke:none;fill-rule:nonzero;fill:rgb(42.352941%,38.823529%,100%);fill-opacity:1;" d="M 154.804688 36.410156 L 159.238281 36.410156 L 159.238281 43.515625 L 154.804688 43.515625 Z M 154.804688 36.410156 "/>
<path style=" stroke:none;fill-rule:nonzero;fill:rgb(42.352941%,38.823529%,100%);fill-opacity:1;" d="M 154.804688 92.359375 L 159.238281 92.359375 L 159.238281 99.460938 L 154.804688 99.460938 Z M 154.804688 92.359375 "/>
<path style=" stroke:none;fill-rule:nonzero;fill:rgb(42.352941%,38.823529%,100%);fill-opacity:1;" d="M 154.804688 206.917969 L 161.011719 206.917969 L 161.011719 207.804688 L 154.804688 207.804688 Z M 154.804688 206.917969 "/>
<path style=" stroke:none;fill-rule:nonzero;fill:rgb(42.352941%,38.823529%,100%);fill-opacity:1;" d="M 154.804688 57.722656 L 154.804688 59.5 L 156.578125 59.5 L 156.578125 63.050781 L 154.804688 63.050781 L 154.804688 64.828125 L 159.238281 64.828125 L 159.238281 57.722656 Z M 154.804688 57.722656 "/>
<path style=" stroke:none;fill-rule:nonzero;fill:rgb(42.352941%,38.823529%,100%);fill-opacity:1;" d="M 154.804688 69.269531 L 154.804688 71.042969 L 156.578125 71.042969 L 156.578125 74.597656 L 154.804688 74.597656 L 154.804688 76.371094 L 159.238281 76.371094 L 159.238281 69.269531 Z M 154.804688 69.269531 "/>
<path style=" stroke:none;fill-rule:nonzero;fill:rgb(42.352941%,38.823529%,100%);fill-opacity:1;" d="M 154.804688 80.8125 L 154.804688 82.589844 L 156.578125 82.589844 L 156.578125 86.140625 L 154.804688 86.140625 L 154.804688 87.917969 L 159.238281 87.917969 L 159.238281 80.8125 Z M 154.804688 80.8125 "/>
<path style=" stroke:none;fill-rule:nonzero;fill:rgb(42.352941%,38.823529%,100%);fill-opacity:1;" d="M 154.804688 115.445312 L 159.238281 115.445312 L 159.238281 122.550781 L 154.804688 122.550781 Z M 154.804688 115.445312 "/>
<path style=" stroke:none;fill-rule:nonzero;fill:rgb(42.352941%,38.823529%,100%);fill-opacity:1;" d="M 154.804688 103.902344 L 154.804688 105.679688 L 156.578125 105.679688 L 156.578125 109.230469 L 154.804688 109.230469 L 154.804688 111.007812 L 159.238281 111.007812 L 159.238281 103.902344 Z M 154.804688 103.902344 "/>
<path style=" stroke:none;fill-rule:nonzero;fill:rgb(42.352941%,38.823529%,100%);fill-opacity:1;" d="M 154.804688 138.535156 L 159.238281 138.535156 L 159.238281 145.640625 L 154.804688 145.640625 Z M 154.804688 138.535156 "/>
<path style=" stroke:none;fill-rule:nonzero;fill:rgb(42.352941%,38.823529%,100%);fill-opacity:1;" d="M 154.804688 126.992188 L 154.804688 128.765625 L 156.578125 128.765625 L 156.578125 132.320312 L 154.804688 132.320312 L 154.804688 134.097656 L 159.238281 134.097656 L 159.238281 126.992188 Z M 154.804688 126.992188 "/>
<path style=" stroke:none;fill-rule:nonzero;fill:rgb(42.352941%,38.823529%,100%);fill-opacity:1;" d="M 154.804688 161.625 L 159.238281 161.625 L 159.238281 168.730469 L 154.804688 168.730469 Z M 154.804688 161.625 "/>
<path style=" stroke:none;fill-rule:nonzero;fill:rgb(42.352941%,38.823529%,100%);fill-opacity:1;" d="M 154.804688 150.082031 L 154.804688 151.855469 L 156.578125 151.855469 L 156.578125 155.410156 L 154.804688 155.410156 L 154.804688 157.183594 L 159.238281 157.183594 L 159.238281 150.082031 Z M 154.804688 150.082031 "/>
<path style=" stroke:none;fill-rule:nonzero;fill:rgb(42.352941%,38.823529%,100%);fill-opacity:1;" d="M 154.804688 184.714844 L 159.238281 184.714844 L 159.238281 191.820312 L 154.804688 191.820312 Z M 154.804688 184.714844 "/>
<path style=" stroke:none;fill-rule:nonzero;fill:rgb(42.352941%,38.823529%,100%);fill-opacity:1;" d="M 154.804688 214.910156 L 159.238281 214.910156 L 159.238281 222.011719 L 154.804688 222.011719 Z M 154.804688 214.910156 "/>
<path style=" stroke:none;fill-rule:nonzero;fill:rgb(42.352941%,38.823529%,100%);fill-opacity:1;" d="M 154.804688 173.171875 L 154.804688 174.945312 L 156.578125 174.945312 L 156.578125 178.5 L 154.804688 178.5 L 154.804688 180.273438 L 159.238281 180.273438 L 159.238281 173.171875 Z M 154.804688 173.171875 "/>
<path style=" stroke:none;fill-rule:nonzero;fill:rgb(42.352941%,38.823529%,100%);fill-opacity:1;" d="M 154.804688 227.339844 L 154.804688 229.117188 L 156.578125 229.117188 L 156.578125 232.667969 L 154.804688 232.667969 L 154.804688 234.445312 L 159.238281 234.445312 L 159.238281 227.339844 Z M 154.804688 227.339844 "/>
<path style=" stroke:none;fill-rule:nonzero;fill:rgb(42.352941%,38.823529%,100%);fill-opacity:1;" d="M 176.09375 36.410156 L 180.53125 36.410156 L 180.53125 43.515625 L 176.09375 43.515625 Z M 176.09375 36.410156 "/>
<path style=" stroke:none;fill-rule:nonzero;fill:rgb(42.352941%,38.823529%,100%);fill-opacity:1;" d="M 176.09375 92.359375 L 180.53125 92.359375 L 180.53125 99.460938 L 176.09375 99.460938 Z M 176.09375 92.359375 "/>
<path style=" stroke:none;fill-rule:nonzero;fill:rgb(42.352941%,38.823529%,100%);fill-opacity:1;" d="M 176.09375 206.917969 L 182.304688 206.917969 L 182.304688 207.804688 L 176.09375 207.804688 Z M 176.09375 206.917969 "/>
<path style=" stroke:none;fill-rule:nonzero;fill:rgb(42.352941%,38.823529%,100%);fill-opacity:1;" d="M 176.09375 57.722656 L 176.09375 59.5 L 177.867188 59.5 L 177.867188 63.050781 L 176.09375 63.050781 L 176.09375 64.828125 L 180.53125 64.828125 L 180.53125 57.722656 Z M 176.09375 57.722656 "/>
<path style=" stroke:none;fill-rule:nonzero;fill:rgb(42.352941%,38.823529%,100%);fill-opacity:1;" d="M 176.09375 69.269531 L 176.09375 71.042969 L 177.867188 71.042969 L 177.867188 74.597656 L 176.09375 74.597656 L 176.09375 76.371094 L 180.53125 76.371094 L 180.53125 69.269531 Z M 176.09375 69.269531 "/>
<path style=" stroke:none;fill-rule:nonzero;fill:rgb(42.352941%,38.823529%,100%);fill-opacity:1;" d="M 176.09375 80.8125 L 176.09375 82.589844 L 177.867188 82.589844 L 177.867188 86.140625 L 176.09375 86.140625 L 176.09375 87.917969 L 180.53125 87.917969 L 180.53125 80.8125 Z M 176.09375 80.8125 "/>
<path style=" stroke:none;fill-rule:nonzero;fill:rgb(42.352941%,38.823529%,100%);fill-opacity:1;" d="M 176.09375 115.445312 L 180.53125 115.445312 L 180.53125 122.550781 L 176.09375 122.550781 Z M 176.09375 115.445312 "/>
<path style=" stroke:none;fill-rule:nonzero;fill:rgb(42.352941%,38.823529%,100%);fill-opacity:1;" d="M 176.09375 103.902344 L 176.09375 105.679688 L 177.867188 105.679688 L 177.867188 109.230469 L 176.09375 109.230469 L 176.09375 111.007812 L 180.53125 111.007812 L 180.53125 103.902344 Z M 176.09375 103.902344 "/>
<path style=" stroke:none;fill-rule:nonzero;fill:rgb(42.352941%,38.823529%,100%);fill-opacity:1;" d="M 176.09375 138.535156 L 180.53125 138.535156 L 180.53125 145.640625 L 176.09375 145.640625 Z M 176.09375 138.535156 "/>
<path style=" stroke:none;fill-rule:nonzero;fill:rgb(42.352941%,38.823529%,100%);fill-opacity:1;" d="M 176.09375 126.992188 L 176.09375 128.765625 L 177.867188 128.765625 L 177.867188 132.320312 L 176.09375 132.320312 L 176.09375 134.097656 L 180.53125 134.097656 L 180.53125 126.992188 Z M 176.09375 126.992188 "/>
<path style=" stroke:none;fill-rule:nonzero;fill:rgb(42.352941%,38.823529%,100%);fill-opacity:1;" d="M 176.09375 161.625 L 180.53125 161.625 L 180.53125 168.730469 L 176.09375 168.730469 Z M 176.09375 161.625 "/>
<path style=" stroke:none;fill-rule:nonzero;fill:rgb(42.352941%,38.823529%,100%);fill-opacity:1;" d="M 176.09375 150.082031 L 176.09375 151.855469 L 177.867188 151.855469 L 177.867188 155.410156 L 176.09375 155.410156 L 176.09375 157.183594 L 180.53125 157.183594 L 180.53125 150.082031 Z M 176.09375 150.082031 "/>
<path style=" stroke:none;fill-rule:nonzero;fill:rgb(42.352941%,38.823529%,100%);fill-opacity:1;" d="M 176.09375 184.714844 L 180.53125 184.714844 L 180.53125 191.820312 L 176.09375 191.820312 Z M 176.09375 184.714844 "/>
<path style=" stroke:none;fill-rule:nonzero;fill:rgb(42.352941%,38.823529%,100%);fill-opacity:1;" d="M 176.09375 214.910156 L 180.53125 214.910156 L 180.53125 222.011719 L 176.09375 222.011719 Z M 176.09375 214.910156 "/>
<path style=" stroke:none;fill-rule:nonzero;fill:rgb(42.352941%,38.823529%,100%);fill-opacity:1;" d="M 176.09375 173.171875 L 176.09375 174.945312 L 177.867188 174.945312 L 177.867188 178.5 L 176.09375 178.5 L 176.09375 180.273438 L 180.53125 180.273438 L 180.53125 173.171875 Z M 176.09375 173.171875 "/>
<path style=" stroke:none;fill-rule:nonzero;fill:rgb(42.352941%,38.823529%,100%);fill-opacity:1;" d="M 176.09375 227.339844 L 176.09375 229.117188 L 177.867188 229.117188 L 177.867188 232.667969 L 176.09375 232.667969 L 176.09375 234.445312 L 180.53125 234.445312 L 180.53125 227.339844 Z M 176.09375 227.339844 "/>
<path style=" stroke:none;fill-rule:nonzero;fill:rgb(42.352941%,38.823529%,100%);fill-opacity:1;" d="M 113.996094 214.910156 L 113.996094 216.683594 L 115.769531 216.683594 L 115.769531 220.238281 L 113.996094 220.238281 L 113.996094 222.011719 L 118.429688 222.011719 L 118.429688 214.910156 Z M 113.996094 214.910156 "/>
<path style=" stroke:none;fill-rule:nonzero;fill:rgb(42.352941%,38.823529%,100%);fill-opacity:1;" d="M 113.996094 226.453125 L 113.996094 228.230469 L 115.769531 228.230469 L 115.769531 231.78125 L 113.996094 231.78125 L 113.996094 233.558594 L 118.429688 233.558594 L 118.429688 226.453125 Z M 113.996094 226.453125 "/>
<path style=" stroke:none;fill-rule:nonzero;fill:rgb(42.352941%,38.823529%,100%);fill-opacity:1;" d="M 90.929688 92.359375 L 90.929688 94.132812 L 92.703125 94.132812 L 92.703125 97.6875 L 90.929688 97.6875 L 90.929688 99.460938 L 95.367188 99.460938 L 95.367188 92.359375 Z M 90.929688 92.359375 "/>
<path style=" stroke:none;fill-rule:nonzero;fill:rgb(42.352941%,38.823529%,100%);fill-opacity:1;" d="M 90.929688 137.648438 L 90.929688 139.425781 L 92.703125 139.425781 L 92.703125 142.976562 L 90.929688 142.976562 L 90.929688 144.753906 L 95.367188 144.753906 L 95.367188 137.648438 Z M 90.929688 137.648438 "/>
<path style=" stroke:none;fill-rule:nonzero;fill:rgb(42.352941%,38.823529%,100%);fill-opacity:1;" d="M 90.929688 149.191406 L 90.929688 150.96875 L 92.703125 150.96875 L 92.703125 154.523438 L 90.929688 154.523438 L 90.929688 156.296875 L 95.367188 156.296875 L 95.367188 149.191406 Z M 90.929688 149.191406 "/>
<path style=" stroke:none;fill-rule:nonzero;fill:rgb(42.352941%,38.823529%,100%);fill-opacity:1;" d="M 90.929688 172.28125 L 90.929688 174.058594 L 92.703125 174.058594 L 92.703125 177.609375 L 90.929688 177.609375 L 90.929688 179.386719 L 95.367188 179.386719 L 95.367188 172.28125 Z M 90.929688 172.28125 "/>
<path style=" stroke:none;fill-rule:nonzero;fill:rgb(42.352941%,38.823529%,100%);fill-opacity:1;" d="M 90.929688 205.140625 L 90.929688 206.917969 L 92.703125 206.917969 L 92.703125 210.46875 L 90.929688 210.46875 L 90.929688 212.246094 L 95.367188 212.246094 L 95.367188 205.140625 Z M 90.929688 205.140625 "/>
<path style=" stroke:none;fill-rule:nonzero;fill:rgb(42.352941%,38.823529%,100%);fill-opacity:1;" d="M 90.929688 214.910156 L 90.929688 216.683594 L 92.703125 216.683594 L 92.703125 220.238281 L 90.929688 220.238281 L 90.929688 222.011719 L 95.367188 222.011719 L 95.367188 214.910156 Z M 90.929688 214.910156 "/>
<path style=" stroke:none;fill-rule:nonzero;fill:rgb(42.352941%,38.823529%,100%);fill-opacity:1;" d="M 137.0625 38.1875 L 141.496094 38.1875 L 141.496094 45.289062 L 137.0625 45.289062 Z M 137.0625 38.1875 "/>
<path style=" stroke:none;fill-rule:nonzero;fill:rgb(42.352941%,38.823529%,100%);fill-opacity:1;" d="M 137.0625 49.730469 L 141.496094 49.730469 L 141.496094 56.835938 L 137.0625 56.835938 Z M 137.0625 49.730469 "/>
<path style=" stroke:none;fill-rule:nonzero;fill:rgb(42.352941%,38.823529%,100%);fill-opacity:1;" d="M 135.285156 62.164062 L 141.496094 62.164062 L 141.496094 63.050781 L 135.285156 63.050781 Z M 135.285156 62.164062 "/>
<path style=" stroke:none;fill-rule:nonzero;fill:rgb(42.352941%,38.823529%,100%);fill-opacity:1;" d="M 135.285156 119 L 141.496094 119 L 141.496094 119.886719 L 135.285156 119.886719 Z M 135.285156 119 "/>
<path style=" stroke:none;fill-rule:nonzero;fill:rgb(42.352941%,38.823529%,100%);fill-opacity:1;" d="M 135.285156 128.769531 L 141.496094 128.769531 L 141.496094 129.65625 L 135.285156 129.65625 Z M 135.285156 128.769531 "/>
<path style=" stroke:none;fill-rule:nonzero;fill:rgb(42.352941%,38.823529%,100%);fill-opacity:1;" d="M 137.0625 70.15625 L 137.0625 71.933594 L 138.835938 71.933594 L 138.835938 75.484375 L 137.0625 75.484375 L 137.0625 77.261719 L 141.496094 77.261719 L 141.496094 70.15625 Z M 137.0625 70.15625 "/>
<path style=" stroke:none;fill-rule:nonzero;fill:rgb(42.352941%,38.823529%,100%);fill-opacity:1;" d="M 137.0625 92.359375 L 137.0625 94.132812 L 138.835938 94.132812 L 138.835938 97.6875 L 137.0625 97.6875 L 137.0625 99.460938 L 141.496094 99.460938 L 141.496094 92.359375 Z M 137.0625 92.359375 "/>
<path style=" stroke:none;fill-rule:nonzero;fill:rgb(42.352941%,38.823529%,100%);fill-opacity:1;" d="M 137.0625 137.648438 L 137.0625 139.425781 L 138.835938 139.425781 L 138.835938 142.976562 L 137.0625 142.976562 L 137.0625 144.753906 L 141.496094 144.753906 L 141.496094 137.648438 Z M 137.0625 137.648438 "/>
<path style=" stroke:none;fill-rule:nonzero;fill:rgb(42.352941%,38.823529%,100%);fill-opacity:1;" d="M 187.625 115.445312 L 192.0625 115.445312 L 192.0625 122.550781 L 187.625 122.550781 Z M 187.625 115.445312 "/>
<path style=" stroke:none;fill-rule:nonzero;fill:rgb(42.352941%,38.823529%,100%);fill-opacity:1;" d="M 187.625 126.992188 L 192.0625 126.992188 L 192.0625 134.097656 L 187.625 134.097656 Z M 187.625 126.992188 "/>
<path style=" stroke:none;fill-rule:nonzero;fill:rgb(42.352941%,38.823529%,100%);fill-opacity:1;" d="M 185.851562 139.425781 L 192.0625 139.425781 L 192.0625 140.3125 L 185.851562 140.3125 Z M 185.851562 139.425781 "/>
<path style=" stroke:none;fill-rule:nonzero;fill:rgb(42.352941%,38.823529%,100%);fill-opacity:1;" d="M 185.851562 196.257812 L 192.0625 196.257812 L 192.0625 197.148438 L 185.851562 197.148438 Z M 185.851562 196.257812 "/>
<path style=" stroke:none;fill-rule:nonzero;fill:rgb(42.352941%,38.823529%,100%);fill-opacity:1;" d="M 185.851562 206.027344 L 192.0625 206.027344 L 192.0625 206.917969 L 185.851562 206.917969 Z M 185.851562 206.027344 "/>
<path style=" stroke:none;fill-rule:nonzero;fill:rgb(42.352941%,38.823529%,100%);fill-opacity:1;" d="M 187.625 147.417969 L 187.625 149.191406 L 189.402344 149.191406 L 189.402344 152.746094 L 187.625 152.746094 L 187.625 154.523438 L 192.0625 154.523438 L 192.0625 147.417969 Z M 187.625 147.417969 "/>
<path style=" stroke:none;fill-rule:nonzero;fill:rgb(42.352941%,38.823529%,100%);fill-opacity:1;" d="M 187.625 169.617188 L 187.625 171.394531 L 189.402344 171.394531 L 189.402344 174.945312 L 187.625 174.945312 L 187.625 176.722656 L 192.0625 176.722656 L 192.0625 169.617188 Z M 187.625 169.617188 "/>
<path style=" stroke:none;fill-rule:nonzero;fill:rgb(42.352941%,38.823529%,100%);fill-opacity:1;" d="M 187.625 214.910156 L 187.625 216.683594 L 189.402344 216.683594 L 189.402344 220.238281 L 187.625 220.238281 L 187.625 222.011719 L 192.0625 222.011719 L 192.0625 214.910156 Z M 187.625 214.910156 "/>
<path style=" stroke:none;fill-rule:nonzero;fill:rgb(42.352941%,38.823529%,100%);fill-opacity:1;" d="M 201.820312 38.1875 L 206.257812 38.1875 L 206.257812 45.289062 L 201.820312 45.289062 Z M 201.820312 38.1875 "/>
<path style=" stroke:none;fill-rule:nonzero;fill:rgb(42.352941%,38.823529%,100%);fill-opacity:1;" d="M 216.902344 36.410156 L 221.335938 36.410156 L 221.335938 43.515625 L 216.902344 43.515625 Z M 216.902344 36.410156 "/>
<path style=" stroke:none;fill-rule:nonzero;fill:rgb(42.352941%,38.823529%,100%);fill-opacity:1;" d="M 224.886719 36.410156 L 229.320312 36.410156 L 229.320312 43.515625 L 224.886719 43.515625 Z M 224.886719 36.410156 "/>
<path style=" stroke:none;fill-rule:nonzero;fill:rgb(42.352941%,38.823529%,100%);fill-opacity:1;" d="M 224.886719 57.722656 L 229.320312 57.722656 L 229.320312 64.828125 L 224.886719 64.828125 Z M 224.886719 57.722656 "/>
<path style=" stroke:none;fill-rule:nonzero;fill:rgb(42.352941%,38.823529%,100%);fill-opacity:1;" d="M 233.757812 47.066406 L 238.191406 47.066406 L 238.191406 54.171875 L 233.757812 54.171875 Z M 233.757812 47.066406 "/>
<path style=" stroke:none;fill-rule:nonzero;fill:rgb(42.352941%,38.823529%,100%);fill-opacity:1;" d="M 233.757812 58.613281 L 238.191406 58.613281 L 238.191406 65.714844 L 233.757812 65.714844 Z M 233.757812 58.613281 "/>
<path style=" stroke:none;fill-rule:nonzero;fill:rgb(42.352941%,38.823529%,100%);fill-opacity:1;" d="M 224.886719 80.8125 L 229.320312 80.8125 L 229.320312 87.917969 L 224.886719 87.917969 Z M 224.886719 80.8125 "/>
<path style=" stroke:none;fill-rule:nonzero;fill:rgb(42.352941%,38.823529%,100%);fill-opacity:1;" d="M 233.757812 92.359375 L 238.191406 92.359375 L 238.191406 99.460938 L 233.757812 99.460938 Z M 233.757812 92.359375 "/>
<path style=" stroke:none;fill-rule:nonzero;fill:rgb(42.352941%,38.823529%,100%);fill-opacity:1;" d="M 224.886719 135.871094 L 229.320312 135.871094 L 229.320312 142.976562 L 224.886719 142.976562 Z M 224.886719 135.871094 "/>
<path style=" stroke:none;fill-rule:nonzero;fill:rgb(42.352941%,38.823529%,100%);fill-opacity:1;" d="M 216.902344 92.359375 L 221.335938 92.359375 L 221.335938 99.460938 L 216.902344 99.460938 Z M 216.902344 92.359375 "/>
<path style=" stroke:none;fill-rule:nonzero;fill:rgb(42.352941%,38.823529%,100%);fill-opacity:1;" d="M 201.820312 49.730469 L 206.257812 49.730469 L 206.257812 56.835938 L 201.820312 56.835938 Z M 201.820312 49.730469 "/>
<path style=" stroke:none;fill-rule:nonzero;fill:rgb(42.352941%,38.823529%,100%);fill-opacity:1;" d="M 201.820312 160.738281 L 206.257812 160.738281 L 206.257812 167.84375 L 201.820312 167.84375 Z M 201.820312 160.738281 "/>
<path style=" stroke:none;fill-rule:nonzero;fill:rgb(42.352941%,38.823529%,100%);fill-opacity:1;" d="M 201.820312 183.828125 L 206.257812 183.828125 L 206.257812 190.929688 L 201.820312 190.929688 Z M 201.820312 183.828125 "/>
<path style=" stroke:none;fill-rule:nonzero;fill:rgb(42.352941%,38.823529%,100%);fill-opacity:1;" d="M 201.820312 195.371094 L 206.257812 195.371094 L 206.257812 202.476562 L 201.820312 202.476562 Z M 201.820312 195.371094 "/>
<path style=" stroke:none;fill-rule:nonzero;fill:rgb(42.352941%,38.823529%,100%);fill-opacity:1;" d="M 200.046875 62.164062 L 206.257812 62.164062 L 206.257812 63.050781 L 200.046875 63.050781 Z M 200.046875 62.164062 "/>
<path style=" stroke:none;fill-rule:nonzero;fill:rgb(42.352941%,38.823529%,100%);fill-opacity:1;" d="M 224 72.820312 L 230.207031 72.820312 L 230.207031 73.707031 L 224 73.707031 Z M 224 72.820312 "/>
<path style=" stroke:none;fill-rule:nonzero;fill:rgb(42.352941%,38.823529%,100%);fill-opacity:1;" d="M 200.046875 119 L 206.257812 119 L 206.257812 119.886719 L 200.046875 119.886719 Z M 200.046875 119 "/>
<path style=" stroke:none;fill-rule:nonzero;fill:rgb(42.352941%,38.823529%,100%);fill-opacity:1;" d="M 200.046875 128.769531 L 206.257812 128.769531 L 206.257812 129.65625 L 200.046875 129.65625 Z M 200.046875 128.769531 "/>
<path style=" stroke:none;fill-rule:nonzero;fill:rgb(42.352941%,38.823529%,100%);fill-opacity:1;" d="M 224 185.601562 L 230.207031 185.601562 L 230.207031 186.492188 L 224 186.492188 Z M 224 185.601562 "/>
<path style=" stroke:none;fill-rule:nonzero;fill:rgb(42.352941%,38.823529%,100%);fill-opacity:1;" d="M 216.902344 206.917969 L 223.113281 206.917969 L 223.113281 207.804688 L 216.902344 207.804688 Z M 216.902344 206.917969 "/>
<path style=" stroke:none;fill-rule:nonzero;fill:rgb(42.352941%,38.823529%,100%);fill-opacity:1;" d="M 201.820312 70.15625 L 201.820312 71.933594 L 203.59375 71.933594 L 203.59375 75.484375 L 201.820312 75.484375 L 201.820312 77.261719 L 206.257812 77.261719 L 206.257812 70.15625 Z M 201.820312 70.15625 "/>
<path style=" stroke:none;fill-rule:nonzero;fill:rgb(42.352941%,38.823529%,100%);fill-opacity:1;" d="M 216.902344 57.722656 L 216.902344 59.5 L 218.675781 59.5 L 218.675781 63.050781 L 216.902344 63.050781 L 216.902344 64.828125 L 221.335938 64.828125 L 221.335938 57.722656 Z M 216.902344 57.722656 "/>
<path style=" stroke:none;fill-rule:nonzero;fill:rgb(42.352941%,38.823529%,100%);fill-opacity:1;" d="M 233.757812 69.269531 L 233.757812 71.042969 L 235.53125 71.042969 L 235.53125 74.597656 L 233.757812 74.597656 L 233.757812 76.371094 L 238.191406 76.371094 L 238.191406 69.269531 Z M 233.757812 69.269531 "/>
<path style=" stroke:none;fill-rule:nonzero;fill:rgb(42.352941%,38.823529%,100%);fill-opacity:1;" d="M 233.757812 103.902344 L 233.757812 105.679688 L 235.53125 105.679688 L 235.53125 109.230469 L 233.757812 109.230469 L 233.757812 111.007812 L 238.191406 111.007812 L 238.191406 103.902344 Z M 233.757812 103.902344 "/>
<path style=" stroke:none;fill-rule:nonzero;fill:rgb(42.352941%,38.823529%,100%);fill-opacity:1;" d="M 233.757812 115.445312 L 233.757812 117.222656 L 235.53125 117.222656 L 235.53125 120.777344 L 233.757812 120.777344 L 233.757812 122.550781 L 238.191406 122.550781 L 238.191406 115.445312 Z M 233.757812 115.445312 "/>
<path style=" stroke:none;fill-rule:nonzero;fill:rgb(42.352941%,38.823529%,100%);fill-opacity:1;" d="M 233.757812 79.925781 L 233.757812 81.699219 L 235.53125 81.699219 L 235.53125 85.253906 L 233.757812 85.253906 L 233.757812 87.03125 L 238.191406 87.03125 L 238.191406 79.925781 Z M 233.757812 79.925781 "/>
<path style=" stroke:none;fill-rule:nonzero;fill:rgb(42.352941%,38.823529%,100%);fill-opacity:1;" d="M 224.886719 47.066406 L 224.886719 48.84375 L 226.660156 48.84375 L 226.660156 52.394531 L 224.886719 52.394531 L 224.886719 54.171875 L 229.320312 54.171875 L 229.320312 47.066406 Z M 224.886719 47.066406 "/>
<path style=" stroke:none;fill-rule:nonzero;fill:rgb(42.352941%,38.823529%,100%);fill-opacity:1;" d="M 224.886719 103.902344 L 229.320312 103.902344 L 229.320312 111.007812 L 224.886719 111.007812 Z M 224.886719 103.902344 "/>
<path style=" stroke:none;fill-rule:nonzero;fill:rgb(42.352941%,38.823529%,100%);fill-opacity:1;" d="M 224.886719 125.214844 L 229.320312 125.214844 L 229.320312 132.320312 L 224.886719 132.320312 Z M 224.886719 125.214844 "/>
<path style=" stroke:none;fill-rule:nonzero;fill:rgb(42.352941%,38.823529%,100%);fill-opacity:1;" d="M 224.886719 114.558594 L 224.886719 116.335938 L 226.660156 116.335938 L 226.660156 119.886719 L 224.886719 119.886719 L 224.886719 121.664062 L 229.320312 121.664062 L 229.320312 114.558594 Z M 224.886719 114.558594 "/>
<path style=" stroke:none;fill-rule:nonzero;fill:rgb(42.352941%,38.823529%,100%);fill-opacity:1;" d="M 216.902344 69.269531 L 216.902344 71.042969 L 218.675781 71.042969 L 218.675781 74.597656 L 216.902344 74.597656 L 216.902344 76.371094 L 221.335938 76.371094 L 221.335938 69.269531 Z M 216.902344 69.269531 "/>
<path style=" stroke:none;fill-rule:nonzero;fill:rgb(42.352941%,38.823529%,100%);fill-opacity:1;" d="M 216.902344 80.8125 L 216.902344 82.589844 L 218.675781 82.589844 L 218.675781 86.140625 L 216.902344 86.140625 L 216.902344 87.917969 L 221.335938 87.917969 L 221.335938 80.8125 Z M 216.902344 80.8125 "/>
<path style=" stroke:none;fill-rule:nonzero;fill:rgb(42.352941%,38.823529%,100%);fill-opacity:1;" d="M 216.902344 115.445312 L 221.335938 115.445312 L 221.335938 122.550781 L 216.902344 122.550781 Z M 216.902344 115.445312 "/>
<path style=" stroke:none;fill-rule:nonzero;fill:rgb(42.352941%,38.823529%,100%);fill-opacity:1;" d="M 216.902344 103.902344 L 216.902344 105.679688 L 218.675781 105.679688 L 218.675781 109.230469 L 216.902344 109.230469 L 216.902344 111.007812 L 221.335938 111.007812 L 221.335938 103.902344 Z M 216.902344 103.902344 "/>
<path style=" stroke:none;fill-rule:nonzero;fill:rgb(42.352941%,38.823529%,100%);fill-opacity:1;" d="M 216.902344 138.535156 L 221.335938 138.535156 L 221.335938 145.640625 L 216.902344 145.640625 Z M 216.902344 138.535156 "/>
<path style=" stroke:none;fill-rule:nonzero;fill:rgb(42.352941%,38.823529%,100%);fill-opacity:1;" d="M 216.902344 126.992188 L 216.902344 128.765625 L 218.675781 128.765625 L 218.675781 132.320312 L 216.902344 132.320312 L 216.902344 134.097656 L 221.335938 134.097656 L 221.335938 126.992188 Z M 216.902344 126.992188 "/>
<path style=" stroke:none;fill-rule:nonzero;fill:rgb(42.352941%,38.823529%,100%);fill-opacity:1;" d="M 216.902344 161.625 L 221.335938 161.625 L 221.335938 168.730469 L 216.902344 168.730469 Z M 216.902344 161.625 "/>
<path style=" stroke:none;fill-rule:nonzero;fill:rgb(42.352941%,38.823529%,100%);fill-opacity:1;" d="M 224.886719 159.847656 L 229.320312 159.847656 L 229.320312 166.953125 L 224.886719 166.953125 Z M 224.886719 159.847656 "/>
<path style=" stroke:none;fill-rule:nonzero;fill:rgb(42.352941%,38.823529%,100%);fill-opacity:1;" d="M 216.902344 150.082031 L 216.902344 151.855469 L 218.675781 151.855469 L 218.675781 155.410156 L 216.902344 155.410156 L 216.902344 157.183594 L 221.335938 157.183594 L 221.335938 150.082031 Z M 216.902344 150.082031 "/>
<path style=" stroke:none;fill-rule:nonzero;fill:rgb(42.352941%,38.823529%,100%);fill-opacity:1;" d="M 233.757812 150.082031 L 233.757812 151.855469 L 235.53125 151.855469 L 235.53125 155.410156 L 233.757812 155.410156 L 233.757812 157.183594 L 238.191406 157.183594 L 238.191406 150.082031 Z M 233.757812 150.082031 "/>
<path style=" stroke:none;fill-rule:nonzero;fill:rgb(42.352941%,38.823529%,100%);fill-opacity:1;" d="M 279 47.066406 L 283.4375 47.066406 L 283.4375 54.171875 L 279 54.171875 Z M 279 47.066406 "/>
<path style=" stroke:none;fill-rule:nonzero;fill:rgb(42.352941%,38.823529%,100%);fill-opacity:1;" d="M 279 58.613281 L 283.4375 58.613281 L 283.4375 65.714844 L 279 65.714844 Z M 279 58.613281 "/>
<path style=" stroke:none;fill-rule:nonzero;fill:rgb(42.352941%,38.823529%,100%);fill-opacity:1;" d="M 279 92.359375 L 283.4375 92.359375 L 283.4375 99.460938 L 279 99.460938 Z M 279 92.359375 "/>
<path style=" stroke:none;fill-rule:nonzero;fill:rgb(42.352941%,38.823529%,100%);fill-opacity:1;" d="M 279 69.269531 L 279 71.042969 L 280.773438 71.042969 L 280.773438 74.597656 L 279 74.597656 L 279 76.371094 L 283.4375 76.371094 L 283.4375 69.269531 Z M 279 69.269531 "/>
<path style=" stroke:none;fill-rule:nonzero;fill:rgb(42.352941%,38.823529%,100%);fill-opacity:1;" d="M 279 103.902344 L 279 105.679688 L 280.773438 105.679688 L 280.773438 109.230469 L 279 109.230469 L 279 111.007812 L 283.4375 111.007812 L 283.4375 103.902344 Z M 279 103.902344 "/>
<path style=" stroke:none;fill-rule:nonzero;fill:rgb(42.352941%,38.823529%,100%);fill-opacity:1;" d="M 279 115.445312 L 279 117.222656 L 280.773438 117.222656 L 280.773438 120.777344 L 279 120.777344 L 279 122.550781 L 283.4375 122.550781 L 283.4375 115.445312 Z M 279 115.445312 "/>
<path style=" stroke:none;fill-rule:nonzero;fill:rgb(42.352941%,38.823529%,100%);fill-opacity:1;" d="M 279 79.925781 L 279 81.699219 L 280.773438 81.699219 L 280.773438 85.253906 L 279 85.253906 L 279 87.03125 L 283.4375 87.03125 L 283.4375 79.925781 Z M 279 79.925781 "/>
<path style=" stroke:none;fill-rule:nonzero;fill:rgb(42.352941%,38.823529%,100%);fill-opacity:1;" d="M 279 150.082031 L 279 151.855469 L 280.773438 151.855469 L 280.773438 155.410156 L 279 155.410156 L 279 157.183594 L 283.4375 157.183594 L 283.4375 150.082031 Z M 279 150.082031 "/>
<path style=" stroke:none;fill-rule:nonzero;fill:rgb(42.352941%,38.823529%,100%);fill-opacity:1;" d="M 216.902344 184.714844 L 221.335938 184.714844 L 221.335938 191.820312 L 216.902344 191.820312 Z M 216.902344 184.714844 "/>
<path style=" stroke:none;fill-rule:nonzero;fill:rgb(42.352941%,38.823529%,100%);fill-opacity:1;" d="M 224.886719 171.394531 L 229.320312 171.394531 L 229.320312 178.5 L 224.886719 178.5 Z M 224.886719 171.394531 "/>
<path style=" stroke:none;fill-rule:nonzero;fill:rgb(42.352941%,38.823529%,100%);fill-opacity:1;" d="M 216.902344 214.910156 L 221.335938 214.910156 L 221.335938 222.011719 L 216.902344 222.011719 Z M 216.902344 214.910156 "/>
<path style=" stroke:none;fill-rule:nonzero;fill:rgb(42.352941%,38.823529%,100%);fill-opacity:1;" d="M 224.886719 193.59375 L 229.320312 193.59375 L 229.320312 200.699219 L 224.886719 200.699219 Z M 224.886719 193.59375 "/>
<path style=" stroke:none;fill-rule:nonzero;fill:rgb(42.352941%,38.823529%,100%);fill-opacity:1;" d="M 216.902344 173.171875 L 216.902344 174.945312 L 218.675781 174.945312 L 218.675781 178.5 L 216.902344 178.5 L 216.902344 180.273438 L 221.335938 180.273438 L 221.335938 173.171875 Z M 216.902344 173.171875 "/>
<path style=" stroke:none;fill-rule:nonzero;fill:rgb(42.352941%,38.823529%,100%);fill-opacity:1;" d="M 216.902344 227.339844 L 216.902344 229.117188 L 218.675781 229.117188 L 218.675781 232.667969 L 216.902344 232.667969 L 216.902344 234.445312 L 221.335938 234.445312 L 221.335938 227.339844 Z M 216.902344 227.339844 "/>
<path style=" stroke:none;fill-rule:nonzero;fill:rgb(42.352941%,38.823529%,100%);fill-opacity:1;" d="M 265.695312 36.410156 L 270.128906 36.410156 L 270.128906 43.515625 L 265.695312 43.515625 Z M 265.695312 36.410156 "/>
<path style=" stroke:none;fill-rule:nonzero;fill:rgb(42.352941%,38.823529%,100%);fill-opacity:1;" d="M 265.695312 92.359375 L 270.128906 92.359375 L 270.128906 99.460938 L 265.695312 99.460938 Z M 265.695312 92.359375 "/>
<path style=" stroke:none;fill-rule:nonzero;fill:rgb(42.352941%,38.823529%,100%);fill-opacity:1;" d="M 265.695312 206.917969 L 271.902344 206.917969 L 271.902344 207.804688 L 265.695312 207.804688 Z M 265.695312 206.917969 "/>
<path style=" stroke:none;fill-rule:nonzero;fill:rgb(42.352941%,38.823529%,100%);fill-opacity:1;" d="M 265.691406 57.722656 L 265.691406 59.5 L 267.46875 59.5 L 267.46875 63.050781 L 265.691406 63.050781 L 265.691406 64.828125 L 270.128906 64.828125 L 270.128906 57.722656 Z M 265.691406 57.722656 "/>
<path style=" stroke:none;fill-rule:nonzero;fill:rgb(42.352941%,38.823529%,100%);fill-opacity:1;" d="M 265.691406 69.269531 L 265.691406 71.042969 L 267.46875 71.042969 L 267.46875 74.597656 L 265.691406 74.597656 L 265.691406 76.371094 L 270.128906 76.371094 L 270.128906 69.269531 Z M 265.691406 69.269531 "/>
<path style=" stroke:none;fill-rule:nonzero;fill:rgb(42.352941%,38.823529%,100%);fill-opacity:1;" d="M 265.691406 80.8125 L 265.691406 82.589844 L 267.46875 82.589844 L 267.46875 86.140625 L 265.691406 86.140625 L 265.691406 87.917969 L 270.128906 87.917969 L 270.128906 80.8125 Z M 265.691406 80.8125 "/>
<path style=" stroke:none;fill-rule:nonzero;fill:rgb(42.352941%,38.823529%,100%);fill-opacity:1;" d="M 265.695312 115.445312 L 270.128906 115.445312 L 270.128906 122.550781 L 265.695312 122.550781 Z M 265.695312 115.445312 "/>
<path style=" stroke:none;fill-rule:nonzero;fill:rgb(42.352941%,38.823529%,100%);fill-opacity:1;" d="M 265.691406 103.902344 L 265.691406 105.679688 L 267.46875 105.679688 L 267.46875 109.230469 L 265.691406 109.230469 L 265.691406 111.007812 L 270.128906 111.007812 L 270.128906 103.902344 Z M 265.691406 103.902344 "/>
<path style=" stroke:none;fill-rule:nonzero;fill:rgb(42.352941%,38.823529%,100%);fill-opacity:1;" d="M 265.695312 138.535156 L 270.128906 138.535156 L 270.128906 145.640625 L 265.695312 145.640625 Z M 265.695312 138.535156 "/>
<path style=" stroke:none;fill-rule:nonzero;fill:rgb(42.352941%,38.823529%,100%);fill-opacity:1;" d="M 265.691406 126.992188 L 265.691406 128.765625 L 267.46875 128.765625 L 267.46875 132.320312 L 265.691406 132.320312 L 265.691406 134.097656 L 270.128906 134.097656 L 270.128906 126.992188 Z M 265.691406 126.992188 "/>
<path style=" stroke:none;fill-rule:nonzero;fill:rgb(42.352941%,38.823529%,100%);fill-opacity:1;" d="M 265.695312 161.625 L 270.128906 161.625 L 270.128906 168.730469 L 265.695312 168.730469 Z M 265.695312 161.625 "/>
<path style=" stroke:none;fill-rule:nonzero;fill:rgb(42.352941%,38.823529%,100%);fill-opacity:1;" d="M 265.691406 150.082031 L 265.691406 151.855469 L 267.46875 151.855469 L 267.46875 155.410156 L 265.691406 155.410156 L 265.691406 157.183594 L 270.128906 157.183594 L 270.128906 150.082031 Z M 265.691406 150.082031 "/>
<path style=" stroke:none;fill-rule:nonzero;fill:rgb(42.352941%,38.823529%,100%);fill-opacity:1;" d="M 265.695312 184.714844 L 270.128906 184.714844 L 270.128906 191.820312 L 265.695312 191.820312 Z M 265.695312 184.714844 "/>
<path style=" stroke:none;fill-rule:nonzero;fill:rgb(42.352941%,38.823529%,100%);fill-opacity:1;" d="M 265.695312 214.910156 L 270.128906 214.910156 L 270.128906 222.011719 L 265.695312 222.011719 Z M 265.695312 214.910156 "/>
<path style=" stroke:none;fill-rule:nonzero;fill:rgb(42.352941%,38.823529%,100%);fill-opacity:1;" d="M 265.691406 173.171875 L 265.691406 174.945312 L 267.46875 174.945312 L 267.46875 178.5 L 265.691406 178.5 L 265.691406 180.273438 L 270.128906 180.273438 L 270.128906 173.171875 Z M 265.691406 173.171875 "/>
<path style=" stroke:none;fill-rule:nonzero;fill:rgb(42.352941%,38.823529%,100%);fill-opacity:1;" d="M 265.691406 227.339844 L 265.691406 229.117188 L 267.46875 229.117188 L 267.46875 232.667969 L 265.691406 232.667969 L 265.691406 234.445312 L 270.128906 234.445312 L 270.128906 227.339844 Z M 265.691406 227.339844 "/>
<path style=" stroke:none;fill-rule:nonzero;fill:rgb(42.352941%,38.823529%,100%);fill-opacity:1;" d="M 286.984375 36.410156 L 291.421875 36.410156 L 291.421875 43.515625 L 286.984375 43.515625 Z M 286.984375 36.410156 "/>
<path style=" stroke:none;fill-rule:nonzero;fill:rgb(42.352941%,38.823529%,100%);fill-opacity:1;" d="M 286.984375 92.359375 L 291.421875 92.359375 L 291.421875 99.460938 L 286.984375 99.460938 Z M 286.984375 92.359375 "/>
<path style=" stroke:none;fill-rule:nonzero;fill:rgb(42.352941%,38.823529%,100%);fill-opacity:1;" d="M 286.984375 206.917969 L 293.195312 206.917969 L 293.195312 207.804688 L 286.984375 207.804688 Z M 286.984375 206.917969 "/>
<path style=" stroke:none;fill-rule:nonzero;fill:rgb(42.352941%,38.823529%,100%);fill-opacity:1;" d="M 286.984375 57.722656 L 286.984375 59.5 L 288.757812 59.5 L 288.757812 63.050781 L 286.984375 63.050781 L 286.984375 64.828125 L 291.417969 64.828125 L 291.417969 57.722656 Z M 286.984375 57.722656 "/>
<path style=" stroke:none;fill-rule:nonzero;fill:rgb(42.352941%,38.823529%,100%);fill-opacity:1;" d="M 286.984375 69.269531 L 286.984375 71.042969 L 288.757812 71.042969 L 288.757812 74.597656 L 286.984375 74.597656 L 286.984375 76.371094 L 291.417969 76.371094 L 291.417969 69.269531 Z M 286.984375 69.269531 "/>
<path style=" stroke:none;fill-rule:nonzero;fill:rgb(42.352941%,38.823529%,100%);fill-opacity:1;" d="M 286.984375 80.8125 L 286.984375 82.589844 L 288.757812 82.589844 L 288.757812 86.140625 L 286.984375 86.140625 L 286.984375 87.917969 L 291.417969 87.917969 L 291.417969 80.8125 Z M 286.984375 80.8125 "/>
<path style=" stroke:none;fill-rule:nonzero;fill:rgb(42.352941%,38.823529%,100%);fill-opacity:1;" d="M 286.984375 115.445312 L 291.421875 115.445312 L 291.421875 122.550781 L 286.984375 122.550781 Z M 286.984375 115.445312 "/>
<path style=" stroke:none;fill-rule:nonzero;fill:rgb(42.352941%,38.823529%,100%);fill-opacity:1;" d="M 286.984375 103.902344 L 286.984375 105.679688 L 288.757812 105.679688 L 288.757812 109.230469 L 286.984375 109.230469 L 286.984375 111.007812 L 291.417969 111.007812 L 291.417969 103.902344 Z M 286.984375 103.902344 "/>
<path style=" stroke:none;fill-rule:nonzero;fill:rgb(42.352941%,38.823529%,100%);fill-opacity:1;" d="M 286.984375 138.535156 L 291.421875 138.535156 L 291.421875 145.640625 L 286.984375 145.640625 Z M 286.984375 138.535156 "/>
<path style=" stroke:none;fill-rule:nonzero;fill:rgb(42.352941%,38.823529%,100%);fill-opacity:1;" d="M 286.984375 126.992188 L 286.984375 128.765625 L 288.757812 128.765625 L 288.757812 132.320312 L 286.984375 132.320312 L 286.984375 134.097656 L 291.417969 134.097656 L 291.417969 126.992188 Z M 286.984375 126.992188 "/>
<path style=" stroke:none;fill-rule:nonzero;fill:rgb(42.352941%,38.823529%,100%);fill-opacity:1;" d="M 286.984375 161.625 L 291.421875 161.625 L 291.421875 168.730469 L 286.984375 168.730469 Z M 286.984375 161.625 "/>
<path style=" stroke:none;fill-rule:nonzero;fill:rgb(42.352941%,38.823529%,100%);fill-opacity:1;" d="M 286.984375 150.082031 L 286.984375 151.855469 L 288.757812 151.855469 L 288.757812 155.410156 L 286.984375 155.410156 L 286.984375 157.183594 L 291.417969 157.183594 L 291.417969 150.082031 Z M 286.984375 150.082031 "/>
<path style=" stroke:none;fill-rule:nonzero;fill:rgb(42.352941%,38.823529%,100%);fill-opacity:1;" d="M 286.984375 184.714844 L 291.421875 184.714844 L 291.421875 191.820312 L 286.984375 191.820312 Z M 286.984375 184.714844 "/>
<path style=" stroke:none;fill-rule:nonzero;fill:rgb(42.352941%,38.823529%,100%);fill-opacity:1;" d="M 286.984375 214.910156 L 291.421875 214.910156 L 291.421875 222.011719 L 286.984375 222.011719 Z M 286.984375 214.910156 "/>
<path style=" stroke:none;fill-rule:nonzero;fill:rgb(42.352941%,38.823529%,100%);fill-opacity:1;" d="M 286.984375 173.171875 L 286.984375 174.945312 L 288.757812 174.945312 L 288.757812 178.5 L 286.984375 178.5 L 286.984375 180.273438 L 291.417969 180.273438 L 291.417969 173.171875 Z M 286.984375 173.171875 "/>
<path style=" stroke:none;fill-rule:nonzero;fill:rgb(42.352941%,38.823529%,100%);fill-opacity:1;" d="M 286.984375 227.339844 L 286.984375 229.117188 L 288.757812 229.117188 L 288.757812 232.667969 L 286.984375 232.667969 L 286.984375 234.445312 L 291.417969 234.445312 L 291.417969 227.339844 Z M 286.984375 227.339844 "/>
<path style=" stroke:none;fill-rule:nonzero;fill:rgb(42.352941%,38.823529%,100%);fill-opacity:1;" d="M 224.886719 214.910156 L 224.886719 216.683594 L 226.660156 216.683594 L 226.660156 220.238281 L 224.886719 220.238281 L 224.886719 222.011719 L 229.320312 222.011719 L 229.320312 214.910156 Z M 224.886719 214.910156 "/>
<path style=" stroke:none;fill-rule:nonzero;fill:rgb(42.352941%,38.823529%,100%);fill-opacity:1;" d="M 224.886719 226.453125 L 224.886719 228.230469 L 226.660156 228.230469 L 226.660156 231.78125 L 224.886719 231.78125 L 224.886719 233.558594 L 229.320312 233.558594 L 229.320312 226.453125 Z M 224.886719 226.453125 "/>
<path style=" stroke:none;fill-rule:nonzero;fill:rgb(42.352941%,38.823529%,100%);fill-opacity:1;" d="M 201.820312 92.359375 L 201.820312 94.132812 L 203.59375 94.132812 L 203.59375 97.6875 L 201.820312 97.6875 L 201.820312 99.460938 L 206.257812 99.460938 L 206.257812 92.359375 Z M 201.820312 92.359375 "/>
<path style=" stroke:none;fill-rule:nonzero;fill:rgb(42.352941%,38.823529%,100%);fill-opacity:1;" d="M 201.820312 137.648438 L 201.820312 139.425781 L 203.59375 139.425781 L 203.59375 142.976562 L 201.820312 142.976562 L 201.820312 144.753906 L 206.257812 144.753906 L 206.257812 137.648438 Z M 201.820312 137.648438 "/>
<path style=" stroke:none;fill-rule:nonzero;fill:rgb(42.352941%,38.823529%,100%);fill-opacity:1;" d="M 201.820312 149.191406 L 201.820312 150.96875 L 203.59375 150.96875 L 203.59375 154.523438 L 201.820312 154.523438 L 201.820312 156.296875 L 206.257812 156.296875 L 206.257812 149.191406 Z M 201.820312 149.191406 "/>
<path style=" stroke:none;fill-rule:nonzero;fill:rgb(42.352941%,38.823529%,100%);fill-opacity:1;" d="M 201.820312 172.28125 L 201.820312 174.058594 L 203.59375 174.058594 L 203.59375 177.609375 L 201.820312 177.609375 L 201.820312 179.386719 L 206.257812 179.386719 L 206.257812 172.28125 Z M 201.820312 172.28125 "/>
<path style=" stroke:none;fill-rule:nonzero;fill:rgb(42.352941%,38.823529%,100%);fill-opacity:1;" d="M 201.820312 205.140625 L 201.820312 206.917969 L 203.59375 206.917969 L 203.59375 210.46875 L 201.820312 210.46875 L 201.820312 212.246094 L 206.257812 212.246094 L 206.257812 205.140625 Z M 201.820312 205.140625 "/>
<path style=" stroke:none;fill-rule:nonzero;fill:rgb(42.352941%,38.823529%,100%);fill-opacity:1;" d="M 201.820312 214.910156 L 201.820312 216.683594 L 203.59375 216.683594 L 203.59375 220.238281 L 201.820312 220.238281 L 201.820312 222.011719 L 206.257812 222.011719 L 206.257812 214.910156 Z M 201.820312 214.910156 "/>
<path style=" stroke:none;fill-rule:nonzero;fill:rgb(42.352941%,38.823529%,100%);fill-opacity:1;" d="M 247.949219 38.1875 L 252.386719 38.1875 L 252.386719 45.289062 L 247.949219 45.289062 Z M 247.949219 38.1875 "/>
<path style=" stroke:none;fill-rule:nonzero;fill:rgb(42.352941%,38.823529%,100%);fill-opacity:1;" d="M 247.949219 49.730469 L 252.386719 49.730469 L 252.386719 56.835938 L 247.949219 56.835938 Z M 247.949219 49.730469 "/>
<path style=" stroke:none;fill-rule:nonzero;fill:rgb(42.352941%,38.823529%,100%);fill-opacity:1;" d="M 246.175781 62.164062 L 252.386719 62.164062 L 252.386719 63.050781 L 246.175781 63.050781 Z M 246.175781 62.164062 "/>
<path style=" stroke:none;fill-rule:nonzero;fill:rgb(42.352941%,38.823529%,100%);fill-opacity:1;" d="M 246.175781 119 L 252.386719 119 L 252.386719 119.886719 L 246.175781 119.886719 Z M 246.175781 119 "/>
<path style=" stroke:none;fill-rule:nonzero;fill:rgb(42.352941%,38.823529%,100%);fill-opacity:1;" d="M 246.175781 128.769531 L 252.386719 128.769531 L 252.386719 129.65625 L 246.175781 129.65625 Z M 246.175781 128.769531 "/>
<path style=" stroke:none;fill-rule:nonzero;fill:rgb(42.352941%,38.823529%,100%);fill-opacity:1;" d="M 247.949219 70.15625 L 247.949219 71.933594 L 249.726562 71.933594 L 249.726562 75.484375 L 247.949219 75.484375 L 247.949219 77.261719 L 252.386719 77.261719 L 252.386719 70.15625 Z M 247.949219 70.15625 "/>
<path style=" stroke:none;fill-rule:nonzero;fill:rgb(42.352941%,38.823529%,100%);fill-opacity:1;" d="M 247.949219 92.359375 L 247.949219 94.132812 L 249.726562 94.132812 L 249.726562 97.6875 L 247.949219 97.6875 L 247.949219 99.460938 L 252.386719 99.460938 L 252.386719 92.359375 Z M 247.949219 92.359375 "/>
<path style=" stroke:none;fill-rule:nonzero;fill:rgb(42.352941%,38.823529%,100%);fill-opacity:1;" d="M 247.949219 137.648438 L 247.949219 139.425781 L 249.726562 139.425781 L 249.726562 142.976562 L 247.949219 142.976562 L 247.949219 144.753906 L 252.386719 144.753906 L 252.386719 137.648438 Z M 247.949219 137.648438 "/>
<path style=" stroke:none;fill-rule:nonzero;fill:rgb(42.352941%,38.823529%,100%);fill-opacity:1;" d="M 298.515625 115.445312 L 302.953125 115.445312 L 302.953125 122.550781 L 298.515625 122.550781 Z M 298.515625 115.445312 "/>
<path style=" stroke:none;fill-rule:nonzero;fill:rgb(42.352941%,38.823529%,100%);fill-opacity:1;" d="M 298.515625 126.992188 L 302.953125 126.992188 L 302.953125 134.097656 L 298.515625 134.097656 Z M 298.515625 126.992188 "/>
<path style=" stroke:none;fill-rule:nonzero;fill:rgb(42.352941%,38.823529%,100%);fill-opacity:1;" d="M 296.742188 139.425781 L 302.953125 139.425781 L 302.953125 140.3125 L 296.742188 140.3125 Z M 296.742188 139.425781 "/>
<path style=" stroke:none;fill-rule:nonzero;fill:rgb(42.352941%,38.823529%,100%);fill-opacity:1;" d="M 296.742188 196.257812 L 302.953125 196.257812 L 302.953125 197.148438 L 296.742188 197.148438 Z M 296.742188 196.257812 "/>
<path style=" stroke:none;fill-rule:nonzero;fill:rgb(42.352941%,38.823529%,100%);fill-opacity:1;" d="M 296.742188 206.027344 L 302.953125 206.027344 L 302.953125 206.917969 L 296.742188 206.917969 Z M 296.742188 206.027344 "/>
<path style=" stroke:none;fill-rule:nonzero;fill:rgb(42.352941%,38.823529%,100%);fill-opacity:1;" d="M 298.515625 147.417969 L 298.515625 149.191406 L 300.292969 149.191406 L 300.292969 152.746094 L 298.515625 152.746094 L 298.515625 154.523438 L 302.953125 154.523438 L 302.953125 147.417969 Z M 298.515625 147.417969 "/>
<path style=" stroke:none;fill-rule:nonzero;fill:rgb(42.352941%,38.823529%,100%);fill-opacity:1;" d="M 298.515625 169.617188 L 298.515625 171.394531 L 300.292969 171.394531 L 300.292969 174.945312 L 298.515625 174.945312 L 298.515625 176.722656 L 302.953125 176.722656 L 302.953125 169.617188 Z M 298.515625 169.617188 "/>
<path style=" stroke:none;fill-rule:nonzero;fill:rgb(42.352941%,38.823529%,100%);fill-opacity:1;" d="M 298.515625 214.910156 L 298.515625 216.683594 L 300.292969 216.683594 L 300.292969 220.238281 L 298.515625 220.238281 L 298.515625 222.011719 L 302.953125 222.011719 L 302.953125 214.910156 Z M 298.515625 214.910156 "/>
<path style=" stroke:none;fill-rule:nonzero;fill:rgb(42.352941%,38.823529%,100%);fill-opacity:1;" d="M 312.710938 38.1875 L 317.148438 38.1875 L 317.148438 45.289062 L 312.710938 45.289062 Z M 312.710938 38.1875 "/>
<path style=" stroke:none;fill-rule:nonzero;fill:rgb(42.352941%,38.823529%,100%);fill-opacity:1;" d="M 327.792969 36.410156 L 332.226562 36.410156 L 332.226562 43.515625 L 327.792969 43.515625 Z M 327.792969 36.410156 "/>
<path style=" stroke:none;fill-rule:nonzero;fill:rgb(42.352941%,38.823529%,100%);fill-opacity:1;" d="M 335.777344 36.410156 L 340.210938 36.410156 L 340.210938 43.515625 L 335.777344 43.515625 Z M 335.777344 36.410156 "/>
<path style=" stroke:none;fill-rule:nonzero;fill:rgb(42.352941%,38.823529%,100%);fill-opacity:1;" d="M 335.777344 57.722656 L 340.210938 57.722656 L 340.210938 64.828125 L 335.777344 64.828125 Z M 335.777344 57.722656 "/>
<path style=" stroke:none;fill-rule:nonzero;fill:rgb(42.352941%,38.823529%,100%);fill-opacity:1;" d="M 344.648438 47.066406 L 349.082031 47.066406 L 349.082031 54.171875 L 344.648438 54.171875 Z M 344.648438 47.066406 "/>
<path style=" stroke:none;fill-rule:nonzero;fill:rgb(42.352941%,38.823529%,100%);fill-opacity:1;" d="M 344.648438 58.613281 L 349.082031 58.613281 L 349.082031 65.714844 L 344.648438 65.714844 Z M 344.648438 58.613281 "/>
<path style=" stroke:none;fill-rule:nonzero;fill:rgb(42.352941%,38.823529%,100%);fill-opacity:1;" d="M 335.777344 80.8125 L 340.210938 80.8125 L 340.210938 87.917969 L 335.777344 87.917969 Z M 335.777344 80.8125 "/>
<path style=" stroke:none;fill-rule:nonzero;fill:rgb(42.352941%,38.823529%,100%);fill-opacity:1;" d="M 344.648438 92.359375 L 349.082031 92.359375 L 349.082031 99.460938 L 344.648438 99.460938 Z M 344.648438 92.359375 "/>
<path style=" stroke:none;fill-rule:nonzero;fill:rgb(42.352941%,38.823529%,100%);fill-opacity:1;" d="M 335.777344 135.871094 L 340.210938 135.871094 L 340.210938 142.976562 L 335.777344 142.976562 Z M 335.777344 135.871094 "/>
<path style=" stroke:none;fill-rule:nonzero;fill:rgb(42.352941%,38.823529%,100%);fill-opacity:1;" d="M 327.792969 92.359375 L 332.226562 92.359375 L 332.226562 99.460938 L 327.792969 99.460938 Z M 327.792969 92.359375 "/>
<path style=" stroke:none;fill-rule:nonzero;fill:rgb(42.352941%,38.823529%,100%);fill-opacity:1;" d="M 312.710938 49.730469 L 317.148438 49.730469 L 317.148438 56.835938 L 312.710938 56.835938 Z M 312.710938 49.730469 "/>
<path style=" stroke:none;fill-rule:nonzero;fill:rgb(42.352941%,38.823529%,100%);fill-opacity:1;" d="M 312.710938 160.738281 L 317.148438 160.738281 L 317.148438 167.84375 L 312.710938 167.84375 Z M 312.710938 160.738281 "/>
<path style=" stroke:none;fill-rule:nonzero;fill:rgb(42.352941%,38.823529%,100%);fill-opacity:1;" d="M 312.710938 183.828125 L 317.148438 183.828125 L 317.148438 190.929688 L 312.710938 190.929688 Z M 312.710938 183.828125 "/>
<path style=" stroke:none;fill-rule:nonzero;fill:rgb(42.352941%,38.823529%,100%);fill-opacity:1;" d="M 312.710938 195.371094 L 317.148438 195.371094 L 317.148438 202.476562 L 312.710938 202.476562 Z M 312.710938 195.371094 "/>
<path style=" stroke:none;fill-rule:nonzero;fill:rgb(42.352941%,38.823529%,100%);fill-opacity:1;" d="M 310.9375 62.164062 L 317.148438 62.164062 L 317.148438 63.050781 L 310.9375 63.050781 Z M 310.9375 62.164062 "/>
<path style=" stroke:none;fill-rule:nonzero;fill:rgb(42.352941%,38.823529%,100%);fill-opacity:1;" d="M 334.890625 72.820312 L 341.097656 72.820312 L 341.097656 73.707031 L 334.890625 73.707031 Z M 334.890625 72.820312 "/>
<path style=" stroke:none;fill-rule:nonzero;fill:rgb(42.352941%,38.823529%,100%);fill-opacity:1;" d="M 310.9375 119 L 317.148438 119 L 317.148438 119.886719 L 310.9375 119.886719 Z M 310.9375 119 "/>
<path style=" stroke:none;fill-rule:nonzero;fill:rgb(42.352941%,38.823529%,100%);fill-opacity:1;" d="M 310.9375 128.769531 L 317.148438 128.769531 L 317.148438 129.65625 L 310.9375 129.65625 Z M 310.9375 128.769531 "/>
<path style=" stroke:none;fill-rule:nonzero;fill:rgb(42.352941%,38.823529%,100%);fill-opacity:1;" d="M 334.890625 185.601562 L 341.097656 185.601562 L 341.097656 186.492188 L 334.890625 186.492188 Z M 334.890625 185.601562 "/>
<path style=" stroke:none;fill-rule:nonzero;fill:rgb(42.352941%,38.823529%,100%);fill-opacity:1;" d="M 327.792969 206.917969 L 334.003906 206.917969 L 334.003906 207.804688 L 327.792969 207.804688 Z M 327.792969 206.917969 "/>
<path style=" stroke:none;fill-rule:nonzero;fill:rgb(42.352941%,38.823529%,100%);fill-opacity:1;" d="M 312.710938 70.15625 L 312.710938 71.933594 L 314.484375 71.933594 L 314.484375 75.484375 L 312.710938 75.484375 L 312.710938 77.261719 L 317.148438 77.261719 L 317.148438 70.15625 Z M 312.710938 70.15625 "/>
<path style=" stroke:none;fill-rule:nonzero;fill:rgb(42.352941%,38.823529%,100%);fill-opacity:1;" d="M 327.792969 57.722656 L 327.792969 59.5 L 329.566406 59.5 L 329.566406 63.050781 L 327.792969 63.050781 L 327.792969 64.828125 L 332.226562 64.828125 L 332.226562 57.722656 Z M 327.792969 57.722656 "/>
<path style=" stroke:none;fill-rule:nonzero;fill:rgb(42.352941%,38.823529%,100%);fill-opacity:1;" d="M 344.648438 69.269531 L 344.648438 71.042969 L 346.421875 71.042969 L 346.421875 74.597656 L 344.648438 74.597656 L 344.648438 76.371094 L 349.082031 76.371094 L 349.082031 69.269531 Z M 344.648438 69.269531 "/>
<path style=" stroke:none;fill-rule:nonzero;fill:rgb(42.352941%,38.823529%,100%);fill-opacity:1;" d="M 344.648438 103.902344 L 344.648438 105.679688 L 346.421875 105.679688 L 346.421875 109.230469 L 344.648438 109.230469 L 344.648438 111.007812 L 349.082031 111.007812 L 349.082031 103.902344 Z M 344.648438 103.902344 "/>
<path style=" stroke:none;fill-rule:nonzero;fill:rgb(42.352941%,38.823529%,100%);fill-opacity:1;" d="M 344.648438 115.445312 L 344.648438 117.222656 L 346.421875 117.222656 L 346.421875 120.777344 L 344.648438 120.777344 L 344.648438 122.550781 L 349.082031 122.550781 L 349.082031 115.445312 Z M 344.648438 115.445312 "/>
<path style=" stroke:none;fill-rule:nonzero;fill:rgb(42.352941%,38.823529%,100%);fill-opacity:1;" d="M 344.648438 79.925781 L 344.648438 81.699219 L 346.421875 81.699219 L 346.421875 85.253906 L 344.648438 85.253906 L 344.648438 87.03125 L 349.082031 87.03125 L 349.082031 79.925781 Z M 344.648438 79.925781 "/>
<path style=" stroke:none;fill-rule:nonzero;fill:rgb(42.352941%,38.823529%,100%);fill-opacity:1;" d="M 335.777344 47.066406 L 335.777344 48.84375 L 337.550781 48.84375 L 337.550781 52.394531 L 335.777344 52.394531 L 335.777344 54.171875 L 340.210938 54.171875 L 340.210938 47.066406 Z M 335.777344 47.066406 "/>
<path style=" stroke:none;fill-rule:nonzero;fill:rgb(42.352941%,38.823529%,100%);fill-opacity:1;" d="M 335.777344 103.902344 L 340.210938 103.902344 L 340.210938 111.007812 L 335.777344 111.007812 Z M 335.777344 103.902344 "/>
<path style=" stroke:none;fill-rule:nonzero;fill:rgb(42.352941%,38.823529%,100%);fill-opacity:1;" d="M 335.777344 125.214844 L 340.210938 125.214844 L 340.210938 132.320312 L 335.777344 132.320312 Z M 335.777344 125.214844 "/>
<path style=" stroke:none;fill-rule:nonzero;fill:rgb(42.352941%,38.823529%,100%);fill-opacity:1;" d="M 335.777344 114.558594 L 335.777344 116.335938 L 337.550781 116.335938 L 337.550781 119.886719 L 335.777344 119.886719 L 335.777344 121.664062 L 340.210938 121.664062 L 340.210938 114.558594 Z M 335.777344 114.558594 "/>
<path style=" stroke:none;fill-rule:nonzero;fill:rgb(42.352941%,38.823529%,100%);fill-opacity:1;" d="M 327.792969 69.269531 L 327.792969 71.042969 L 329.566406 71.042969 L 329.566406 74.597656 L 327.792969 74.597656 L 327.792969 76.371094 L 332.226562 76.371094 L 332.226562 69.269531 Z M 327.792969 69.269531 "/>
<path style=" stroke:none;fill-rule:nonzero;fill:rgb(42.352941%,38.823529%,100%);fill-opacity:1;" d="M 327.792969 80.8125 L 327.792969 82.589844 L 329.566406 82.589844 L 329.566406 86.140625 L 327.792969 86.140625 L 327.792969 87.917969 L 332.226562 87.917969 L 332.226562 80.8125 Z M 327.792969 80.8125 "/>
<path style=" stroke:none;fill-rule:nonzero;fill:rgb(42.352941%,38.823529%,100%);fill-opacity:1;" d="M 327.792969 115.445312 L 332.226562 115.445312 L 332.226562 122.550781 L 327.792969 122.550781 Z M 327.792969 115.445312 "/>
<path style=" stroke:none;fill-rule:nonzero;fill:rgb(42.352941%,38.823529%,100%);fill-opacity:1;" d="M 327.792969 103.902344 L 327.792969 105.679688 L 329.566406 105.679688 L 329.566406 109.230469 L 327.792969 109.230469 L 327.792969 111.007812 L 332.226562 111.007812 L 332.226562 103.902344 Z M 327.792969 103.902344 "/>
<path style=" stroke:none;fill-rule:nonzero;fill:rgb(42.352941%,38.823529%,100%);fill-opacity:1;" d="M 327.792969 138.535156 L 332.226562 138.535156 L 332.226562 145.640625 L 327.792969 145.640625 Z M 327.792969 138.535156 "/>
<path style=" stroke:none;fill-rule:nonzero;fill:rgb(42.352941%,38.823529%,100%);fill-opacity:1;" d="M 327.792969 126.992188 L 327.792969 128.765625 L 329.566406 128.765625 L 329.566406 132.320312 L 327.792969 132.320312 L 327.792969 134.097656 L 332.226562 134.097656 L 332.226562 126.992188 Z M 327.792969 126.992188 "/>
<path style=" stroke:none;fill-rule:nonzero;fill:rgb(42.352941%,38.823529%,100%);fill-opacity:1;" d="M 327.792969 161.625 L 332.226562 161.625 L 332.226562 168.730469 L 327.792969 168.730469 Z M 327.792969 161.625 "/>
<path style=" stroke:none;fill-rule:nonzero;fill:rgb(42.352941%,38.823529%,100%);fill-opacity:1;" d="M 335.777344 159.847656 L 340.210938 159.847656 L 340.210938 166.953125 L 335.777344 166.953125 Z M 335.777344 159.847656 "/>
<path style=" stroke:none;fill-rule:nonzero;fill:rgb(42.352941%,38.823529%,100%);fill-opacity:1;" d="M 327.792969 150.082031 L 327.792969 151.855469 L 329.566406 151.855469 L 329.566406 155.410156 L 327.792969 155.410156 L 327.792969 157.183594 L 332.226562 157.183594 L 332.226562 150.082031 Z M 327.792969 150.082031 "/>
<path style=" stroke:none;fill-rule:nonzero;fill:rgb(42.352941%,38.823529%,100%);fill-opacity:1;" d="M 344.648438 150.082031 L 344.648438 151.855469 L 346.421875 151.855469 L 346.421875 155.410156 L 344.648438 155.410156 L 344.648438 157.183594 L 349.082031 157.183594 L 349.082031 150.082031 Z M 344.648438 150.082031 "/>
<path style=" stroke:none;fill-rule:nonzero;fill:rgb(42.352941%,38.823529%,100%);fill-opacity:1;" d="M 389.890625 47.066406 L 394.328125 47.066406 L 394.328125 54.171875 L 389.890625 54.171875 Z M 389.890625 47.066406 "/>
<path style=" stroke:none;fill-rule:nonzero;fill:rgb(42.352941%,38.823529%,100%);fill-opacity:1;" d="M 389.890625 58.613281 L 394.328125 58.613281 L 394.328125 65.714844 L 389.890625 65.714844 Z M 389.890625 58.613281 "/>
<path style=" stroke:none;fill-rule:nonzero;fill:rgb(42.352941%,38.823529%,100%);fill-opacity:1;" d="M 389.890625 92.359375 L 394.328125 92.359375 L 394.328125 99.460938 L 389.890625 99.460938 Z M 389.890625 92.359375 "/>
<path style=" stroke:none;fill-rule:nonzero;fill:rgb(42.352941%,38.823529%,100%);fill-opacity:1;" d="M 389.890625 69.269531 L 389.890625 71.042969 L 391.664062 71.042969 L 391.664062 74.597656 L 389.890625 74.597656 L 389.890625 76.371094 L 394.328125 76.371094 L 394.328125 69.269531 Z M 389.890625 69.269531 "/>
<path style=" stroke:none;fill-rule:nonzero;fill:rgb(42.352941%,38.823529%,100%);fill-opacity:1;" d="M 389.890625 103.902344 L 389.890625 105.679688 L 391.664062 105.679688 L 391.664062 109.230469 L 389.890625 109.230469 L 389.890625 111.007812 L 394.328125 111.007812 L 394.328125 103.902344 Z M 389.890625 103.902344 "/>
<path style=" stroke:none;fill-rule:nonzero;fill:rgb(42.352941%,38.823529%,100%);fill-opacity:1;" d="M 389.890625 115.445312 L 389.890625 117.222656 L 391.664062 117.222656 L 391.664062 120.777344 L 389.890625 120.777344 L 389.890625 122.550781 L 394.328125 122.550781 L 394.328125 115.445312 Z M 389.890625 115.445312 "/>
<path style=" stroke:none;fill-rule:nonzero;fill:rgb(42.352941%,38.823529%,100%);fill-opacity:1;" d="M 389.890625 79.925781 L 389.890625 81.699219 L 391.664062 81.699219 L 391.664062 85.253906 L 389.890625 85.253906 L 389.890625 87.03125 L 394.328125 87.03125 L 394.328125 79.925781 Z M 389.890625 79.925781 "/>
<path style=" stroke:none;fill-rule:nonzero;fill:rgb(42.352941%,38.823529%,100%);fill-opacity:1;" d="M 389.890625 150.082031 L 389.890625 151.855469 L 391.664062 151.855469 L 391.664062 155.410156 L 389.890625 155.410156 L 389.890625 157.183594 L 394.328125 157.183594 L 394.328125 150.082031 Z M 389.890625 150.082031 "/>
<path style=" stroke:none;fill-rule:nonzero;fill:rgb(42.352941%,38.823529%,100%);fill-opacity:1;" d="M 327.792969 184.714844 L 332.226562 184.714844 L 332.226562 191.820312 L 327.792969 191.820312 Z M 327.792969 184.714844 "/>
<path style=" stroke:none;fill-rule:nonzero;fill:rgb(42.352941%,38.823529%,100%);fill-opacity:1;" d="M 335.777344 171.394531 L 340.210938 171.394531 L 340.210938 178.5 L 335.777344 178.5 Z M 335.777344 171.394531 "/>
<path style=" stroke:none;fill-rule:nonzero;fill:rgb(42.352941%,38.823529%,100%);fill-opacity:1;" d="M 327.792969 214.910156 L 332.226562 214.910156 L 332.226562 222.011719 L 327.792969 222.011719 Z M 327.792969 214.910156 "/>
<path style=" stroke:none;fill-rule:nonzero;fill:rgb(42.352941%,38.823529%,100%);fill-opacity:1;" d="M 335.777344 193.59375 L 340.210938 193.59375 L 340.210938 200.699219 L 335.777344 200.699219 Z M 335.777344 193.59375 "/>
<path style=" stroke:none;fill-rule:nonzero;fill:rgb(42.352941%,38.823529%,100%);fill-opacity:1;" d="M 327.792969 173.171875 L 327.792969 174.945312 L 329.566406 174.945312 L 329.566406 178.5 L 327.792969 178.5 L 327.792969 180.273438 L 332.226562 180.273438 L 332.226562 173.171875 Z M 327.792969 173.171875 "/>
<path style=" stroke:none;fill-rule:nonzero;fill:rgb(42.352941%,38.823529%,100%);fill-opacity:1;" d="M 327.792969 227.339844 L 327.792969 229.117188 L 329.566406 229.117188 L 329.566406 232.667969 L 327.792969 232.667969 L 327.792969 234.445312 L 332.226562 234.445312 L 332.226562 227.339844 Z M 327.792969 227.339844 "/>
<path style=" stroke:none;fill-rule:nonzero;fill:rgb(42.352941%,38.823529%,100%);fill-opacity:1;" d="M 376.582031 36.410156 L 381.019531 36.410156 L 381.019531 43.515625 L 376.582031 43.515625 Z M 376.582031 36.410156 "/>
<path style=" stroke:none;fill-rule:nonzero;fill:rgb(42.352941%,38.823529%,100%);fill-opacity:1;" d="M 376.582031 92.359375 L 381.019531 92.359375 L 381.019531 99.460938 L 376.582031 99.460938 Z M 376.582031 92.359375 "/>
<path style=" stroke:none;fill-rule:nonzero;fill:rgb(42.352941%,38.823529%,100%);fill-opacity:1;" d="M 376.582031 206.917969 L 382.792969 206.917969 L 382.792969 207.804688 L 376.582031 207.804688 Z M 376.582031 206.917969 "/>
<path style=" stroke:none;fill-rule:nonzero;fill:rgb(42.352941%,38.823529%,100%);fill-opacity:1;" d="M 376.585938 57.722656 L 376.585938 59.5 L 378.359375 59.5 L 378.359375 63.050781 L 376.585938 63.050781 L 376.585938 64.828125 L 381.019531 64.828125 L 381.019531 57.722656 Z M 376.585938 57.722656 "/>
<path style=" stroke:none;fill-rule:nonzero;fill:rgb(42.352941%,38.823529%,100%);fill-opacity:1;" d="M 376.585938 69.269531 L 376.585938 71.042969 L 378.359375 71.042969 L 378.359375 74.597656 L 376.585938 74.597656 L 376.585938 76.371094 L 381.019531 76.371094 L 381.019531 69.269531 Z M 376.585938 69.269531 "/>
<path style=" stroke:none;fill-rule:nonzero;fill:rgb(42.352941%,38.823529%,100%);fill-opacity:1;" d="M 376.585938 80.8125 L 376.585938 82.589844 L 378.359375 82.589844 L 378.359375 86.140625 L 376.585938 86.140625 L 376.585938 87.917969 L 381.019531 87.917969 L 381.019531 80.8125 Z M 376.585938 80.8125 "/>
<path style=" stroke:none;fill-rule:nonzero;fill:rgb(42.352941%,38.823529%,100%);fill-opacity:1;" d="M 376.582031 115.445312 L 381.019531 115.445312 L 381.019531 122.550781 L 376.582031 122.550781 Z M 376.582031 115.445312 "/>
<path style=" stroke:none;fill-rule:nonzero;fill:rgb(42.352941%,38.823529%,100%);fill-opacity:1;" d="M 376.585938 103.902344 L 376.585938 105.679688 L 378.359375 105.679688 L 378.359375 109.230469 L 376.585938 109.230469 L 376.585938 111.007812 L 381.019531 111.007812 L 381.019531 103.902344 Z M 376.585938 103.902344 "/>
<path style=" stroke:none;fill-rule:nonzero;fill:rgb(42.352941%,38.823529%,100%);fill-opacity:1;" d="M 376.582031 138.535156 L 381.019531 138.535156 L 381.019531 145.640625 L 376.582031 145.640625 Z M 376.582031 138.535156 "/>
<path style=" stroke:none;fill-rule:nonzero;fill:rgb(42.352941%,38.823529%,100%);fill-opacity:1;" d="M 376.585938 126.992188 L 376.585938 128.765625 L 378.359375 128.765625 L 378.359375 132.320312 L 376.585938 132.320312 L 376.585938 134.097656 L 381.019531 134.097656 L 381.019531 126.992188 Z M 376.585938 126.992188 "/>
<path style=" stroke:none;fill-rule:nonzero;fill:rgb(42.352941%,38.823529%,100%);fill-opacity:1;" d="M 376.582031 161.625 L 381.019531 161.625 L 381.019531 168.730469 L 376.582031 168.730469 Z M 376.582031 161.625 "/>
<path style=" stroke:none;fill-rule:nonzero;fill:rgb(42.352941%,38.823529%,100%);fill-opacity:1;" d="M 376.585938 150.082031 L 376.585938 151.855469 L 378.359375 151.855469 L 378.359375 155.410156 L 376.585938 155.410156 L 376.585938 157.183594 L 381.019531 157.183594 L 381.019531 150.082031 Z M 376.585938 150.082031 "/>
<path style=" stroke:none;fill-rule:nonzero;fill:rgb(42.352941%,38.823529%,100%);fill-opacity:1;" d="M 376.582031 184.714844 L 381.019531 184.714844 L 381.019531 191.820312 L 376.582031 191.820312 Z M 376.582031 184.714844 "/>
<path style=" stroke:none;fill-rule:nonzero;fill:rgb(42.352941%,38.823529%,100%);fill-opacity:1;" d="M 376.582031 214.910156 L 381.019531 214.910156 L 381.019531 222.011719 L 376.582031 222.011719 Z M 376.582031 214.910156 "/>
<path style=" stroke:none;fill-rule:nonzero;fill:rgb(42.352941%,38.823529%,100%);fill-opacity:1;" d="M 376.585938 173.171875 L 376.585938 174.945312 L 378.359375 174.945312 L 378.359375 178.5 L 376.585938 178.5 L 376.585938 180.273438 L 381.019531 180.273438 L 381.019531 173.171875 Z M 376.585938 173.171875 "/>
<path style=" stroke:none;fill-rule:nonzero;fill:rgb(42.352941%,38.823529%,100%);fill-opacity:1;" d="M 376.585938 227.339844 L 376.585938 229.117188 L 378.359375 229.117188 L 378.359375 232.667969 L 376.585938 232.667969 L 376.585938 234.445312 L 381.019531 234.445312 L 381.019531 227.339844 Z M 376.585938 227.339844 "/>
<path style=" stroke:none;fill-rule:nonzero;fill:rgb(42.352941%,38.823529%,100%);fill-opacity:1;" d="M 397.875 36.410156 L 402.308594 36.410156 L 402.308594 43.515625 L 397.875 43.515625 Z M 397.875 36.410156 "/>
<path style=" stroke:none;fill-rule:nonzero;fill:rgb(42.352941%,38.823529%,100%);fill-opacity:1;" d="M 397.875 92.359375 L 402.308594 92.359375 L 402.308594 99.460938 L 397.875 99.460938 Z M 397.875 92.359375 "/>
<path style=" stroke:none;fill-rule:nonzero;fill:rgb(42.352941%,38.823529%,100%);fill-opacity:1;" d="M 397.875 206.917969 L 404.085938 206.917969 L 404.085938 207.804688 L 397.875 207.804688 Z M 397.875 206.917969 "/>
<path style=" stroke:none;fill-rule:nonzero;fill:rgb(42.352941%,38.823529%,100%);fill-opacity:1;" d="M 397.875 57.722656 L 397.875 59.5 L 399.648438 59.5 L 399.648438 63.050781 L 397.875 63.050781 L 397.875 64.828125 L 402.3125 64.828125 L 402.3125 57.722656 Z M 397.875 57.722656 "/>
<path style=" stroke:none;fill-rule:nonzero;fill:rgb(42.352941%,38.823529%,100%);fill-opacity:1;" d="M 397.875 69.269531 L 397.875 71.042969 L 399.648438 71.042969 L 399.648438 74.597656 L 397.875 74.597656 L 397.875 76.371094 L 402.3125 76.371094 L 402.3125 69.269531 Z M 397.875 69.269531 "/>
<path style=" stroke:none;fill-rule:nonzero;fill:rgb(42.352941%,38.823529%,100%);fill-opacity:1;" d="M 397.875 80.8125 L 397.875 82.589844 L 399.648438 82.589844 L 399.648438 86.140625 L 397.875 86.140625 L 397.875 87.917969 L 402.3125 87.917969 L 402.3125 80.8125 Z M 397.875 80.8125 "/>
<path style=" stroke:none;fill-rule:nonzero;fill:rgb(42.352941%,38.823529%,100%);fill-opacity:1;" d="M 397.875 115.445312 L 402.308594 115.445312 L 402.308594 122.550781 L 397.875 122.550781 Z M 397.875 115.445312 "/>
<path style=" stroke:none;fill-rule:nonzero;fill:rgb(42.352941%,38.823529%,100%);fill-opacity:1;" d="M 397.875 103.902344 L 397.875 105.679688 L 399.648438 105.679688 L 399.648438 109.230469 L 397.875 109.230469 L 397.875 111.007812 L 402.3125 111.007812 L 402.3125 103.902344 Z M 397.875 103.902344 "/>
<path style=" stroke:none;fill-rule:nonzero;fill:rgb(42.352941%,38.823529%,100%);fill-opacity:1;" d="M 397.875 138.535156 L 402.308594 138.535156 L 402.308594 145.640625 L 397.875 145.640625 Z M 397.875 138.535156 "/>
<path style=" stroke:none;fill-rule:nonzero;fill:rgb(42.352941%,38.823529%,100%);fill-opacity:1;" d="M 397.875 126.992188 L 397.875 128.765625 L 399.648438 128.765625 L 399.648438 132.320312 L 397.875 132.320312 L 397.875 134.097656 L 402.3125 134.097656 L 402.3125 126.992188 Z M 397.875 126.992188 "/>
<path style=" stroke:none;fill-rule:nonzero;fill:rgb(42.352941%,38.823529%,100%);fill-opacity:1;" d="M 397.875 161.625 L 402.308594 161.625 L 402.308594 168.730469 L 397.875 168.730469 Z M 397.875 161.625 "/>
<path style=" stroke:none;fill-rule:nonzero;fill:rgb(42.352941%,38.823529%,100%);fill-opacity:1;" d="M 397.875 150.082031 L 397.875 151.855469 L 399.648438 151.855469 L 399.648438 155.410156 L 397.875 155.410156 L 397.875 157.183594 L 402.3125 157.183594 L 402.3125 150.082031 Z M 397.875 150.082031 "/>
<path style=" stroke:none;fill-rule:nonzero;fill:rgb(42.352941%,38.823529%,100%);fill-opacity:1;" d="M 397.875 184.714844 L 402.308594 184.714844 L 402.308594 191.820312 L 397.875 191.820312 Z M 397.875 184.714844 "/>
<path style=" stroke:none;fill-rule:nonzero;fill:rgb(42.352941%,38.823529%,100%);fill-opacity:1;" d="M 397.875 214.910156 L 402.308594 214.910156 L 402.308594 222.011719 L 397.875 222.011719 Z M 397.875 214.910156 "/>
<path style=" stroke:none;fill-rule:nonzero;fill:rgb(42.352941%,38.823529%,100%);fill-opacity:1;" d="M 397.875 173.171875 L 397.875 174.945312 L 399.648438 174.945312 L 399.648438 178.5 L 397.875 178.5 L 397.875 180.273438 L 402.3125 180.273438 L 402.3125 173.171875 Z M 397.875 173.171875 "/>
<path style=" stroke:none;fill-rule:nonzero;fill:rgb(42.352941%,38.823529%,100%);fill-opacity:1;" d="M 397.875 227.339844 L 397.875 229.117188 L 399.648438 229.117188 L 399.648438 232.667969 L 397.875 232.667969 L 397.875 234.445312 L 402.3125 234.445312 L 402.3125 227.339844 Z M 397.875 227.339844 "/>
<path style=" stroke:none;fill-rule:nonzero;fill:rgb(42.352941%,38.823529%,100%);fill-opacity:1;" d="M 335.777344 214.910156 L 335.777344 216.683594 L 337.550781 216.683594 L 337.550781 220.238281 L 335.777344 220.238281 L 335.777344 222.011719 L 340.210938 222.011719 L 340.210938 214.910156 Z M 335.777344 214.910156 "/>
<path style=" stroke:none;fill-rule:nonzero;fill:rgb(42.352941%,38.823529%,100%);fill-opacity:1;" d="M 335.777344 226.453125 L 335.777344 228.230469 L 337.550781 228.230469 L 337.550781 231.78125 L 335.777344 231.78125 L 335.777344 233.558594 L 340.210938 233.558594 L 340.210938 226.453125 Z M 335.777344 226.453125 "/>
<path style=" stroke:none;fill-rule:nonzero;fill:rgb(42.352941%,38.823529%,100%);fill-opacity:1;" d="M 312.710938 92.359375 L 312.710938 94.132812 L 314.484375 94.132812 L 314.484375 97.6875 L 312.710938 97.6875 L 312.710938 99.460938 L 317.148438 99.460938 L 317.148438 92.359375 Z M 312.710938 92.359375 "/>
<path style=" stroke:none;fill-rule:nonzero;fill:rgb(42.352941%,38.823529%,100%);fill-opacity:1;" d="M 312.710938 137.648438 L 312.710938 139.425781 L 314.484375 139.425781 L 314.484375 142.976562 L 312.710938 142.976562 L 312.710938 144.753906 L 317.148438 144.753906 L 317.148438 137.648438 Z M 312.710938 137.648438 "/>
<path style=" stroke:none;fill-rule:nonzero;fill:rgb(42.352941%,38.823529%,100%);fill-opacity:1;" d="M 312.710938 149.191406 L 312.710938 150.96875 L 314.484375 150.96875 L 314.484375 154.523438 L 312.710938 154.523438 L 312.710938 156.296875 L 317.148438 156.296875 L 317.148438 149.191406 Z M 312.710938 149.191406 "/>
<path style=" stroke:none;fill-rule:nonzero;fill:rgb(42.352941%,38.823529%,100%);fill-opacity:1;" d="M 312.710938 172.28125 L 312.710938 174.058594 L 314.484375 174.058594 L 314.484375 177.609375 L 312.710938 177.609375 L 312.710938 179.386719 L 317.148438 179.386719 L 317.148438 172.28125 Z M 312.710938 172.28125 "/>
<path style=" stroke:none;fill-rule:nonzero;fill:rgb(42.352941%,38.823529%,100%);fill-opacity:1;" d="M 312.710938 205.140625 L 312.710938 206.917969 L 314.484375 206.917969 L 314.484375 210.46875 L 312.710938 210.46875 L 312.710938 212.246094 L 317.148438 212.246094 L 317.148438 205.140625 Z M 312.710938 205.140625 "/>
<path style=" stroke:none;fill-rule:nonzero;fill:rgb(42.352941%,38.823529%,100%);fill-opacity:1;" d="M 312.710938 214.910156 L 312.710938 216.683594 L 314.484375 216.683594 L 314.484375 220.238281 L 312.710938 220.238281 L 312.710938 222.011719 L 317.148438 222.011719 L 317.148438 214.910156 Z M 312.710938 214.910156 "/>
<path style=" stroke:none;fill-rule:nonzero;fill:rgb(42.352941%,38.823529%,100%);fill-opacity:1;" d="M 358.839844 38.1875 L 363.277344 38.1875 L 363.277344 45.289062 L 358.839844 45.289062 Z M 358.839844 38.1875 "/>
<path style=" stroke:none;fill-rule:nonzero;fill:rgb(42.352941%,38.823529%,100%);fill-opacity:1;" d="M 358.839844 49.730469 L 363.277344 49.730469 L 363.277344 56.835938 L 358.839844 56.835938 Z M 358.839844 49.730469 "/>
<path style=" stroke:none;fill-rule:nonzero;fill:rgb(42.352941%,38.823529%,100%);fill-opacity:1;" d="M 357.066406 62.164062 L 363.277344 62.164062 L 363.277344 63.050781 L 357.066406 63.050781 Z M 357.066406 62.164062 "/>
<path style=" stroke:none;fill-rule:nonzero;fill:rgb(42.352941%,38.823529%,100%);fill-opacity:1;" d="M 357.066406 119 L 363.277344 119 L 363.277344 119.886719 L 357.066406 119.886719 Z M 357.066406 119 "/>
<path style=" stroke:none;fill-rule:nonzero;fill:rgb(42.352941%,38.823529%,100%);fill-opacity:1;" d="M 357.066406 128.769531 L 363.277344 128.769531 L 363.277344 129.65625 L 357.066406 129.65625 Z M 357.066406 128.769531 "/>
<path style=" stroke:none;fill-rule:nonzero;fill:rgb(42.352941%,38.823529%,100%);fill-opacity:1;" d="M 358.839844 70.15625 L 358.839844 71.933594 L 360.617188 71.933594 L 360.617188 75.484375 L 358.839844 75.484375 L 358.839844 77.261719 L 363.277344 77.261719 L 363.277344 70.15625 Z M 358.839844 70.15625 "/>
<path style=" stroke:none;fill-rule:nonzero;fill:rgb(42.352941%,38.823529%,100%);fill-opacity:1;" d="M 358.839844 92.359375 L 358.839844 94.132812 L 360.617188 94.132812 L 360.617188 97.6875 L 358.839844 97.6875 L 358.839844 99.460938 L 363.277344 99.460938 L 363.277344 92.359375 Z M 358.839844 92.359375 "/>
<path style=" stroke:none;fill-rule:nonzero;fill:rgb(42.352941%,38.823529%,100%);fill-opacity:1;" d="M 358.839844 137.648438 L 358.839844 139.425781 L 360.617188 139.425781 L 360.617188 142.976562 L 358.839844 142.976562 L 358.839844 144.753906 L 363.277344 144.753906 L 363.277344 137.648438 Z M 358.839844 137.648438 "/>
<path style=" stroke:none;fill-rule:nonzero;fill:rgb(42.352941%,38.823529%,100%);fill-opacity:1;" d="M 409.40625 115.445312 L 413.84375 115.445312 L 413.84375 122.550781 L 409.40625 122.550781 Z M 409.40625 115.445312 "/>
<path style=" stroke:none;fill-rule:nonzero;fill:rgb(42.352941%,38.823529%,100%);fill-opacity:1;" d="M 409.40625 126.992188 L 413.84375 126.992188 L 413.84375 134.097656 L 409.40625 134.097656 Z M 409.40625 126.992188 "/>
<path style=" stroke:none;fill-rule:nonzero;fill:rgb(42.352941%,38.823529%,100%);fill-opacity:1;" d="M 407.632812 139.425781 L 413.84375 139.425781 L 413.84375 140.3125 L 407.632812 140.3125 Z M 407.632812 139.425781 "/>
<path style=" stroke:none;fill-rule:nonzero;fill:rgb(42.352941%,38.823529%,100%);fill-opacity:1;" d="M 407.632812 196.257812 L 413.84375 196.257812 L 413.84375 197.148438 L 407.632812 197.148438 Z M 407.632812 196.257812 "/>
<path style=" stroke:none;fill-rule:nonzero;fill:rgb(42.352941%,38.823529%,100%);fill-opacity:1;" d="M 407.632812 206.027344 L 413.84375 206.027344 L 413.84375 206.917969 L 407.632812 206.917969 Z M 407.632812 206.027344 "/>
<path style=" stroke:none;fill-rule:nonzero;fill:rgb(42.352941%,38.823529%,100%);fill-opacity:1;" d="M 409.40625 147.417969 L 409.40625 149.191406 L 411.183594 149.191406 L 411.183594 152.746094 L 409.40625 152.746094 L 409.40625 154.523438 L 413.84375 154.523438 L 413.84375 147.417969 Z M 409.40625 147.417969 "/>
<path style=" stroke:none;fill-rule:nonzero;fill:rgb(42.352941%,38.823529%,100%);fill-opacity:1;" d="M 409.40625 169.617188 L 409.40625 171.394531 L 411.183594 171.394531 L 411.183594 174.945312 L 409.40625 174.945312 L 409.40625 176.722656 L 413.84375 176.722656 L 413.84375 169.617188 Z M 409.40625 169.617188 "/>
<path style=" stroke:none;fill-rule:nonzero;fill:rgb(42.352941%,38.823529%,100%);fill-opacity:1;" d="M 409.40625 214.910156 L 409.40625 216.683594 L 411.183594 216.683594 L 411.183594 220.238281 L 409.40625 220.238281 L 409.40625 222.011719 L 413.84375 222.011719 L 413.84375 214.910156 Z M 409.40625 214.910156 "/>
<path style=" stroke:none;fill-rule:nonzero;fill:rgb(18.431373%,18.039216%,25.490196%);fill-opacity:1;" d="M 123.269531 406.582031 L 599.023438 406.582031 L 599.023438 408.050781 L 123.269531 408.050781 Z M 123.269531 406.582031 "/>
<path style=" stroke:none;fill-rule:nonzero;fill:rgb(18.431373%,18.039216%,25.490196%);fill-opacity:1;" d="M 221.605469 232.679688 L 221.605469 262.605469 L 225.632812 281.019531 C 225.632812 281.019531 225.054688 292.527344 225.632812 295.980469 C 226.207031 299.433594 225.054688 305.1875 221.605469 305.1875 C 218.15625 305.1875 216.433594 313.820312 216.433594 313.820312 C 216.433594 313.820312 215.285156 317.273438 212.410156 317.847656 C 209.535156 318.425781 209.535156 317.847656 209.535156 317.847656 L 207.234375 323.601562 L 159.523438 355.253906 L 168.71875 378.273438 C 168.71875 378.273438 183.089844 373.09375 184.242188 371.367188 C 185.390625 369.640625 195.164062 373.667969 195.164062 369.640625 C 195.164062 365.613281 196.886719 355.253906 200.335938 354.679688 C 203.785156 354.101562 232.527344 340.867188 232.527344 340.867188 C 232.527344 340.867188 247.476562 324.179688 248.625 317.847656 C 249.773438 311.519531 254.949219 293.679688 254.949219 293.679688 L 269.320312 317.847656 L 269.320312 366.1875 L 267.019531 392.082031 L 292.3125 388.628906 C 292.3125 388.628906 290.015625 372.515625 292.3125 370.214844 C 294.613281 367.914062 298.0625 340.292969 295.761719 336.839844 C 293.464844 333.386719 296.914062 317.847656 295.761719 315.546875 C 294.613281 313.246094 295.1875 296.554688 292.3125 291.953125 C 289.441406 287.347656 272.195312 240.160156 272.195312 240.160156 Z M 221.605469 232.679688 "/>
<path style=" stroke:none;fill-rule:nonzero;fill:rgb(18.431373%,18.039216%,25.490196%);fill-opacity:1;" d="M 270.46875 390.929688 C 270.46875 390.929688 261.847656 405.316406 267.59375 407.042969 C 273.34375 408.769531 284.265625 407.042969 285.417969 407.042969 C 286.566406 407.042969 307.261719 407.621094 307.261719 407.621094 C 307.261719 407.621094 321.058594 404.742188 321.058594 400.714844 C 321.058594 396.6875 312.433594 396.6875 309.558594 396.109375 C 306.6875 395.535156 288.863281 388.628906 288.863281 388.628906 Z M 270.46875 390.929688 "/>
<path style=" stroke:none;fill-rule:nonzero;fill:rgb(18.431373%,18.039216%,25.490196%);fill-opacity:1;" d="M 162.164062 355.902344 C 162.164062 355.902344 145.546875 353.699219 146.25 359.667969 C 146.953125 365.632812 152.875 374.980469 153.332031 376.035156 C 153.644531 376.75 157.273438 385.804688 159.585938 391.578125 C 161.253906 395.808594 163.765625 399.652344 166.964844 402.886719 C 169.222656 405.148438 171.6875 406.960938 173.300781 406.257812 C 176.996094 404.65625 173.566406 396.738281 172.953125 393.867188 C 172.335938 391 171.585938 371.886719 171.585938 371.886719 Z M 162.164062 355.902344 "/>
<path style=" stroke:none;fill-rule:nonzero;fill:rgb(53.72549%,52.156863%,65.882353%);fill-opacity:1;" d="M 277.65625 137.441406 L 296.050781 94.859375 C 296.050781 94.859375 294.328125 90.828125 290.300781 91.40625 C 290.300781 91.40625 284.839844 77.308594 274.492188 77.308594 C 274.492188 77.308594 258.972656 68.675781 254.375 77.308594 C 254.375 77.308594 244.601562 85.9375 245.175781 93.996094 C 245.75 102.050781 246.324219 107.804688 246.324219 107.804688 C 246.324219 107.804688 237.128906 108.957031 238.851562 113.5625 C 240.578125 118.164062 241.152344 118.164062 238.851562 119.890625 L 236.554688 121.617188 C 236.554688 121.617188 188.839844 164.777344 215.285156 228.078125 L 217.582031 237.859375 L 217.582031 247.066406 C 217.582031 247.066406 275.644531 247.640625 275.644531 247.066406 C 275.644531 246.492188 274.492188 243.039062 276.792969 240.738281 C 279.09375 238.433594 279.09375 234.980469 279.09375 234.980469 C 279.09375 234.980469 276.792969 223.472656 277.941406 220.019531 C 279.09375 216.566406 279.667969 201.605469 277.367188 198.152344 C 275.070312 194.699219 276.21875 167.078125 276.21875 167.078125 L 281.390625 157.296875 L 279.667969 151.539062 L 277.941406 145.785156 Z M 277.65625 137.441406 "/>
<use xlink:href="#surface5" mask="url(#mask0)"/>
<path style=" stroke:none;fill-rule:nonzero;fill:rgb(94.901961%,94.901961%,94.901961%);fill-opacity:1;" d="M 277.65625 130.535156 C 277.65625 131.488281 276.882812 132.261719 275.929688 132.261719 C 274.976562 132.261719 274.207031 131.488281 274.207031 130.535156 C 274.207031 129.582031 274.976562 128.808594 275.929688 128.808594 C 276.882812 128.808594 277.65625 129.582031 277.65625 130.535156 Z M 277.65625 130.535156 "/>
<path style=" stroke:none;fill-rule:nonzero;fill:rgb(24.705882%,23.921569%,33.72549%);fill-opacity:1;" d="M 275.355469 130.535156 L 276.503906 130.535156 L 276.503906 157.582031 L 275.355469 157.582031 Z M 275.355469 130.535156 "/>
<path style=" stroke:none;fill-rule:nonzero;fill:rgb(100%,72.156863%,72.156863%);fill-opacity:1;" d="M 255.234375 254.835938 L 259.835938 264.617188 C 259.835938 264.617188 270.183594 261.164062 270.183594 259.4375 C 270.183594 257.714844 265.582031 250.230469 265.582031 250.230469 Z M 255.234375 254.835938 "/>
<path style=" stroke:none;fill-rule:nonzero;fill:rgb(53.72549%,52.156863%,65.882353%);fill-opacity:1;" d="M 248.625 125.070312 C 248.625 125.070312 235.402344 130.824219 233.105469 153.265625 C 230.804688 175.710938 241.152344 233.257812 246.324219 243.039062 C 251.5 252.820312 254.949219 259.726562 254.949219 259.726562 L 270.46875 252.820312 C 270.46875 252.820312 263.570312 233.832031 264.144531 230.378906 C 264.722656 226.925781 262.996094 220.019531 262.996094 220.019531 L 260.695312 173.410156 C 260.695312 173.410156 270.46875 131.976562 248.625 125.070312 Z M 248.625 125.070312 "/>
</g>
</svg>
